SplineFontDB: 3.2
FontName: AkhilFont
FullName: Akhil Font
FamilyName: AkhilFont
Weight: Regular
Copyright: Copyright 2011 Canonical Ltd.  Licensed under the Ubuntu Font Licence 1.0
Version: 0.800
StyleMapFamilyName: Ubuntu Monospaced
FONDName: Ubuntu Monospaced
ItalicAngle: 0
UnderlinePosition: -125.952
UnderlineWidth: 20.48
Ascent: 819
Descent: 205
InvalidEm: 1
UFOAscent: 794.624
UFODescent: -189.44
LayerCount: 2
Layer: 0 0 "public.background" 1 "glyphs.public.background"
Layer: 1 0 "public.default" 0 "glyphs"
StyleMap: 0x0040
FSType: 0
OS2Version: 0
OS2_WeightWidthSlopeOnly: 0
OS2_UseTypoMetrics: 0
CreationTime: 1753349607
ModificationTime: 1753349700
PfmFamily: 16
TTFWeight: 400
TTFWidth: 5
LineGap: 0
VLineGap: 0
Panose: 2 11 5 9 3 6 2 3 2 4
OS2TypoAscent: 710
OS2TypoAOffset: 0
OS2TypoDescent: -169
OS2TypoDOffset: 0
OS2TypoLinegap: 50
OS2WinAscent: 850
OS2WinAOffset: 0
OS2WinDescent: 174
OS2WinDOffset: 0
HheadAscent: 850
HheadAOffset: 0
HheadDescent: -174
HheadDOffset: 0
OS2SubXSize: 717
OS2SubYSize: 666
OS2SubXOff: 0
OS2SubYOff: 143
OS2SupXSize: 717
OS2SupYSize: 666
OS2SupXOff: 0
OS2SupYOff: 488
OS2StrikeYSize: 51
OS2StrikeYPos: 256
OS2CapHeight: 710
OS2XHeight: 532
OS2Vendor: 'DAMA'
OS2CodePages: 2000009f.56010000
OS2UnicodeRanges: e00002ff.5000205b.00000000.00000000
Lookup: 1 0 0 "'locl' Localized Forms in Latin lookup 0" { "'locl' Localized Forms in Latin lookup 0 subtable"  } ['locl' ('latn' <'AZE ' > ) ]
Lookup: 1 0 0 "'locl' Localized Forms in Latin lookup 1" { "'locl' Localized Forms in Latin lookup 1 subtable"  } ['locl' ('latn' <'TRK ' > ) ]
Lookup: 1 0 0 "'locl' Localized Forms in Latin lookup 2" { "'locl' Localized Forms in Latin lookup 2 subtable"  } ['locl' ('latn' <'CRT ' > ) ]
Lookup: 1 0 0 "'locl' Localized Forms in Cyrillic lookup 3" { "'locl' Localized Forms in Cyrillic lookup 3 subtable"  } ['locl' ('cyrl' <'BGR ' > ) ]

StartChar: .notdef
Encoding: 0 -1 0
GlifName: _notdef
Width: 593
VWidth: 0
Flags: HW
LayerCount: 2
Fore
SplineSet
461 0 m 257
 461 768 l 257
 51 768 l 257
 51 0 l 257
 461 0 l 257
102 51 m 257
 102 717 l 257
 410 717 l 257
 410 51 l 257
 102 51 l 257
EndSplineSet
Validated: 9
EndChar

StartChar: A
Encoding: 2 65 2
GlifName: A_
Width: 593
VWidth: 0
Flags: HW
LayerCount: 2
Fore
SplineSet
503 0 m 257
 456 179 389 431 310 634 c 257
 206 634 l 257
 125 431 56 180 9 0 c 257
 95 0 l 257
 132 166 l 257
 376 166 l 257
 414 0 l 257
 503 0 l 257
255 560 m 257
 286 479 324 358 356 236 c 257
 152 236 l 257
 185 356 224 475 255 560 c 257
EndSplineSet
Validated: 9
EndChar

StartChar: AE
Encoding: 3 198 3
GlifName: A_E_
Width: 593
VWidth: 0
Flags: HW
LayerCount: 2
Fore
SplineSet
494 0 m 257
 494 72 l 257
 349 72 l 257
 349 296 l 257
 457 296 l 257
 457 368 l 257
 349 368 l 257
 349 562 l 257
 480 562 l 257
 480 634 l 257
 224 634 l 257
 149 445 88 236 28 0 c 257
 111 0 l 257
 148 166 l 257
 269 166 l 257
 269 0 l 257
 494 0 l 257
269 580 m 257
 269 236 l 257
 167 236 l 257
 196 336 231 461 269 580 c 257
EndSplineSet
Validated: 9
PickledDataWithLists: "(dp0
Vcom.fontlab.v5.background
p1
(dp2
Vdata
p3
(dp4
Vbytes
p5
(lp6
I255
aI0
aI0
aI254
aI255
aI0
aI0
aI254
aI255
aI0
aI0
aI254
aI255
aI60
aI0
aI255
aI192
aI63
aI0
aI255
aI192
aI63
aI0
aI255
aI195
aI255
aI0
aI255
aI131
aI255
aI0
aI255
aI147
aI255
aI0
aI255
aI147
aI255
aI0
aI255
aI144
aI63
aI0
aI255
aI48
aI63
aI0
aI255
aI51
aI255
aI0
aI255
aI3
aI255
aI0
aI254
aI3
aI255
aI0
aI254
aI115
aI255
aI0
aI254
aI115
aI255
aI0
aI252
aI240
aI63
aI0
aI252
aI240
aI63
aI0
aI254
aI255
aI0
aI0
aI254
aI255
aI0
aI0
aI254
aI255
aI0
aI0
aI254
aI255
aI0
aI0
aI254
aI255
aI0
aI0
aI0
aI0
aI0
aI0
aI0
aI0
aI0
aI0
aI0
aI0
aI0
aI0
aI0
aI0
aI0
aI0
aI0
aI0
aI0
aI0
aI0
aI0
aI0
aI0
aI0
aI0
aI0
aI0
aI0
aI0
aI0
aI0
aI0
aI0
aI0
aI0
aI0
aI0
aI0
aI0
aI0
aI0
aI0
aI0
aI0
aI0
aI0
aI0
aI0
aI0
aI0
aI0
aI0
aI0
aI0
aI0
aI0
aI0
aI0
aI0
aI0
aI0
aI0
aI0
aI0
aI0
aI0
aI0
aI0
aI0
aI0
aI0
aI0
aI0
aI0
aI0
aI0
aI0
aI0
aI0
aI0
aI0
aI0
aI0
aI0
aI0
aI0
aI0
aI0
aI0
aI0
aI0
aI0
aI0
aI0
aI0
aI0
aI0
aI0
aI0
aI0
aI0
aI0
aI0
aI0
aI0
aI0
aI0
aI0
aI0
aI0
aI0
aI0
aI0
aI0
aI0
aI0
aI0
aI0
aI0
aI0
aI0
aI0
aI0
aI0
aI0
aI0
aI0
aI0
aI0
aI0
aI0
aI0
aI0
aI0
aI0
aI0
aI0
aI0
aI0
aI0
aI0
aI0
aI0
aI0
aI0
aI0
aI0
aI0
aI0
aI0
aI0
aI0
aI0
aI0
aI0
aI0
aI0
aI0
asVnum_bytes
p7
I254
ssVlen
p8
I96
sVorigin
p9
(lp10
I-187
aI-208
asVsize_pixels
p11
(lp12
I24
aI24
asVsize_units
p13
(lp14
I812
aI791
ass."
EndChar

StartChar: Aogonek
Encoding: 13 260 13
GlifName: A_ogonek
Width: 593
VWidth: 0
Flags: HW
LayerCount: 2
Back
SplineSet
501.759765625 2.0478515625 m 257
 454.65625 181.248046875 389.120117188 431.103515625 310.272460938 633.856445312 c 257
 205.82421875 633.856445312 l 257
 124.927734375 431.103515625 56.3203125 180.223632812 9.2158203125 0 c 257
 95.232421875 0 l 257
 132.095703125 165.887695312 l 257
 375.807617188 165.887695312 l 257
 414.719726562 -3.072265625 l 257
 406.528320312 -9.2158203125 399.360351562 -15.3603515625 389.120117188 -26.6240234375 c 256
 367.616210938 -49.15234375 350.208007812 -74.751953125 350.208007812 -103.423828125 c 256
 350.208007812 -146.431640625 378.879882812 -171.0078125 447.48828125 -171.0078125 c 256
 472.064453125 -171.0078125 493.568359375 -166.912109375 507.904296875 -160.767578125 c 257
 500.736328125 -105.471679688 l 257
 487.423828125 -109.568359375 472.064453125 -111.616210938 463.872070312 -111.616210938 c 256
 439.295898438 -111.616210938 427.0078125 -102.400390625 427.0078125 -84.9921875 c 256
 427.0078125 -67.583984375 437.248046875 -55.2958984375 454.65625 -35.83984375 c 256
 468.9921875 -21.50390625 483.328125 -8.1923828125 501.759765625 2.0478515625 c 257
EndSplineSet
Fore
SplineSet
502 2 m 257
 455 181 389 431 310 634 c 257
 206 634 l 257
 125 431 56 180 9 0 c 257
 95 0 l 257
 132 166 l 257
 376 166 l 257
 415 -3 l 257
 383 -29 350 -63 350 -103 c 256
 350 -146 378 -171 447 -171 c 256
 472 -171 494 -167 508 -161 c 257
 501 -105 l 257
 488 -109 472 -112 464 -112 c 256
 439 -112 427 -102 427 -85 c 256
 427 -68 438 -55 455 -36 c 256
 469 -22 484 -8 502 2 c 257
255 560 m 257
 286 479 324 358 356 236 c 257
 152 236 l 257
 185 356 224 475 255 560 c 257
EndSplineSet
Validated: 9
PickledDataWithLists: "(dp0
Vcom.fontlab.v5.background
p1
(dp2
Vdata
p3
(dp4
Vbytes
p5
(lp6
I255
aI0
aI0
aI254
aI255
aI0
aI0
aI254
aI255
aI0
aI0
aI254
aI255
aI76
aI0
aI255
aI199
aI255
aI0
aI255
aI199
aI255
aI0
aI255
aI199
aI255
aI0
aI255
aI147
aI255
aI0
aI255
aI147
aI255
aI0
aI255
aI147
aI255
aI0
aI255
aI147
aI255
aI0
aI255
aI57
aI255
aI0
aI255
aI1
aI255
aI0
aI255
aI1
aI255
aI0
aI254
aI124
aI255
aI0
aI254
aI124
aI255
aI0
aI254
aI124
aI255
aI0
aI252
aI254
aI127
aI0
aI252
aI254
aI127
aI0
aI255
aI254
aI255
aI0
aI255
aI253
aI255
aI0
aI255
aI253
aI255
aI0
aI255
aI254
aI63
aI0
aI254
aI255
aI0
aI0
aI0
aI0
aI0
aI0
aI0
aI0
aI0
aI0
aI0
aI0
aI0
aI0
aI0
aI0
aI0
aI0
aI0
aI0
aI0
aI0
aI0
aI0
aI0
aI0
aI0
aI0
aI0
aI0
aI0
aI0
aI0
aI0
aI0
aI0
aI0
aI0
aI0
aI0
aI0
aI0
aI0
aI0
aI0
aI0
aI0
aI0
aI0
aI0
aI0
aI0
aI0
aI0
aI0
aI0
aI0
aI0
aI0
aI0
aI0
aI0
aI0
aI0
aI0
aI0
aI0
aI0
aI0
aI0
aI0
aI0
aI0
aI0
aI0
aI0
aI0
aI0
aI0
aI0
aI0
aI0
aI0
aI0
aI0
aI0
aI0
aI0
aI0
aI0
aI0
aI0
aI0
aI0
aI0
aI0
aI0
aI0
aI0
aI0
aI0
aI0
aI0
aI0
aI0
aI0
aI0
aI0
aI0
aI0
aI0
aI0
aI0
aI0
aI0
aI0
aI0
aI0
aI0
aI0
aI0
aI0
aI0
aI0
aI0
aI0
aI0
aI0
aI0
aI0
aI0
aI0
aI0
aI0
aI0
aI0
aI0
aI0
aI0
aI0
aI0
aI0
aI0
aI0
aI0
aI0
aI0
aI0
aI0
aI0
aI0
aI0
aI0
aI0
aI0
aI0
aI0
aI0
aI0
aI0
aI0
asVnum_bytes
p7
I254
ssVlen
p8
I96
sVorigin
p9
(lp10
I-166
aI-208
asVsize_pixels
p11
(lp12
I24
aI24
asVsize_units
p13
(lp14
I833
aI791
ass."
EndChar

StartChar: Aring
Encoding: 14 197 14
GlifName: A_ring
Width: 593
VWidth: 0
Flags: HW
LayerCount: 2
Fore
SplineSet
503 0 m 257
 458 170 387 440 317 601 c 257
 335 616 351 644 351 674 c 256
 351 731 307 767 257 767 c 256
 207 767 163 731 163 674 c 256
 163 643 179 616 198 600 c 257
 128 440 54 171 9 0 c 257
 95 0 l 257
 132 166 l 257
 376 166 l 257
 414 0 l 257
 503 0 l 257
255 560 m 257
 286 479 324 358 356 236 c 257
 152 236 l 257
 185 356 224 475 255 560 c 257
305 674 m 256
 305 642 284 624 257 624 c 256
 230 624 209 642 209 674 c 256
 209 706 230 724 257 724 c 256
 284 724 305 706 305 674 c 256
EndSplineSet
Validated: 9
PickledDataWithLists: "(dp0
Vcom.fontlab.v5.background
p1
(dp2
Vdata
p3
(dp4
Vbytes
p5
(lp6
I255
aI72
aI0
aI255
aI199
aI255
aI0
aI255
aI187
aI255
aI0
aI255
aI187
aI255
aI0
aI255
aI195
aI255
aI0
aI255
aI199
aI255
aI0
aI255
aI199
aI255
aI0
aI255
aI195
aI255
aI0
aI255
aI147
aI255
aI0
aI255
aI147
aI255
aI0
aI255
aI147
aI255
aI0
aI255
aI57
aI255
aI0
aI255
aI57
aI255
aI0
aI255
aI1
aI255
aI0
aI254
aI0
aI255
aI0
aI254
aI124
aI255
aI0
aI254
aI124
aI255
aI0
aI252
aI254
aI127
aI0
aI252
aI254
aI127
aI0
aI254
aI255
aI0
aI0
aI254
aI255
aI0
aI0
aI254
aI255
aI0
aI0
aI254
aI255
aI0
aI0
aI254
aI255
aI0
aI0
aI0
aI0
aI0
aI0
aI0
aI0
aI0
aI0
aI0
aI0
aI0
aI0
aI0
aI0
aI0
aI0
aI0
aI0
aI0
aI0
aI0
aI0
aI0
aI0
aI0
aI0
aI0
aI0
aI0
aI0
aI0
aI0
aI0
aI0
aI0
aI0
aI0
aI0
aI0
aI0
aI0
aI0
aI0
aI0
aI0
aI0
aI0
aI0
aI0
aI0
aI0
aI0
aI0
aI0
aI0
aI0
aI0
aI0
aI0
aI0
aI0
aI0
aI0
aI0
aI0
aI0
aI0
aI0
aI0
aI0
aI0
aI0
aI0
aI0
aI0
aI0
aI0
aI0
aI0
aI0
aI0
aI0
aI0
aI0
aI0
aI0
aI0
aI0
aI0
aI0
aI0
aI0
aI0
aI0
aI0
aI0
aI0
aI0
aI0
aI0
aI0
aI0
aI0
aI0
aI0
aI0
aI0
aI0
aI0
aI0
aI0
aI0
aI0
aI0
aI0
aI0
aI0
aI0
aI0
aI0
aI0
aI0
aI0
aI0
aI0
aI0
aI0
aI0
aI0
aI0
aI0
aI0
aI0
aI0
aI0
aI0
aI0
aI0
aI0
aI0
aI0
aI0
aI0
aI0
aI0
aI0
aI0
aI0
aI0
aI0
aI0
aI0
aI0
aI0
aI0
aI0
aI0
aI0
aI0
asVnum_bytes
p7
I254
ssVlen
p8
I96
sVorigin
p9
(lp10
I-166
aI-208
asVsize_pixels
p11
(lp12
I24
aI24
asVsize_units
p13
(lp14
I833
aI791
ass."
EndChar

StartChar: Aringacute
Encoding: 15 506 15
GlifName: A_ringacute
Width: 593
VWidth: 0
Flags: HW
LayerCount: 2
Back
SplineSet
316.416015625 879.616210938 m 257
 178.17578125 807.935546875 l 257
 197.631835938 757.759765625 l 257
 342.015625 813.055664062 l 257
 316.416015625 879.616210938 l 257
342.015625 657.408203125 m 256
 342.015625 709.631835938 302.080078125 741.375976562 257.024414062 741.375976562 c 256
 209.919921875 741.375976562 172.032226562 709.631835938 172.032226562 657.408203125 c 256
 172.032226562 631.807617188 181.248046875 611.328125 195.583984375 595.967773438 c 257
 126.975585938 437.248046875 53.248046875 169.984375 9.2158203125 0 c 257
 95.232421875 0 l 257
 132.095703125 165.887695312 l 257
 375.807617188 165.887695312 l 257
 413.696289062 0 l 257
 502.784179688 0 l 257
 457.727539062 168.959960938 388.095703125 437.248046875 318.463867188 598.015625 c 257
 332.799804688 612.3515625 342.015625 632.83203125 342.015625 657.408203125 c 256
254.975585938 560.127929688 m 257
 285.696289062 479.232421875 324.608398438 357.375976562 356.3515625 235.51953125 c 257
 151.551757812 235.51953125 l 257
 184.3203125 355.328125 224.255859375 475.135742188 254.975585938 560.127929688 c 257
301.055664062 657.408203125 m 256
 301.055664062 628.736328125 281.599609375 611.328125 257.024414062 611.328125 c 256
 232.448242188 611.328125 212.9921875 628.736328125 212.9921875 657.408203125 c 256
 212.9921875 686.080078125 232.448242188 702.463867188 257.024414062 702.463867188 c 256
 281.599609375 702.463867188 301.055664062 686.080078125 301.055664062 657.408203125 c 256
EndSplineSet
Fore
SplineSet
342 637 m 256
 342 689 302 721 257 721 c 256
 210 721 172 689 172 637 c 256
 172 611 182 590 196 575 c 257
 131 423 53 170 9 0 c 257
 95 0 l 257
 132 166 l 257
 376 166 l 257
 414 0 l 257
 503 0 l 257
 458 169 383 423 318 578 c 257
 332 592 342 612 342 637 c 256
255 550 m 257
 286 469 320 364 356 236 c 257
 152 236 l 257
 190 365 224 465 255 550 c 257
301 637 m 256
 301 608 282 591 257 591 c 256
 232 591 213 608 213 637 c 256
 213 666 232 682 257 682 c 256
 282 682 301 666 301 637 c 256
317 850 m 257
 180 788 l 257
 200 738 l 257
 343 783 l 257
 317 850 l 257
EndSplineSet
Validated: 9
PickledDataWithLists: "(dp0
Vcom.fontlab.v5.background
p1
(dp2
Vdata
p3
(dp4
Vbytes
p5
(lp6
I255
aI72
aI0
aI255
aI199
aI255
aI0
aI255
aI187
aI255
aI0
aI255
aI187
aI255
aI0
aI255
aI195
aI255
aI0
aI255
aI199
aI255
aI0
aI255
aI199
aI255
aI0
aI255
aI195
aI255
aI0
aI255
aI147
aI255
aI0
aI255
aI147
aI255
aI0
aI255
aI147
aI255
aI0
aI255
aI57
aI255
aI0
aI255
aI57
aI255
aI0
aI255
aI1
aI255
aI0
aI254
aI0
aI255
aI0
aI254
aI124
aI255
aI0
aI254
aI124
aI255
aI0
aI252
aI254
aI127
aI0
aI252
aI254
aI127
aI0
aI254
aI255
aI0
aI0
aI254
aI255
aI0
aI0
aI254
aI255
aI0
aI0
aI254
aI255
aI0
aI0
aI254
aI255
aI0
aI0
aI0
aI0
aI0
aI0
aI0
aI0
aI0
aI0
aI0
aI0
aI0
aI0
aI0
aI0
aI0
aI0
aI0
aI0
aI0
aI0
aI0
aI0
aI0
aI0
aI0
aI0
aI0
aI0
aI0
aI0
aI0
aI0
aI0
aI0
aI0
aI0
aI0
aI0
aI0
aI0
aI0
aI0
aI0
aI0
aI0
aI0
aI0
aI0
aI0
aI0
aI0
aI0
aI0
aI0
aI0
aI0
aI0
aI0
aI0
aI0
aI0
aI0
aI0
aI0
aI0
aI0
aI0
aI0
aI0
aI0
aI0
aI0
aI0
aI0
aI0
aI0
aI0
aI0
aI0
aI0
aI0
aI0
aI0
aI0
aI0
aI0
aI0
aI0
aI0
aI0
aI0
aI0
aI0
aI0
aI0
aI0
aI0
aI0
aI0
aI0
aI0
aI0
aI0
aI0
aI0
aI0
aI0
aI0
aI0
aI0
aI0
aI0
aI0
aI0
aI0
aI0
aI0
aI0
aI0
aI0
aI0
aI0
aI0
aI0
aI0
aI0
aI0
aI0
aI0
aI0
aI0
aI0
aI0
aI0
aI0
aI0
aI0
aI0
aI0
aI0
aI0
aI0
aI0
aI0
aI0
aI0
aI0
aI0
aI0
aI0
aI0
aI0
aI0
aI0
aI0
aI0
aI0
aI0
aI0
asVnum_bytes
p7
I254
ssVlen
p8
I96
sVorigin
p9
(lp10
I-166
aI-208
asVsize_pixels
p11
(lp12
I24
aI24
asVsize_units
p13
(lp14
I833
aI791
ass."
EndChar

StartChar: B
Encoding: 18 66 18
GlifName: B_
Width: 593
VWidth: 0
Flags: HW
LayerCount: 2
Fore
SplineSet
209 -5 m 256
 385 -5 462 59 462 185 c 256
 462 267 409 319 339 338 c 257
 390 357 432 415 432 474 c 256
 432 599 336 640 209 640 c 256
 166 640 97 636 55 625 c 257
 55 10 l 257
 97 -1 167 -5 209 -5 c 256
225 296 m 257
 305 296 378 269 378 184 c 256
 378 90 299 66 215 66 c 256
 173 66 141 69 139 70 c 257
 139 296 l 257
 225 296 l 257
139 565 m 257
 150 567 179 568 214 568 c 256
 285 568 348 542 348 467 c 256
 348 389 276 366 206 366 c 258
 139 366 l 257
 139 565 l 257
EndSplineSet
Validated: 9
PickledDataWithLists: "(dp0
Vcom.fontlab.v5.background
p1
(dp2
Vdata
p3
(dp4
Vbytes
p5
(lp6
I255
aI0
aI0
aI254
aI255
aI0
aI0
aI254
aI255
aI0
aI0
aI254
aI255
aI60
aI0
aI254
aI7
aI255
aI0
aI254
aI3
aI255
aI0
aI254
aI113
aI255
aI0
aI254
aI121
aI255
aI0
aI254
aI121
aI255
aI0
aI254
aI113
aI255
aI0
aI254
aI3
aI255
aI0
aI254
aI3
aI255
aI0
aI254
aI121
aI255
aI0
aI254
aI124
aI255
aI0
aI254
aI124
aI255
aI0
aI254
aI124
aI255
aI0
aI254
aI120
aI255
aI0
aI254
aI1
aI255
aI0
aI254
aI3
aI255
aI0
aI254
aI255
aI0
aI0
aI254
aI255
aI0
aI0
aI254
aI255
aI0
aI0
aI254
aI255
aI0
aI0
aI254
aI255
aI0
aI0
aI0
aI0
aI0
aI0
aI0
aI0
aI0
aI0
aI0
aI0
aI0
aI0
aI0
aI0
aI0
aI0
aI0
aI0
aI0
aI0
aI0
aI0
aI0
aI0
aI0
aI0
aI0
aI0
aI0
aI0
aI0
aI0
aI0
aI0
aI0
aI0
aI0
aI0
aI0
aI0
aI0
aI0
aI0
aI0
aI0
aI0
aI0
aI0
aI0
aI0
aI0
aI0
aI0
aI0
aI0
aI0
aI0
aI0
aI0
aI0
aI0
aI0
aI0
aI0
aI0
aI0
aI0
aI0
aI0
aI0
aI0
aI0
aI0
aI0
aI0
aI0
aI0
aI0
aI0
aI0
aI0
aI0
aI0
aI0
aI0
aI0
aI0
aI0
aI0
aI0
aI0
aI0
aI0
aI0
aI0
aI0
aI0
aI0
aI0
aI0
aI0
aI0
aI0
aI0
aI0
aI0
aI0
aI0
aI0
aI0
aI0
aI0
aI0
aI0
aI0
aI0
aI0
aI0
aI0
aI0
aI0
aI0
aI0
aI0
aI0
aI0
aI0
aI0
aI0
aI0
aI0
aI0
aI0
aI0
aI0
aI0
aI0
aI0
aI0
aI0
aI0
aI0
aI0
aI0
aI0
aI0
aI0
aI0
aI0
aI0
aI0
aI0
aI0
aI0
aI0
aI0
aI0
aI0
aI0
asVnum_bytes
p7
I254
ssVlen
p8
I96
sVorigin
p9
(lp10
I-190
aI-209
asVsize_pixels
p11
(lp12
I24
aI24
asVsize_units
p13
(lp14
I809
aI790
ass."
EndChar

StartChar: Beta
Encoding: 20 914 20
GlifName: B_eta
Width: 593
VWidth: 0
Flags: HW
LayerCount: 2
Fore
SplineSet
209 -5 m 256
 385 -5 461 59 461 185 c 256
 461 267 411 314 346 338 c 257
 390 364 432 415 432 474 c 256
 432 599 336 640 209 640 c 256
 166 640 97 636 55 625 c 257
 55 10 l 257
 97 -1 167 -5 209 -5 c 256
239 296 m 257
 320 296 377 269 377 184 c 256
 377 90 299 66 215 66 c 256
 173 66 141 69 139 70 c 257
 139 296 l 257
 239 296 l 257
139 565 m 257
 150 567 179 568 214 568 c 256
 285 568 348 542 348 467 c 256
 348 389 289 366 219 366 c 258
 139 366 l 257
 139 565 l 257
EndSplineSet
Validated: 9
PickledDataWithLists: "(dp0
Vcom.fontlab.v5.background
p1
(dp2
Vdata
p3
(dp4
Vbytes
p5
(lp6
I255
aI0
aI0
aI254
aI255
aI0
aI0
aI254
aI255
aI0
aI0
aI254
aI255
aI60
aI0
aI254
aI7
aI255
aI0
aI254
aI3
aI255
aI0
aI254
aI113
aI255
aI0
aI254
aI121
aI255
aI0
aI254
aI121
aI255
aI0
aI254
aI113
aI255
aI0
aI254
aI3
aI255
aI0
aI254
aI3
aI255
aI0
aI254
aI121
aI255
aI0
aI254
aI124
aI255
aI0
aI254
aI124
aI255
aI0
aI254
aI124
aI255
aI0
aI254
aI120
aI255
aI0
aI254
aI1
aI255
aI0
aI254
aI3
aI255
aI0
aI254
aI255
aI0
aI0
aI254
aI255
aI0
aI0
aI254
aI255
aI0
aI0
aI254
aI255
aI0
aI0
aI254
aI255
aI0
aI0
aI0
aI0
aI0
aI0
aI0
aI0
aI0
aI0
aI0
aI0
aI0
aI0
aI0
aI0
aI0
aI0
aI0
aI0
aI0
aI0
aI0
aI0
aI0
aI0
aI0
aI0
aI0
aI0
aI0
aI0
aI0
aI0
aI0
aI0
aI0
aI0
aI0
aI0
aI0
aI0
aI0
aI0
aI0
aI0
aI0
aI0
aI0
aI0
aI0
aI0
aI0
aI0
aI0
aI0
aI0
aI0
aI0
aI0
aI0
aI0
aI0
aI0
aI0
aI0
aI0
aI0
aI0
aI0
aI0
aI0
aI0
aI0
aI0
aI0
aI0
aI0
aI0
aI0
aI0
aI0
aI0
aI0
aI0
aI0
aI0
aI0
aI0
aI0
aI0
aI0
aI0
aI0
aI0
aI0
aI0
aI0
aI0
aI0
aI0
aI0
aI0
aI0
aI0
aI0
aI0
aI0
aI0
aI0
aI0
aI0
aI0
aI0
aI0
aI0
aI0
aI0
aI0
aI0
aI0
aI0
aI0
aI0
aI0
aI0
aI0
aI0
aI0
aI0
aI0
aI0
aI0
aI0
aI0
aI0
aI0
aI0
aI0
aI0
aI0
aI0
aI0
aI0
aI0
aI0
aI0
aI0
aI0
aI0
aI0
aI0
aI0
aI0
aI0
aI0
aI0
aI0
aI0
aI0
aI0
asVnum_bytes
p7
I254
ssVlen
p8
I96
sVorigin
p9
(lp10
I-166
aI-208
asVsize_pixels
p11
(lp12
I24
aI24
asVsize_units
p13
(lp14
I833
aI791
ass."
EndChar

StartChar: C
Encoding: 26 67 26
GlifName: C_
Width: 593
VWidth: 0
Flags: HW
LayerCount: 2
Fore
SplineSet
449 96 m 257
 403 70 358 61 318 61 c 256
 210 61 133 143 133 317 c 256
 133 473 202 573 314 573 c 256
 353 573 395 562 441 535 c 257
 466 604 l 257
 416 635 361 648 311 648 c 256
 167 648 47 532 47 317 c 256
 47 91 158 -13 308 -13 c 256
 369 -13 423 -1 471 27 c 257
 449 96 l 257
EndSplineSet
Validated: 9
PickledDataWithLists: "(dp0
Vcom.fontlab.v5.background
p1
(dp2
Vdata
p3
(dp4
Vbytes
p5
(lp6
I255
aI0
aI0
aI254
aI255
aI0
aI0
aI254
aI255
aI0
aI0
aI254
aI255
aI60
aI0
aI255
aI193
aI255
aI0
aI255
aI128
aI255
aI0
aI255
aI30
aI255
aI0
aI255
aI63
aI255
aI0
aI254
aI127
aI255
aI0
aI254
aI127
aI255
aI0
aI254
aI127
aI255
aI0
aI254
aI127
aI255
aI0
aI254
aI127
aI255
aI0
aI254
aI127
aI255
aI0
aI254
aI127
aI255
aI0
aI255
aI63
aI255
aI0
aI255
aI30
aI255
aI0
aI255
aI128
aI255
aI0
aI255
aI193
aI255
aI0
aI254
aI255
aI0
aI0
aI254
aI255
aI0
aI0
aI254
aI255
aI0
aI0
aI254
aI255
aI0
aI0
aI254
aI255
aI0
aI0
aI0
aI0
aI0
aI0
aI0
aI0
aI0
aI0
aI0
aI0
aI0
aI0
aI0
aI0
aI0
aI0
aI0
aI0
aI0
aI0
aI0
aI0
aI0
aI0
aI0
aI0
aI0
aI0
aI0
aI0
aI0
aI0
aI0
aI0
aI0
aI0
aI0
aI0
aI0
aI0
aI0
aI0
aI0
aI0
aI0
aI0
aI0
aI0
aI0
aI0
aI0
aI0
aI0
aI0
aI0
aI0
aI0
aI0
aI0
aI0
aI0
aI0
aI0
aI0
aI0
aI0
aI0
aI0
aI0
aI0
aI0
aI0
aI0
aI0
aI0
aI0
aI0
aI0
aI0
aI0
aI0
aI0
aI0
aI0
aI0
aI0
aI0
aI0
aI0
aI0
aI0
aI0
aI0
aI0
aI0
aI0
aI0
aI0
aI0
aI0
aI0
aI0
aI0
aI0
aI0
aI0
aI0
aI0
aI0
aI0
aI0
aI0
aI0
aI0
aI0
aI0
aI0
aI0
aI0
aI0
aI0
aI0
aI0
aI0
aI0
aI0
aI0
aI0
aI0
aI0
aI0
aI0
aI0
aI0
aI0
aI0
aI0
aI0
aI0
aI0
aI0
aI0
aI0
aI0
aI0
aI0
aI0
aI0
aI0
aI0
aI0
aI0
aI0
aI0
aI0
aI0
aI0
aI0
aI0
asVnum_bytes
p7
I254
ssVlen
p8
I96
sVorigin
p9
(lp10
I-160
aI-189
asVsize_pixels
p11
(lp12
I24
aI24
asVsize_units
p13
(lp14
I839
aI810
ass."
EndChar

StartChar: Ccedilla
Encoding: 30 199 30
GlifName: C_cedilla
Width: 593
VWidth: 0
Flags: HW
LayerCount: 2
Fore
SplineSet
336 -12 m 257
 386 -9 430 3 471 27 c 257
 449 96 l 257
 403 70 358 61 318 61 c 256
 210 61 133 143 133 317 c 256
 133 473 202 573 314 573 c 256
 353 573 395 562 441 535 c 257
 466 604 l 257
 416 635 361 648 311 648 c 256
 167 648 47 532 47 317 c 256
 47 106 144 2 278 -11 c 257
 270 -28 260 -49 255 -63 c 257
 262 -66 l 258
 287 -73 300 -83 300 -97 c 256
 300 -109 290 -118 267 -118 c 256
 247 -118 230 -114 216 -109 c 257
 206 -161 l 257
 221 -167 250 -173 282 -173 c 256
 353 -173 375 -133 375 -106 c 256
 375 -67 360 -50 325 -34 c 257
 336 -12 l 257
EndSplineSet
Validated: 9
PickledDataWithLists: "(dp0
Vcom.fontlab.v5.background
p1
(dp2
Vdata
p3
(dp4
Vbytes
p5
(lp6
I255
aI0
aI0
aI254
aI255
aI0
aI0
aI254
aI255
aI0
aI0
aI254
aI255
aI76
aI0
aI255
aI193
aI255
aI0
aI255
aI128
aI255
aI0
aI255
aI30
aI255
aI0
aI255
aI63
aI255
aI0
aI254
aI127
aI255
aI0
aI254
aI127
aI255
aI0
aI254
aI127
aI255
aI0
aI254
aI127
aI255
aI0
aI254
aI127
aI255
aI0
aI254
aI127
aI255
aI0
aI254
aI127
aI255
aI0
aI255
aI63
aI255
aI0
aI255
aI30
aI255
aI0
aI255
aI128
aI255
aI0
aI255
aI193
aI255
aI0
aI255
aI239
aI255
aI0
aI255
aI227
aI255
aI0
aI255
aI251
aI255
aI0
aI255
aI199
aI255
aI0
aI254
aI255
aI0
aI0
aI0
aI0
aI0
aI0
aI0
aI0
aI0
aI0
aI0
aI0
aI0
aI0
aI0
aI0
aI0
aI0
aI0
aI0
aI0
aI0
aI0
aI0
aI0
aI0
aI0
aI0
aI0
aI0
aI0
aI0
aI0
aI0
aI0
aI0
aI0
aI0
aI0
aI0
aI0
aI0
aI0
aI0
aI0
aI0
aI0
aI0
aI0
aI0
aI0
aI0
aI0
aI0
aI0
aI0
aI0
aI0
aI0
aI0
aI0
aI0
aI0
aI0
aI0
aI0
aI0
aI0
aI0
aI0
aI0
aI0
aI0
aI0
aI0
aI0
aI0
aI0
aI0
aI0
aI0
aI0
aI0
aI0
aI0
aI0
aI0
aI0
aI0
aI0
aI0
aI0
aI0
aI0
aI0
aI0
aI0
aI0
aI0
aI0
aI0
aI0
aI0
aI0
aI0
aI0
aI0
aI0
aI0
aI0
aI0
aI0
aI0
aI0
aI0
aI0
aI0
aI0
aI0
aI0
aI0
aI0
aI0
aI0
aI0
aI0
aI0
aI0
aI0
aI0
aI0
aI0
aI0
aI0
aI0
aI0
aI0
aI0
aI0
aI0
aI0
aI0
aI0
aI0
aI0
aI0
aI0
aI0
aI0
aI0
aI0
aI0
aI0
aI0
aI0
aI0
aI0
aI0
aI0
aI0
aI0
asVnum_bytes
p7
I254
ssVlen
p8
I96
sVorigin
p9
(lp10
I-166
aI-208
asVsize_pixels
p11
(lp12
I24
aI24
asVsize_units
p13
(lp14
I833
aI791
ass."
EndChar

StartChar: Chi
Encoding: 33 935 33
GlifName: C_hi
Width: 593
VWidth: 0
Flags: HW
LayerCount: 2
Fore
SplineSet
483 0 m 257
 435 114 372 232 306 338 c 257
 474 634 l 257
 383 634 l 257
 251 391 l 257
 126 634 l 257
 33 634 l 257
 199 334 l 257
 131 226 68 100 23 0 c 257
 115 0 l 257
 156 93 204 200 252 276 c 257
 308 192 359 74 390 0 c 257
 483 0 l 257
EndSplineSet
Validated: 9
PickledDataWithLists: "(dp0
Vcom.fontlab.v5.background
p1
(dp2
Vdata
p3
(dp4
Vbytes
p5
(lp6
I255
aI0
aI0
aI254
aI255
aI0
aI0
aI254
aI255
aI0
aI0
aI254
aI255
aI60
aI0
aI252
aI254
aI127
aI0
aI254
aI124
aI255
aI0
aI254
aI56
aI255
aI0
aI255
aI57
aI255
aI0
aI255
aI147
aI255
aI0
aI255
aI147
aI255
aI0
aI255
aI199
aI255
aI0
aI255
aI199
aI255
aI0
aI255
aI199
aI255
aI0
aI255
aI147
aI255
aI0
aI255
aI147
aI255
aI0
aI255
aI57
aI255
aI0
aI254
aI56
aI255
aI0
aI254
aI124
aI255
aI0
aI252
aI254
aI127
aI0
aI254
aI255
aI0
aI0
aI254
aI255
aI0
aI0
aI254
aI255
aI0
aI0
aI254
aI255
aI0
aI0
aI254
aI255
aI0
aI0
aI0
aI0
aI0
aI0
aI0
aI0
aI0
aI0
aI0
aI0
aI0
aI0
aI0
aI0
aI0
aI0
aI0
aI0
aI0
aI0
aI0
aI0
aI0
aI0
aI0
aI0
aI0
aI0
aI0
aI0
aI0
aI0
aI0
aI0
aI0
aI0
aI0
aI0
aI0
aI0
aI0
aI0
aI0
aI0
aI0
aI0
aI0
aI0
aI0
aI0
aI0
aI0
aI0
aI0
aI0
aI0
aI0
aI0
aI0
aI0
aI0
aI0
aI0
aI0
aI0
aI0
aI0
aI0
aI0
aI0
aI0
aI0
aI0
aI0
aI0
aI0
aI0
aI0
aI0
aI0
aI0
aI0
aI0
aI0
aI0
aI0
aI0
aI0
aI0
aI0
aI0
aI0
aI0
aI0
aI0
aI0
aI0
aI0
aI0
aI0
aI0
aI0
aI0
aI0
aI0
aI0
aI0
aI0
aI0
aI0
aI0
aI0
aI0
aI0
aI0
aI0
aI0
aI0
aI0
aI0
aI0
aI0
aI0
aI0
aI0
aI0
aI0
aI0
aI0
aI0
aI0
aI0
aI0
aI0
aI0
aI0
aI0
aI0
aI0
aI0
aI0
aI0
aI0
aI0
aI0
aI0
aI0
aI0
aI0
aI0
aI0
aI0
aI0
aI0
aI0
aI0
aI0
aI0
aI0
asVnum_bytes
p7
I254
ssVlen
p8
I96
sVorigin
p9
(lp10
I-166
aI-208
asVsize_pixels
p11
(lp12
I24
aI24
asVsize_units
p13
(lp14
I833
aI791
ass."
EndChar

StartChar: D
Encoding: 34 68 34
GlifName: D_
Width: 593
VWidth: 0
Flags: HW
LayerCount: 2
Fore
SplineSet
471 317 m 256
 471 550 347 640 183 640 c 256
 141 640 98 635 55 625 c 257
 55 10 l 257
 98 0 141 -5 183 -5 c 256
 347 -5 471 83 471 317 c 256
139 71 m 257
 139 564 l 257
 152 566 171 567 188 567 c 256
 317 567 385 488 385 317 c 256
 385 139 313 68 191 68 c 256
 175 68 156 69 139 71 c 257
EndSplineSet
Validated: 9
PickledDataWithLists: "(dp0
Vcom.fontlab.v5.background
p1
(dp2
Vdata
p3
(dp4
Vbytes
p5
(lp6
I255
aI0
aI0
aI254
aI255
aI0
aI0
aI254
aI255
aI0
aI0
aI254
aI255
aI60
aI0
aI254
aI15
aI255
aI0
aI254
aI3
aI255
aI0
aI254
aI113
aI255
aI0
aI254
aI121
aI255
aI0
aI254
aI124
aI255
aI0
aI254
aI124
aI255
aI0
aI254
aI124
aI255
aI0
aI254
aI124
aI255
aI0
aI254
aI124
aI255
aI0
aI254
aI124
aI255
aI0
aI254
aI124
aI255
aI0
aI254
aI121
aI255
aI0
aI254
aI113
aI255
aI0
aI254
aI3
aI255
aI0
aI254
aI15
aI255
aI0
aI254
aI255
aI0
aI0
aI254
aI255
aI0
aI0
aI254
aI255
aI0
aI0
aI254
aI255
aI0
aI0
aI254
aI255
aI0
aI0
aI0
aI0
aI0
aI0
aI0
aI0
aI0
aI0
aI0
aI0
aI0
aI0
aI0
aI0
aI0
aI0
aI0
aI0
aI0
aI0
aI0
aI0
aI0
aI0
aI0
aI0
aI0
aI0
aI0
aI0
aI0
aI0
aI0
aI0
aI0
aI0
aI0
aI0
aI0
aI0
aI0
aI0
aI0
aI0
aI0
aI0
aI0
aI0
aI0
aI0
aI0
aI0
aI0
aI0
aI0
aI0
aI0
aI0
aI0
aI0
aI0
aI0
aI0
aI0
aI0
aI0
aI0
aI0
aI0
aI0
aI0
aI0
aI0
aI0
aI0
aI0
aI0
aI0
aI0
aI0
aI0
aI0
aI0
aI0
aI0
aI0
aI0
aI0
aI0
aI0
aI0
aI0
aI0
aI0
aI0
aI0
aI0
aI0
aI0
aI0
aI0
aI0
aI0
aI0
aI0
aI0
aI0
aI0
aI0
aI0
aI0
aI0
aI0
aI0
aI0
aI0
aI0
aI0
aI0
aI0
aI0
aI0
aI0
aI0
aI0
aI0
aI0
aI0
aI0
aI0
aI0
aI0
aI0
aI0
aI0
aI0
aI0
aI0
aI0
aI0
aI0
aI0
aI0
aI0
aI0
aI0
aI0
aI0
aI0
aI0
aI0
aI0
aI0
aI0
aI0
aI0
aI0
aI0
aI0
asVnum_bytes
p7
I254
ssVlen
p8
I96
sVorigin
p9
(lp10
I-212
aI-209
asVsize_pixels
p11
(lp12
I24
aI24
asVsize_units
p13
(lp14
I787
aI790
ass."
EndChar

StartChar: Delta
Encoding: 37 8710 37
GlifName: D_elta
Width: 593
VWidth: 0
Flags: HW
LayerCount: 2
Fore
SplineSet
503 0 m 257
 458 179 383 448 310 634 c 257
 206 634 l 257
 124 421 72 244 9 0 c 257
 503 0 l 257
255 560 m 257
 284 486 346 290 396 72 c 257
 113 72 l 257
 161 290 227 486 255 560 c 257
EndSplineSet
Validated: 9
EndChar

StartChar: E
Encoding: 38 69 38
GlifName: E_
Width: 593
VWidth: 0
Flags: HW
LayerCount: 2
Fore
SplineSet
471 0 m 257
 471 72 l 257
 177 72 l 257
 177 296 l 257
 415 296 l 257
 415 368 l 257
 177 368 l 257
 177 562 l 257
 449 562 l 257
 449 634 l 257
 93 634 l 257
 93 0 l 257
 471 0 l 257
EndSplineSet
Validated: 9
PickledDataWithLists: "(dp0
Vcom.fontlab.v5.background
p1
(dp2
Vdata
p3
(dp4
Vbytes
p5
(lp6
I255
aI0
aI0
aI254
aI255
aI0
aI0
aI254
aI255
aI0
aI0
aI254
aI255
aI60
aI0
aI254
aI0
aI255
aI0
aI254
aI0
aI255
aI0
aI254
aI127
aI255
aI0
aI254
aI127
aI255
aI0
aI254
aI127
aI255
aI0
aI254
aI127
aI255
aI0
aI254
aI0
aI255
aI0
aI254
aI0
aI255
aI0
aI254
aI127
aI255
aI0
aI254
aI127
aI255
aI0
aI254
aI127
aI255
aI0
aI254
aI127
aI255
aI0
aI254
aI127
aI255
aI0
aI254
aI0
aI255
aI0
aI254
aI0
aI255
aI0
aI254
aI255
aI0
aI0
aI254
aI255
aI0
aI0
aI254
aI255
aI0
aI0
aI254
aI255
aI0
aI0
aI254
aI255
aI0
aI0
aI0
aI0
aI0
aI0
aI0
aI0
aI0
aI0
aI0
aI0
aI0
aI0
aI0
aI0
aI0
aI0
aI0
aI0
aI0
aI0
aI0
aI0
aI0
aI0
aI0
aI0
aI0
aI0
aI0
aI0
aI0
aI0
aI0
aI0
aI0
aI0
aI0
aI0
aI0
aI0
aI0
aI0
aI0
aI0
aI0
aI0
aI0
aI0
aI0
aI0
aI0
aI0
aI0
aI0
aI0
aI0
aI0
aI0
aI0
aI0
aI0
aI0
aI0
aI0
aI0
aI0
aI0
aI0
aI0
aI0
aI0
aI0
aI0
aI0
aI0
aI0
aI0
aI0
aI0
aI0
aI0
aI0
aI0
aI0
aI0
aI0
aI0
aI0
aI0
aI0
aI0
aI0
aI0
aI0
aI0
aI0
aI0
aI0
aI0
aI0
aI0
aI0
aI0
aI0
aI0
aI0
aI0
aI0
aI0
aI0
aI0
aI0
aI0
aI0
aI0
aI0
aI0
aI0
aI0
aI0
aI0
aI0
aI0
aI0
aI0
aI0
aI0
aI0
aI0
aI0
aI0
aI0
aI0
aI0
aI0
aI0
aI0
aI0
aI0
aI0
aI0
aI0
aI0
aI0
aI0
aI0
aI0
aI0
aI0
aI0
aI0
aI0
aI0
aI0
aI0
aI0
aI0
aI0
aI0
asVnum_bytes
p7
I254
ssVlen
p8
I96
sVorigin
p9
(lp10
I-136
aI-189
asVsize_pixels
p11
(lp12
I24
aI24
asVsize_units
p13
(lp14
I863
aI810
ass."
EndChar

StartChar: Eng
Encoding: 49 330 49
GlifName: E_ng
Width: 593
VWidth: 0
Flags: HW
LayerCount: 2
Fore
SplineSet
379 -15 m 257
 379 -70 367 -101 322 -101 c 256
 313 -101 293 -100 283 -97 c 257
 274 -164 l 257
 287 -167 314 -171 331 -171 c 256
 442 -171 456 -101 456 0 c 258
 456 634 l 257
 379 634 l 257
 379 173 l 257
 325 301 218 500 142 634 c 257
 56 634 l 257
 56 0 l 257
 133 0 l 257
 133 506 l 257
 221 346 326 142 379 22 c 257
 379 -15 l 257
EndSplineSet
Validated: 9
PickledDataWithLists: "(dp0
Vcom.fontlab.v5.background
p1
(dp2
Vdata
p3
(dp4
Vbytes
p5
(lp6
I255
aI0
aI0
aI254
aI255
aI0
aI0
aI254
aI255
aI0
aI0
aI254
aI255
aI76
aI0
aI254
aI60
aI255
aI0
aI254
aI60
aI255
aI0
aI254
aI28
aI255
aI0
aI254
aI28
aI255
aI0
aI254
aI92
aI255
aI0
aI254
aI76
aI255
aI0
aI254
aI76
aI255
aI0
aI254
aI100
aI255
aI0
aI254
aI100
aI255
aI0
aI254
aI100
aI255
aI0
aI254
aI112
aI255
aI0
aI254
aI112
aI255
aI0
aI254
aI120
aI255
aI0
aI254
aI120
aI255
aI0
aI254
aI120
aI255
aI0
aI255
aI252
aI255
aI0
aI255
aI220
aI255
aI0
aI255
aI192
aI255
aI0
aI255
aI225
aI255
aI0
aI254
aI255
aI0
aI0
aI0
aI0
aI0
aI0
aI0
aI0
aI0
aI0
aI0
aI0
aI0
aI0
aI0
aI0
aI0
aI0
aI0
aI0
aI0
aI0
aI0
aI0
aI0
aI0
aI0
aI0
aI0
aI0
aI0
aI0
aI0
aI0
aI0
aI0
aI0
aI0
aI0
aI0
aI0
aI0
aI0
aI0
aI0
aI0
aI0
aI0
aI0
aI0
aI0
aI0
aI0
aI0
aI0
aI0
aI0
aI0
aI0
aI0
aI0
aI0
aI0
aI0
aI0
aI0
aI0
aI0
aI0
aI0
aI0
aI0
aI0
aI0
aI0
aI0
aI0
aI0
aI0
aI0
aI0
aI0
aI0
aI0
aI0
aI0
aI0
aI0
aI0
aI0
aI0
aI0
aI0
aI0
aI0
aI0
aI0
aI0
aI0
aI0
aI0
aI0
aI0
aI0
aI0
aI0
aI0
aI0
aI0
aI0
aI0
aI0
aI0
aI0
aI0
aI0
aI0
aI0
aI0
aI0
aI0
aI0
aI0
aI0
aI0
aI0
aI0
aI0
aI0
aI0
aI0
aI0
aI0
aI0
aI0
aI0
aI0
aI0
aI0
aI0
aI0
aI0
aI0
aI0
aI0
aI0
aI0
aI0
aI0
aI0
aI0
aI0
aI0
aI0
aI0
aI0
aI0
aI0
aI0
aI0
aI0
asVnum_bytes
p7
I254
ssVlen
p8
I96
sVorigin
p9
(lp10
I-166
aI-208
asVsize_pixels
p11
(lp12
I24
aI24
asVsize_units
p13
(lp14
I833
aI791
ass."
EndChar

StartChar: Eogonek
Encoding: 50 280 50
GlifName: E_ogonek
Width: 593
VWidth: 0
Flags: HW
LayerCount: 2
Fore
SplineSet
471 72 m 257
 177 72 l 257
 177 296 l 257
 415 296 l 257
 415 368 l 257
 177 368 l 257
 177 562 l 257
 449 562 l 257
 449 634 l 257
 93 634 l 257
 93 0 l 257
 383 0 l 257
 376 -5 365 -17 355 -27 c 256
 333 -49 317 -74 317 -103 c 256
 317 -146 346 -171 415 -171 c 256
 440 -171 461 -167 474 -161 c 257
 468 -105 l 257
 455 -109 439 -112 431 -112 c 256
 405 -112 394 -102 394 -85 c 256
 394 -68 405 -55 422 -36 c 256
 436 -22 453 -8 471 2 c 257
 471 72 l 257
EndSplineSet
Validated: 9
PickledDataWithLists: "(dp0
Vcom.fontlab.v5.background
p1
(dp2
Vdata
p3
(dp4
Vbytes
p5
(lp6
I255
aI0
aI0
aI254
aI255
aI0
aI0
aI254
aI255
aI0
aI0
aI254
aI255
aI76
aI0
aI254
aI0
aI255
aI0
aI254
aI0
aI255
aI0
aI254
aI127
aI255
aI0
aI254
aI127
aI255
aI0
aI254
aI127
aI255
aI0
aI254
aI127
aI255
aI0
aI254
aI0
aI255
aI0
aI254
aI0
aI255
aI0
aI254
aI127
aI255
aI0
aI254
aI127
aI255
aI0
aI254
aI127
aI255
aI0
aI254
aI127
aI255
aI0
aI254
aI127
aI255
aI0
aI254
aI0
aI255
aI0
aI254
aI0
aI255
aI0
aI255
aI239
aI255
aI0
aI255
aI223
aI255
aI0
aI255
aI223
aI255
aI0
aI255
aI227
aI255
aI0
aI254
aI255
aI0
aI0
aI0
aI0
aI0
aI0
aI0
aI0
aI0
aI0
aI0
aI0
aI0
aI0
aI0
aI0
aI0
aI0
aI0
aI0
aI0
aI0
aI0
aI0
aI0
aI0
aI0
aI0
aI0
aI0
aI0
aI0
aI0
aI0
aI0
aI0
aI0
aI0
aI0
aI0
aI0
aI0
aI0
aI0
aI0
aI0
aI0
aI0
aI0
aI0
aI0
aI0
aI0
aI0
aI0
aI0
aI0
aI0
aI0
aI0
aI0
aI0
aI0
aI0
aI0
aI0
aI0
aI0
aI0
aI0
aI0
aI0
aI0
aI0
aI0
aI0
aI0
aI0
aI0
aI0
aI0
aI0
aI0
aI0
aI0
aI0
aI0
aI0
aI0
aI0
aI0
aI0
aI0
aI0
aI0
aI0
aI0
aI0
aI0
aI0
aI0
aI0
aI0
aI0
aI0
aI0
aI0
aI0
aI0
aI0
aI0
aI0
aI0
aI0
aI0
aI0
aI0
aI0
aI0
aI0
aI0
aI0
aI0
aI0
aI0
aI0
aI0
aI0
aI0
aI0
aI0
aI0
aI0
aI0
aI0
aI0
aI0
aI0
aI0
aI0
aI0
aI0
aI0
aI0
aI0
aI0
aI0
aI0
aI0
aI0
aI0
aI0
aI0
aI0
aI0
aI0
aI0
aI0
aI0
aI0
aI0
asVnum_bytes
p7
I254
ssVlen
p8
I96
sVorigin
p9
(lp10
I-166
aI-208
asVsize_pixels
p11
(lp12
I24
aI24
asVsize_units
p13
(lp14
I833
aI791
ass."
EndChar

StartChar: Eth
Encoding: 55 208 55
GlifName: E_th
Width: 593
VWidth: 0
Flags: HW
LayerCount: 2
Fore
SplineSet
471 317 m 256
 471 550 354 640 198 640 c 256
 157 640 115 635 73 625 c 257
 73 364 l 257
 18 364 l 257
 18 298 l 257
 73 298 l 257
 73 10 l 257
 115 0 157 -5 198 -5 c 256
 354 -5 471 83 471 317 c 256
158 71 m 257
 158 298 l 257
 258 298 l 257
 258 364 l 257
 158 364 l 257
 158 564 l 257
 170 566 187 567 202 567 c 256
 322 567 385 488 385 317 c 256
 385 139 320 68 205 68 c 256
 191 68 173 69 158 71 c 257
EndSplineSet
Validated: 9
PickledDataWithLists: "(dp0
Vcom.fontlab.v5.background
p1
(dp2
Vdata
p3
(dp4
Vbytes
p5
(lp6
I255
aI0
aI0
aI254
aI255
aI0
aI0
aI254
aI255
aI0
aI0
aI254
aI255
aI60
aI0
aI255
aI7
aI255
aI0
aI255
aI1
aI255
aI0
aI255
aI56
aI255
aI0
aI255
aI60
aI255
aI0
aI255
aI62
aI127
aI0
aI255
aI62
aI127
aI0
aI252
aI14
aI127
aI0
aI252
aI14
aI127
aI0
aI255
aI62
aI127
aI0
aI255
aI62
aI127
aI0
aI255
aI62
aI127
aI0
aI255
aI60
aI255
aI0
aI255
aI56
aI255
aI0
aI255
aI1
aI255
aI0
aI255
aI7
aI255
aI0
aI254
aI255
aI0
aI0
aI254
aI255
aI0
aI0
aI254
aI255
aI0
aI0
aI254
aI255
aI0
aI0
aI254
aI255
aI0
aI0
aI0
aI0
aI0
aI0
aI0
aI0
aI0
aI0
aI0
aI0
aI0
aI0
aI0
aI0
aI0
aI0
aI0
aI0
aI0
aI0
aI0
aI0
aI0
aI0
aI0
aI0
aI0
aI0
aI0
aI0
aI0
aI0
aI0
aI0
aI0
aI0
aI0
aI0
aI0
aI0
aI0
aI0
aI0
aI0
aI0
aI0
aI0
aI0
aI0
aI0
aI0
aI0
aI0
aI0
aI0
aI0
aI0
aI0
aI0
aI0
aI0
aI0
aI0
aI0
aI0
aI0
aI0
aI0
aI0
aI0
aI0
aI0
aI0
aI0
aI0
aI0
aI0
aI0
aI0
aI0
aI0
aI0
aI0
aI0
aI0
aI0
aI0
aI0
aI0
aI0
aI0
aI0
aI0
aI0
aI0
aI0
aI0
aI0
aI0
aI0
aI0
aI0
aI0
aI0
aI0
aI0
aI0
aI0
aI0
aI0
aI0
aI0
aI0
aI0
aI0
aI0
aI0
aI0
aI0
aI0
aI0
aI0
aI0
aI0
aI0
aI0
aI0
aI0
aI0
aI0
aI0
aI0
aI0
aI0
aI0
aI0
aI0
aI0
aI0
aI0
aI0
aI0
aI0
aI0
aI0
aI0
aI0
aI0
aI0
aI0
aI0
aI0
aI0
aI0
aI0
aI0
aI0
aI0
aI0
asVnum_bytes
p7
I254
ssVlen
p8
I96
sVorigin
p9
(lp10
I-166
aI-208
asVsize_pixels
p11
(lp12
I24
aI24
asVsize_units
p13
(lp14
I833
aI791
ass."
EndChar

StartChar: Euro
Encoding: 56 8364 56
GlifName: E_uro
Width: 593
VWidth: 0
Flags: HW
LayerCount: 2
Back
SplineSet
342.015625 113.6640625 m 257
 453.631835938 717.82421875 l 1281
EndSplineSet
Fore
SplineSet
37 431 m 257
 37 366 l 257
 99 366 l 257
 98 351 98 334 98 317 c 256
 98 302 98 286 99 273 c 257
 37 273 l 257
 37 208 l 257
 106 208 l 257
 125 70 197 -12 339 -12 c 256
 401 -12 458 4 478 14 c 257
 460 87 l 257
 431 73 395 62 344 62 c 256
 262 62 212 98 195 208 c 257
 358 208 l 257
 371 273 l 257
 187 273 l 257
 186 286 186 302 186 317 c 256
 186 334 186 351 187 366 c 257
 388 366 l 257
 400 431 l 257
 197 431 l 257
 210 517 250 572 342 572 c 256
 379 572 414 565 443 554 c 257
 460 626 l 257
 427 638 396 645 342 645 c 256
 213 645 134 574 109 431 c 257
 37 431 l 257
EndSplineSet
Validated: 9
PickledDataWithLists: "(dp0
Vcom.fontlab.v5.background
p1
(dp2
Vdata
p3
(dp4
Vbytes
p5
(lp6
I255
aI0
aI0
aI254
aI255
aI0
aI0
aI254
aI255
aI0
aI0
aI254
aI255
aI60
aI0
aI255
aI224
aI255
aI0
aI255
aI128
aI127
aI0
aI255
aI158
aI255
aI0
aI255
aI63
aI255
aI0
aI254
aI0
aI127
aI0
aI254
aI0
aI255
aI0
aI255
aI63
aI255
aI0
aI255
aI63
aI255
aI0
aI254
aI0
aI255
aI0
aI254
aI0
aI255
aI0
aI255
aI63
aI255
aI0
aI255
aI31
aI255
aI0
aI255
aI158
aI255
aI0
aI255
aI192
aI127
aI0
aI255
aI225
aI255
aI0
aI254
aI255
aI0
aI0
aI254
aI255
aI0
aI0
aI254
aI255
aI0
aI0
aI254
aI255
aI0
aI0
aI254
aI255
aI0
aI0
aI0
aI0
aI0
aI0
aI0
aI0
aI0
aI0
aI0
aI0
aI0
aI0
aI0
aI0
aI0
aI0
aI0
aI0
aI0
aI0
aI0
aI0
aI0
aI0
aI0
aI0
aI0
aI0
aI0
aI0
aI0
aI0
aI0
aI0
aI0
aI0
aI0
aI0
aI0
aI0
aI0
aI0
aI0
aI0
aI0
aI0
aI0
aI0
aI0
aI0
aI0
aI0
aI0
aI0
aI0
aI0
aI0
aI0
aI0
aI0
aI0
aI0
aI0
aI0
aI0
aI0
aI0
aI0
aI0
aI0
aI0
aI0
aI0
aI0
aI0
aI0
aI0
aI0
aI0
aI0
aI0
aI0
aI0
aI0
aI0
aI0
aI0
aI0
aI0
aI0
aI0
aI0
aI0
aI0
aI0
aI0
aI0
aI0
aI0
aI0
aI0
aI0
aI0
aI0
aI0
aI0
aI0
aI0
aI0
aI0
aI0
aI0
aI0
aI0
aI0
aI0
aI0
aI0
aI0
aI0
aI0
aI0
aI0
aI0
aI0
aI0
aI0
aI0
aI0
aI0
aI0
aI0
aI0
aI0
aI0
aI0
aI0
aI0
aI0
aI0
aI0
aI0
aI0
aI0
aI0
aI0
aI0
aI0
aI0
aI0
aI0
aI0
aI0
aI0
aI0
aI0
aI0
aI0
aI0
asVnum_bytes
p7
I254
ssVlen
p8
I96
sVorigin
p9
(lp10
I-164
aI-208
asVsize_pixels
p11
(lp12
I24
aI24
asVsize_units
p13
(lp14
I835
aI791
ass."
EndChar

StartChar: F
Encoding: 58 70 58
GlifName: F_
Width: 593
VWidth: 0
Flags: HW
LayerCount: 2
Fore
SplineSet
177 0 m 257
 177 294 l 257
 420 294 l 257
 420 365 l 257
 177 365 l 257
 177 562 l 257
 453 562 l 257
 453 634 l 257
 93 634 l 257
 93 0 l 257
 177 0 l 257
EndSplineSet
Validated: 9
PickledDataWithLists: "(dp0
Vcom.fontlab.v5.background
p1
(dp2
Vdata
p3
(dp4
Vbytes
p5
(lp6
I255
aI0
aI0
aI254
aI255
aI0
aI0
aI254
aI255
aI0
aI0
aI254
aI255
aI60
aI0
aI254
aI0
aI255
aI0
aI254
aI0
aI255
aI0
aI254
aI127
aI255
aI0
aI254
aI127
aI255
aI0
aI254
aI127
aI255
aI0
aI254
aI127
aI255
aI0
aI254
aI1
aI255
aI0
aI254
aI1
aI255
aI0
aI254
aI127
aI255
aI0
aI254
aI127
aI255
aI0
aI254
aI127
aI255
aI0
aI254
aI127
aI255
aI0
aI254
aI127
aI255
aI0
aI254
aI127
aI255
aI0
aI254
aI127
aI255
aI0
aI254
aI255
aI0
aI0
aI254
aI255
aI0
aI0
aI254
aI255
aI0
aI0
aI254
aI255
aI0
aI0
aI254
aI255
aI0
aI0
aI0
aI0
aI0
aI0
aI0
aI0
aI0
aI0
aI0
aI0
aI0
aI0
aI0
aI0
aI0
aI0
aI0
aI0
aI0
aI0
aI0
aI0
aI0
aI0
aI0
aI0
aI0
aI0
aI0
aI0
aI0
aI0
aI0
aI0
aI0
aI0
aI0
aI0
aI0
aI0
aI0
aI0
aI0
aI0
aI0
aI0
aI0
aI0
aI0
aI0
aI0
aI0
aI0
aI0
aI0
aI0
aI0
aI0
aI0
aI0
aI0
aI0
aI0
aI0
aI0
aI0
aI0
aI0
aI0
aI0
aI0
aI0
aI0
aI0
aI0
aI0
aI0
aI0
aI0
aI0
aI0
aI0
aI0
aI0
aI0
aI0
aI0
aI0
aI0
aI0
aI0
aI0
aI0
aI0
aI0
aI0
aI0
aI0
aI0
aI0
aI0
aI0
aI0
aI0
aI0
aI0
aI0
aI0
aI0
aI0
aI0
aI0
aI0
aI0
aI0
aI0
aI0
aI0
aI0
aI0
aI0
aI0
aI0
aI0
aI0
aI0
aI0
aI0
aI0
aI0
aI0
aI0
aI0
aI0
aI0
aI0
aI0
aI0
aI0
aI0
aI0
aI0
aI0
aI0
aI0
aI0
aI0
aI0
aI0
aI0
aI0
aI0
aI0
aI0
aI0
aI0
aI0
aI0
aI0
asVnum_bytes
p7
I254
ssVlen
p8
I96
sVorigin
p9
(lp10
I-147
aI-209
asVsize_pixels
p11
(lp12
I24
aI24
asVsize_units
p13
(lp14
I852
aI790
ass."
EndChar

StartChar: G
Encoding: 59 71 59
GlifName: G_
Width: 593
VWidth: 0
Flags: HW
LayerCount: 2
Fore
SplineSet
382 73 m 257
 372 68 351 60 311 60 c 256
 195 60 133 165 133 317 c 256
 133 474 208 575 312 575 c 256
 360 575 404 559 436 534 c 257
 464 604 l 257
 448 616 400 648 307 648 c 256
 164 648 47 529 47 317 c 256
 47 106 149 -13 302 -13 c 256
 379 -13 440 6 466 15 c 257
 466 312 l 257
 382 312 l 257
 382 73 l 257
EndSplineSet
Validated: 9
PickledDataWithLists: "(dp0
Vcom.fontlab.v5.background
p1
(dp2
Vdata
p3
(dp4
Vbytes
p5
(lp6
I255
aI0
aI0
aI254
aI255
aI0
aI0
aI254
aI255
aI0
aI0
aI254
aI255
aI60
aI0
aI255
aI193
aI255
aI0
aI255
aI128
aI255
aI0
aI255
aI30
aI255
aI0
aI255
aI63
aI255
aI0
aI254
aI127
aI255
aI0
aI254
aI127
aI255
aI0
aI254
aI127
aI255
aI0
aI254
aI127
aI255
aI0
aI254
aI112
aI255
aI0
aI254
aI112
aI255
aI0
aI254
aI124
aI255
aI0
aI255
aI60
aI255
aI0
aI255
aI28
aI255
aI0
aI255
aI128
aI255
aI0
aI255
aI193
aI255
aI0
aI254
aI255
aI0
aI0
aI254
aI255
aI0
aI0
aI254
aI255
aI0
aI0
aI254
aI255
aI0
aI0
aI254
aI255
aI0
aI0
aI0
aI0
aI0
aI0
aI0
aI0
aI0
aI0
aI0
aI0
aI0
aI0
aI0
aI0
aI0
aI0
aI0
aI0
aI0
aI0
aI0
aI0
aI0
aI0
aI0
aI0
aI0
aI0
aI0
aI0
aI0
aI0
aI0
aI0
aI0
aI0
aI0
aI0
aI0
aI0
aI0
aI0
aI0
aI0
aI0
aI0
aI0
aI0
aI0
aI0
aI0
aI0
aI0
aI0
aI0
aI0
aI0
aI0
aI0
aI0
aI0
aI0
aI0
aI0
aI0
aI0
aI0
aI0
aI0
aI0
aI0
aI0
aI0
aI0
aI0
aI0
aI0
aI0
aI0
aI0
aI0
aI0
aI0
aI0
aI0
aI0
aI0
aI0
aI0
aI0
aI0
aI0
aI0
aI0
aI0
aI0
aI0
aI0
aI0
aI0
aI0
aI0
aI0
aI0
aI0
aI0
aI0
aI0
aI0
aI0
aI0
aI0
aI0
aI0
aI0
aI0
aI0
aI0
aI0
aI0
aI0
aI0
aI0
aI0
aI0
aI0
aI0
aI0
aI0
aI0
aI0
aI0
aI0
aI0
aI0
aI0
aI0
aI0
aI0
aI0
aI0
aI0
aI0
aI0
aI0
aI0
aI0
aI0
aI0
aI0
aI0
aI0
aI0
aI0
aI0
aI0
aI0
aI0
aI0
asVnum_bytes
p7
I254
ssVlen
p8
I96
sVorigin
p9
(lp10
I-192
aI-209
asVsize_pixels
p11
(lp12
I24
aI24
asVsize_units
p13
(lp14
I807
aI790
ass."
EndChar

StartChar: H
Encoding: 70 72 70
GlifName: H_
Width: 593
VWidth: 0
Flags: HW
LayerCount: 2
Fore
SplineSet
382 367 m 257
 130 367 l 257
 130 634 l 257
 46 634 l 257
 46 0 l 257
 130 0 l 257
 130 295 l 257
 382 295 l 257
 382 0 l 257
 466 0 l 257
 466 634 l 257
 382 634 l 257
 382 367 l 257
EndSplineSet
Validated: 9
PickledDataWithLists: "(dp0
Vcom.fontlab.v5.background
p1
(dp2
Vdata
p3
(dp4
Vbytes
p5
(lp6
I255
aI0
aI0
aI254
aI255
aI0
aI0
aI254
aI255
aI0
aI0
aI254
aI255
aI60
aI0
aI254
aI0
aI255
aI0
aI254
aI0
aI255
aI0
aI254
aI127
aI255
aI0
aI254
aI127
aI255
aI0
aI254
aI127
aI255
aI0
aI254
aI127
aI255
aI0
aI254
aI0
aI255
aI0
aI254
aI0
aI255
aI0
aI254
aI127
aI255
aI0
aI254
aI127
aI255
aI0
aI254
aI127
aI255
aI0
aI254
aI127
aI255
aI0
aI254
aI127
aI255
aI0
aI254
aI0
aI255
aI0
aI254
aI0
aI255
aI0
aI254
aI255
aI0
aI0
aI254
aI255
aI0
aI0
aI254
aI255
aI0
aI0
aI254
aI255
aI0
aI0
aI254
aI255
aI0
aI0
aI0
aI0
aI0
aI0
aI0
aI0
aI0
aI0
aI0
aI0
aI0
aI0
aI0
aI0
aI0
aI0
aI0
aI0
aI0
aI0
aI0
aI0
aI0
aI0
aI0
aI0
aI0
aI0
aI0
aI0
aI0
aI0
aI0
aI0
aI0
aI0
aI0
aI0
aI0
aI0
aI0
aI0
aI0
aI0
aI0
aI0
aI0
aI0
aI0
aI0
aI0
aI0
aI0
aI0
aI0
aI0
aI0
aI0
aI0
aI0
aI0
aI0
aI0
aI0
aI0
aI0
aI0
aI0
aI0
aI0
aI0
aI0
aI0
aI0
aI0
aI0
aI0
aI0
aI0
aI0
aI0
aI0
aI0
aI0
aI0
aI0
aI0
aI0
aI0
aI0
aI0
aI0
aI0
aI0
aI0
aI0
aI0
aI0
aI0
aI0
aI0
aI0
aI0
aI0
aI0
aI0
aI0
aI0
aI0
aI0
aI0
aI0
aI0
aI0
aI0
aI0
aI0
aI0
aI0
aI0
aI0
aI0
aI0
aI0
aI0
aI0
aI0
aI0
aI0
aI0
aI0
aI0
aI0
aI0
aI0
aI0
aI0
aI0
aI0
aI0
aI0
aI0
aI0
aI0
aI0
aI0
aI0
aI0
aI0
aI0
aI0
aI0
aI0
aI0
aI0
aI0
aI0
aI0
aI0
asVnum_bytes
p7
I254
ssVlen
p8
I96
sVorigin
p9
(lp10
I-213
aI-189
asVsize_pixels
p11
(lp12
I24
aI24
asVsize_units
p13
(lp14
I786
aI810
ass."
EndChar

StartChar: Hbar
Encoding: 71 294 71
GlifName: H_bar
Width: 593
VWidth: 0
Flags: HW
LayerCount: 2
Fore
SplineSet
494 479 m 257
 494 542 l 257
 439 542 l 257
 439 634 l 257
 354 634 l 257
 354 542 l 257
 158 542 l 257
 158 634 l 257
 73 634 l 257
 73 542 l 257
 18 542 l 257
 18 479 l 257
 73 479 l 257
 73 0 l 257
 158 0 l 257
 158 295 l 257
 354 295 l 257
 354 0 l 257
 439 0 l 257
 439 479 l 257
 494 479 l 257
354 367 m 257
 158 367 l 257
 158 479 l 257
 354 479 l 257
 354 367 l 257
EndSplineSet
Validated: 9
PickledDataWithLists: "(dp0
Vcom.fontlab.v5.background
p1
(dp2
Vdata
p3
(dp4
Vbytes
p5
(lp6
I255
aI0
aI0
aI254
aI255
aI0
aI0
aI254
aI255
aI0
aI0
aI254
aI255
aI60
aI0
aI254
aI124
aI255
aI0
aI254
aI124
aI255
aI0
aI248
aI0
aI63
aI0
aI248
aI0
aI63
aI0
aI254
aI124
aI255
aI0
aI254
aI124
aI255
aI0
aI254
aI0
aI255
aI0
aI254
aI0
aI255
aI0
aI254
aI124
aI255
aI0
aI254
aI124
aI255
aI0
aI254
aI124
aI255
aI0
aI254
aI124
aI255
aI0
aI254
aI124
aI255
aI0
aI254
aI124
aI255
aI0
aI254
aI124
aI255
aI0
aI254
aI255
aI0
aI0
aI254
aI255
aI0
aI0
aI254
aI255
aI0
aI0
aI254
aI255
aI0
aI0
aI254
aI255
aI0
aI0
aI0
aI0
aI0
aI0
aI0
aI0
aI0
aI0
aI0
aI0
aI0
aI0
aI0
aI0
aI0
aI0
aI0
aI0
aI0
aI0
aI0
aI0
aI0
aI0
aI0
aI0
aI0
aI0
aI0
aI0
aI0
aI0
aI0
aI0
aI0
aI0
aI0
aI0
aI0
aI0
aI0
aI0
aI0
aI0
aI0
aI0
aI0
aI0
aI0
aI0
aI0
aI0
aI0
aI0
aI0
aI0
aI0
aI0
aI0
aI0
aI0
aI0
aI0
aI0
aI0
aI0
aI0
aI0
aI0
aI0
aI0
aI0
aI0
aI0
aI0
aI0
aI0
aI0
aI0
aI0
aI0
aI0
aI0
aI0
aI0
aI0
aI0
aI0
aI0
aI0
aI0
aI0
aI0
aI0
aI0
aI0
aI0
aI0
aI0
aI0
aI0
aI0
aI0
aI0
aI0
aI0
aI0
aI0
aI0
aI0
aI0
aI0
aI0
aI0
aI0
aI0
aI0
aI0
aI0
aI0
aI0
aI0
aI0
aI0
aI0
aI0
aI0
aI0
aI0
aI0
aI0
aI0
aI0
aI0
aI0
aI0
aI0
aI0
aI0
aI0
aI0
aI0
aI0
aI0
aI0
aI0
aI0
aI0
aI0
aI0
aI0
aI0
aI0
aI0
aI0
aI0
aI0
aI0
aI0
asVnum_bytes
p7
I254
ssVlen
p8
I96
sVorigin
p9
(lp10
I-166
aI-208
asVsize_pixels
p11
(lp12
I24
aI24
asVsize_units
p13
(lp14
I833
aI791
ass."
EndChar

StartChar: I
Encoding: 74 73 74
GlifName: I_
Width: 593
VWidth: 0
Flags: HW
LayerCount: 2
Fore
SplineSet
421 562 m 257
 421 634 l 257
 91 634 l 257
 91 562 l 257
 214 562 l 257
 214 72 l 257
 91 72 l 257
 91 0 l 257
 421 0 l 257
 421 72 l 257
 298 72 l 257
 298 562 l 257
 421 562 l 257
EndSplineSet
Validated: 9
EndChar

StartChar: IJ
Encoding: 75 306 75
GlifName: I_J_
Width: 593
VWidth: 0
Flags: HW
LayerCount: 2
Fore
SplineSet
127 634 m 257
 43 634 l 257
 43 0 l 257
 127 0 l 257
 127 634 l 257
397 634 m 257
 397 176 l 258
 397 90 368 59 315 59 c 256
 269 59 239 80 215 106 c 257
 181 38 l 257
 218 4 268 -13 316 -13 c 256
 418 -13 482 42 482 175 c 258
 482 634 l 257
 397 634 l 257
EndSplineSet
Validated: 9
PickledDataWithLists: "(dp0
Vcom.fontlab.v5.background
p1
(dp2
Vdata
p3
(dp4
Vbytes
p5
(lp6
I255
aI0
aI0
aI254
aI255
aI0
aI0
aI254
aI255
aI0
aI0
aI254
aI255
aI60
aI0
aI254
aI30
aI127
aI0
aI254
aI30
aI127
aI0
aI255
aI62
aI127
aI0
aI255
aI62
aI127
aI0
aI255
aI62
aI127
aI0
aI255
aI62
aI127
aI0
aI255
aI62
aI127
aI0
aI255
aI62
aI127
aI0
aI255
aI62
aI127
aI0
aI255
aI62
aI127
aI0
aI255
aI62
aI127
aI0
aI255
aI62
aI127
aI0
aI255
aI62
aI127
aI0
aI254
aI16
aI127
aI0
aI254
aI16
aI255
aI0
aI254
aI255
aI0
aI0
aI254
aI255
aI0
aI0
aI254
aI255
aI0
aI0
aI254
aI255
aI0
aI0
aI254
aI255
aI0
aI0
aI0
aI0
aI0
aI0
aI0
aI0
aI0
aI0
aI0
aI0
aI0
aI0
aI0
aI0
aI0
aI0
aI0
aI0
aI0
aI0
aI0
aI0
aI0
aI0
aI0
aI0
aI0
aI0
aI0
aI0
aI0
aI0
aI0
aI0
aI0
aI0
aI0
aI0
aI0
aI0
aI0
aI0
aI0
aI0
aI0
aI0
aI0
aI0
aI0
aI0
aI0
aI0
aI0
aI0
aI0
aI0
aI0
aI0
aI0
aI0
aI0
aI0
aI0
aI0
aI0
aI0
aI0
aI0
aI0
aI0
aI0
aI0
aI0
aI0
aI0
aI0
aI0
aI0
aI0
aI0
aI0
aI0
aI0
aI0
aI0
aI0
aI0
aI0
aI0
aI0
aI0
aI0
aI0
aI0
aI0
aI0
aI0
aI0
aI0
aI0
aI0
aI0
aI0
aI0
aI0
aI0
aI0
aI0
aI0
aI0
aI0
aI0
aI0
aI0
aI0
aI0
aI0
aI0
aI0
aI0
aI0
aI0
aI0
aI0
aI0
aI0
aI0
aI0
aI0
aI0
aI0
aI0
aI0
aI0
aI0
aI0
aI0
aI0
aI0
aI0
aI0
aI0
aI0
aI0
aI0
aI0
aI0
aI0
aI0
aI0
aI0
aI0
aI0
aI0
aI0
aI0
aI0
aI0
aI0
asVnum_bytes
p7
I254
ssVlen
p8
I96
sVorigin
p9
(lp10
I-159
aI-208
asVsize_pixels
p11
(lp12
I24
aI24
asVsize_units
p13
(lp14
I840
aI791
ass."
EndChar

StartChar: Iogonek
Encoding: 83 302 83
GlifName: I_ogonek
Width: 593
VWidth: 0
Flags: HW
LayerCount: 2
Fore
SplineSet
421 562 m 257
 421 634 l 257
 91 634 l 257
 91 562 l 257
 214 562 l 257
 214 72 l 257
 91 72 l 257
 91 0 l 257
 213 0 l 257
 206 -5 197 -14 188 -25 c 257
 166 -48 150 -72 150 -101 c 256
 150 -144 181 -171 250 -171 c 256
 275 -171 296 -167 310 -161 c 257
 303 -105 l 257
 290 -109 274 -112 266 -112 c 256
 241 -112 229 -102 229 -85 c 256
 229 -68 242 -55 259 -36 c 256
 273 -22 287 -9 299 0 c 257
 421 0 l 257
 421 72 l 257
 298 72 l 257
 298 562 l 257
 421 562 l 257
EndSplineSet
Validated: 9
PickledDataWithLists: "(dp0
Vcom.fontlab.v5.background
p1
(dp2
Vdata
p3
(dp4
Vbytes
p5
(lp6
I255
aI0
aI0
aI254
aI255
aI0
aI0
aI254
aI255
aI0
aI0
aI254
aI255
aI76
aI0
aI255
aI0
aI255
aI0
aI255
aI0
aI255
aI0
aI255
aI231
aI255
aI0
aI255
aI231
aI255
aI0
aI255
aI231
aI255
aI0
aI255
aI231
aI255
aI0
aI255
aI231
aI255
aI0
aI255
aI231
aI255
aI0
aI255
aI231
aI255
aI0
aI255
aI231
aI255
aI0
aI255
aI231
aI255
aI0
aI255
aI231
aI255
aI0
aI255
aI231
aI255
aI0
aI255
aI0
aI255
aI0
aI255
aI0
aI255
aI0
aI255
aI239
aI255
aI0
aI255
aI223
aI255
aI0
aI255
aI223
aI255
aI0
aI255
aI227
aI255
aI0
aI254
aI255
aI0
aI0
aI0
aI0
aI0
aI0
aI0
aI0
aI0
aI0
aI0
aI0
aI0
aI0
aI0
aI0
aI0
aI0
aI0
aI0
aI0
aI0
aI0
aI0
aI0
aI0
aI0
aI0
aI0
aI0
aI0
aI0
aI0
aI0
aI0
aI0
aI0
aI0
aI0
aI0
aI0
aI0
aI0
aI0
aI0
aI0
aI0
aI0
aI0
aI0
aI0
aI0
aI0
aI0
aI0
aI0
aI0
aI0
aI0
aI0
aI0
aI0
aI0
aI0
aI0
aI0
aI0
aI0
aI0
aI0
aI0
aI0
aI0
aI0
aI0
aI0
aI0
aI0
aI0
aI0
aI0
aI0
aI0
aI0
aI0
aI0
aI0
aI0
aI0
aI0
aI0
aI0
aI0
aI0
aI0
aI0
aI0
aI0
aI0
aI0
aI0
aI0
aI0
aI0
aI0
aI0
aI0
aI0
aI0
aI0
aI0
aI0
aI0
aI0
aI0
aI0
aI0
aI0
aI0
aI0
aI0
aI0
aI0
aI0
aI0
aI0
aI0
aI0
aI0
aI0
aI0
aI0
aI0
aI0
aI0
aI0
aI0
aI0
aI0
aI0
aI0
aI0
aI0
aI0
aI0
aI0
aI0
aI0
aI0
aI0
aI0
aI0
aI0
aI0
aI0
aI0
aI0
aI0
aI0
aI0
aI0
asVnum_bytes
p7
I254
ssVlen
p8
I96
sVorigin
p9
(lp10
I-166
aI-208
asVsize_pixels
p11
(lp12
I24
aI24
asVsize_units
p13
(lp14
I833
aI791
ass."
EndChar

StartChar: J
Encoding: 88 74 88
GlifName: J_
Width: 593
VWidth: 0
Flags: HW
LayerCount: 2
Fore
SplineSet
346 562 m 257
 346 212 l 258
 346 102 303 59 216 59 c 256
 160 59 115 87 89 106 c 257
 55 38 l 257
 81 16 139 -13 220 -13 c 256
 384 -13 430 83 430 204 c 258
 430 634 l 257
 130 634 l 257
 130 562 l 257
 346 562 l 257
EndSplineSet
Validated: 9
PickledDataWithLists: "(dp0
Vcom.fontlab.v5.background
p1
(dp2
Vdata
p3
(dp4
Vbytes
p5
(lp6
I255
aI0
aI0
aI254
aI255
aI0
aI0
aI254
aI255
aI0
aI0
aI254
aI255
aI60
aI0
aI255
aI249
aI255
aI0
aI255
aI249
aI255
aI0
aI255
aI249
aI255
aI0
aI255
aI249
aI255
aI0
aI255
aI249
aI255
aI0
aI255
aI249
aI255
aI0
aI255
aI249
aI255
aI0
aI255
aI249
aI255
aI0
aI255
aI249
aI255
aI0
aI255
aI249
aI255
aI0
aI255
aI249
aI255
aI0
aI255
aI249
aI255
aI0
aI255
aI113
aI255
aI0
aI255
aI3
aI255
aI0
aI255
aI135
aI255
aI0
aI254
aI255
aI0
aI0
aI254
aI255
aI0
aI0
aI254
aI255
aI0
aI0
aI254
aI255
aI0
aI0
aI254
aI255
aI0
aI0
aI0
aI0
aI0
aI0
aI0
aI0
aI0
aI0
aI0
aI0
aI0
aI0
aI0
aI0
aI0
aI0
aI0
aI0
aI0
aI0
aI0
aI0
aI0
aI0
aI0
aI0
aI0
aI0
aI0
aI0
aI0
aI0
aI0
aI0
aI0
aI0
aI0
aI0
aI0
aI0
aI0
aI0
aI0
aI0
aI0
aI0
aI0
aI0
aI0
aI0
aI0
aI0
aI0
aI0
aI0
aI0
aI0
aI0
aI0
aI0
aI0
aI0
aI0
aI0
aI0
aI0
aI0
aI0
aI0
aI0
aI0
aI0
aI0
aI0
aI0
aI0
aI0
aI0
aI0
aI0
aI0
aI0
aI0
aI0
aI0
aI0
aI0
aI0
aI0
aI0
aI0
aI0
aI0
aI0
aI0
aI0
aI0
aI0
aI0
aI0
aI0
aI0
aI0
aI0
aI0
aI0
aI0
aI0
aI0
aI0
aI0
aI0
aI0
aI0
aI0
aI0
aI0
aI0
aI0
aI0
aI0
aI0
aI0
aI0
aI0
aI0
aI0
aI0
aI0
aI0
aI0
aI0
aI0
aI0
aI0
aI0
aI0
aI0
aI0
aI0
aI0
aI0
aI0
aI0
aI0
aI0
aI0
aI0
aI0
aI0
aI0
aI0
aI0
aI0
aI0
aI0
aI0
aI0
aI0
asVnum_bytes
p7
I254
ssVlen
p8
I96
sVorigin
p9
(lp10
I-265
aI-209
asVsize_pixels
p11
(lp12
I24
aI24
asVsize_units
p13
(lp14
I734
aI790
ass."
EndChar

StartChar: Jcircumflex
Encoding: 89 308 89
GlifName: J_circumflex
Width: 593
VWidth: 0
Flags: HW
LayerCount: 2
Back
SplineSet
448.51171875 633.856445312 m 257
 109.568359375 633.856445312 l 257
 109.568359375 529.408203125 l 257
 321.536132812 529.408203125 l 257
 321.536132812 219.135742188 l 258
 321.536132812 124.927734375 277.50390625 96.255859375 211.967773438 96.255859375 c 256
 167.935546875 96.255859375 124.927734375 121.856445312 91.1357421875 143.360351562 c 257
 43.0078125 43.0078125 l 257
 82.9443359375 12.2880859375 138.240234375 -13.3115234375 223.232421875 -13.3115234375 c 256
 388.095703125 -13.3115234375 448.51171875 88.064453125 448.51171875 211.967773438 c 258
 448.51171875 633.856445312 l 257
313.34375 849.919921875 m 257
 169.984375 724.9921875 l 257
 222.208007812 664.576171875 l 257
 313.34375 735.232421875 l 257
 404.48046875 664.576171875 l 257
 454.65625 724.9921875 l 257
 313.34375 849.919921875 l 257
EndSplineSet
Fore
Refer: 88 74 N 1 0 0 1 0 0 2
Refer: 375 710 N 1 0 0 1 51 142 2
Validated: 9
PickledDataWithLists: "(dp0
Vcom.fontlab.v5.background
p1
(dp2
Vdata
p3
(dp4
Vbytes
p5
(lp6
I255
aI201
aI255
aI0
aI255
aI156
aI255
asVextra
p7
(lp8
I0
aI254
aI255
aI0
aI0
aI254
aI255
aI60
aI0
aI255
aI249
aI255
aI0
aI255
aI249
aI255
aI0
aI255
aI249
aI255
aI0
aI255
aI249
aI255
aI0
aI255
aI249
aI255
aI0
aI255
aI249
aI255
aI0
aI255
aI249
aI255
aI0
aI255
aI249
aI255
aI0
aI255
aI249
aI255
aI0
aI255
aI249
aI255
aI0
aI255
aI249
aI255
aI0
aI255
aI249
aI255
aI0
aI255
aI113
aI255
aI0
aI255
aI3
aI255
aI0
aI255
aI135
aI255
aI0
aI254
aI255
aI0
aI0
aI254
aI255
aI0
aI0
aI254
aI255
aI0
aI0
aI254
aI255
aI0
aI0
aI254
aI255
aI0
aI0
asVnum_bytes
p9
I7
ssVlen
p10
I97
sVorigin
p11
(lp12
I-166
aI-208
asVsize_pixels
p13
(lp14
I24
aI24
asVsize_units
p15
(lp16
I833
aI791
ass."
EndChar

StartChar: K
Encoding: 90 75 90
GlifName: K_
Width: 593
VWidth: 0
Flags: HW
LayerCount: 2
Fore
SplineSet
384 634 m 257
 323 548 238 442 150 351 c 257
 150 634 l 257
 66 634 l 257
 66 0 l 257
 150 0 l 257
 150 303 l 257
 246 242 340 127 408 0 c 257
 503 0 l 257
 446 137 329 265 242 338 c 257
 334 436 414 535 481 634 c 257
 384 634 l 257
EndSplineSet
Validated: 9
PickledDataWithLists: "(dp0
Vcom.fontlab.v5.background
p1
(dp2
Vdata
p3
(dp4
Vbytes
p5
(lp6
I255
aI0
aI0
aI254
aI255
aI0
aI0
aI254
aI255
aI0
aI0
aI254
aI255
aI60
aI0
aI252
aI254
aI127
aI0
aI252
aI252
aI255
aI0
aI252
aI249
aI255
aI0
aI252
aI243
aI255
aI0
aI252
aI231
aI255
aI0
aI252
aI207
aI255
aI0
aI252
aI159
aI255
aI0
aI252
aI15
aI255
aI0
aI252
aI103
aI255
aI0
aI252
aI231
aI255
aI0
aI252
aI243
aI255
aI0
aI252
aI249
aI255
aI0
aI252
aI249
aI255
aI0
aI252
aI252
aI255
aI0
aI252
aI254
aI127
aI0
aI254
aI255
aI0
aI0
aI254
aI255
aI0
aI0
aI254
aI255
aI0
aI0
aI254
aI255
aI0
aI0
aI254
aI255
aI0
aI0
aI0
aI0
aI0
aI0
aI0
aI0
aI0
aI0
aI0
aI0
aI0
aI0
aI0
aI0
aI0
aI0
aI0
aI0
aI0
aI0
aI0
aI0
aI0
aI0
aI0
aI0
aI0
aI0
aI0
aI0
aI0
aI0
aI0
aI0
aI0
aI0
aI0
aI0
aI0
aI0
aI0
aI0
aI0
aI0
aI0
aI0
aI0
aI0
aI0
aI0
aI0
aI0
aI0
aI0
aI0
aI0
aI0
aI0
aI0
aI0
aI0
aI0
aI0
aI0
aI0
aI0
aI0
aI0
aI0
aI0
aI0
aI0
aI0
aI0
aI0
aI0
aI0
aI0
aI0
aI0
aI0
aI0
aI0
aI0
aI0
aI0
aI0
aI0
aI0
aI0
aI0
aI0
aI0
aI0
aI0
aI0
aI0
aI0
aI0
aI0
aI0
aI0
aI0
aI0
aI0
aI0
aI0
aI0
aI0
aI0
aI0
aI0
aI0
aI0
aI0
aI0
aI0
aI0
aI0
aI0
aI0
aI0
aI0
aI0
aI0
aI0
aI0
aI0
aI0
aI0
aI0
aI0
aI0
aI0
aI0
aI0
aI0
aI0
aI0
aI0
aI0
aI0
aI0
aI0
aI0
aI0
aI0
aI0
aI0
aI0
aI0
aI0
aI0
aI0
aI0
aI0
aI0
aI0
aI0
asVnum_bytes
p7
I254
ssVlen
p8
I96
sVorigin
p9
(lp10
I-200
aI-209
asVsize_pixels
p11
(lp12
I24
aI24
asVsize_units
p13
(lp14
I799
aI790
ass."
EndChar

StartChar: Kappa
Encoding: 91 922 91
GlifName: K_appa
Width: 593
VWidth: 0
Flags: HW
LayerCount: 2
Fore
SplineSet
356 634 m 257
 305 545 228 438 150 351 c 257
 150 634 l 257
 66 634 l 257
 66 0 l 257
 150 0 l 257
 150 305 l 257
 236 244 321 127 380 0 c 257
 475 0 l 257
 418 137 316 263 233 336 c 257
 317 429 371 499 454 634 c 257
 356 634 l 257
EndSplineSet
Validated: 9
PickledDataWithLists: "(dp0
Vcom.fontlab.v5.background
p1
(dp2
Vdata
p3
(dp4
Vbytes
p5
(lp6
I255
aI0
aI0
aI254
aI255
aI0
aI0
aI254
aI255
aI0
aI0
aI254
aI255
aI60
aI0
aI252
aI254
aI127
aI0
aI252
aI252
aI255
aI0
aI252
aI249
aI255
aI0
aI252
aI243
aI255
aI0
aI252
aI231
aI255
aI0
aI252
aI207
aI255
aI0
aI252
aI159
aI255
aI0
aI252
aI15
aI255
aI0
aI252
aI103
aI255
aI0
aI252
aI231
aI255
aI0
aI252
aI243
aI255
aI0
aI252
aI249
aI255
aI0
aI252
aI249
aI255
aI0
aI252
aI252
aI255
aI0
aI252
aI254
aI127
aI0
aI254
aI255
aI0
aI0
aI254
aI255
aI0
aI0
aI254
aI255
aI0
aI0
aI254
aI255
aI0
aI0
aI254
aI255
aI0
aI0
aI0
aI0
aI0
aI0
aI0
aI0
aI0
aI0
aI0
aI0
aI0
aI0
aI0
aI0
aI0
aI0
aI0
aI0
aI0
aI0
aI0
aI0
aI0
aI0
aI0
aI0
aI0
aI0
aI0
aI0
aI0
aI0
aI0
aI0
aI0
aI0
aI0
aI0
aI0
aI0
aI0
aI0
aI0
aI0
aI0
aI0
aI0
aI0
aI0
aI0
aI0
aI0
aI0
aI0
aI0
aI0
aI0
aI0
aI0
aI0
aI0
aI0
aI0
aI0
aI0
aI0
aI0
aI0
aI0
aI0
aI0
aI0
aI0
aI0
aI0
aI0
aI0
aI0
aI0
aI0
aI0
aI0
aI0
aI0
aI0
aI0
aI0
aI0
aI0
aI0
aI0
aI0
aI0
aI0
aI0
aI0
aI0
aI0
aI0
aI0
aI0
aI0
aI0
aI0
aI0
aI0
aI0
aI0
aI0
aI0
aI0
aI0
aI0
aI0
aI0
aI0
aI0
aI0
aI0
aI0
aI0
aI0
aI0
aI0
aI0
aI0
aI0
aI0
aI0
aI0
aI0
aI0
aI0
aI0
aI0
aI0
aI0
aI0
aI0
aI0
aI0
aI0
aI0
aI0
aI0
aI0
aI0
aI0
aI0
aI0
aI0
aI0
aI0
aI0
aI0
aI0
aI0
aI0
aI0
asVnum_bytes
p7
I254
ssVlen
p8
I96
sVorigin
p9
(lp10
I-166
aI-208
asVsize_pixels
p11
(lp12
I24
aI24
asVsize_units
p13
(lp14
I833
aI791
ass."
EndChar

StartChar: L
Encoding: 93 76 93
GlifName: L_
Width: 593
VWidth: 0
Flags: HW
LayerCount: 2
Fore
SplineSet
177 72 m 257
 177 634 l 257
 93 634 l 257
 93 0 l 257
 471 0 l 257
 471 72 l 257
 177 72 l 257
EndSplineSet
Validated: 9
PickledDataWithLists: "(dp0
Vcom.fontlab.v5.background
p1
(dp2
Vdata
p3
(dp4
Vbytes
p5
(lp6
I255
aI0
aI0
aI254
aI255
aI0
aI0
aI254
aI255
aI0
aI0
aI254
aI255
aI60
aI0
aI254
aI127
aI255
aI0
aI254
aI127
aI255
aI0
aI254
aI127
aI255
aI0
aI254
aI127
aI255
aI0
aI254
aI127
aI255
aI0
aI254
aI127
aI255
aI0
aI254
aI127
aI255
aI0
aI254
aI127
aI255
aI0
aI254
aI127
aI255
aI0
aI254
aI127
aI255
aI0
aI254
aI127
aI255
aI0
aI254
aI127
aI255
aI0
aI254
aI127
aI255
aI0
aI254
aI0
aI255
aI0
aI254
aI0
aI255
aI0
aI254
aI255
aI0
aI0
aI254
aI255
aI0
aI0
aI254
aI255
aI0
aI0
aI254
aI255
aI0
aI0
aI254
aI255
aI0
aI0
aI0
aI0
aI0
aI0
aI0
aI0
aI0
aI0
aI0
aI0
aI0
aI0
aI0
aI0
aI0
aI0
aI0
aI0
aI0
aI0
aI0
aI0
aI0
aI0
aI0
aI0
aI0
aI0
aI0
aI0
aI0
aI0
aI0
aI0
aI0
aI0
aI0
aI0
aI0
aI0
aI0
aI0
aI0
aI0
aI0
aI0
aI0
aI0
aI0
aI0
aI0
aI0
aI0
aI0
aI0
aI0
aI0
aI0
aI0
aI0
aI0
aI0
aI0
aI0
aI0
aI0
aI0
aI0
aI0
aI0
aI0
aI0
aI0
aI0
aI0
aI0
aI0
aI0
aI0
aI0
aI0
aI0
aI0
aI0
aI0
aI0
aI0
aI0
aI0
aI0
aI0
aI0
aI0
aI0
aI0
aI0
aI0
aI0
aI0
aI0
aI0
aI0
aI0
aI0
aI0
aI0
aI0
aI0
aI0
aI0
aI0
aI0
aI0
aI0
aI0
aI0
aI0
aI0
aI0
aI0
aI0
aI0
aI0
aI0
aI0
aI0
aI0
aI0
aI0
aI0
aI0
aI0
aI0
aI0
aI0
aI0
aI0
aI0
aI0
aI0
aI0
aI0
aI0
aI0
aI0
aI0
aI0
aI0
aI0
aI0
aI0
aI0
aI0
aI0
aI0
aI0
aI0
aI0
aI0
asVnum_bytes
p7
I254
ssVlen
p8
I96
sVorigin
p9
(lp10
I-166
aI-209
asVsize_pixels
p11
(lp12
I24
aI24
asVsize_units
p13
(lp14
I833
aI790
ass."
EndChar

StartChar: Lambda
Encoding: 95 923 95
GlifName: L_ambda
Width: 593
VWidth: 0
Flags: HW
LayerCount: 2
Fore
SplineSet
503 0 m 257
 460 175 382 443 310 634 c 257
 206 634 l 257
 124 421 72 244 9 0 c 257
 95 0 l 257
 150 267 229 492 255 560 c 257
 278 493 357 276 412 0 c 257
 503 0 l 257
EndSplineSet
Validated: 9
PickledDataWithLists: "(dp0
Vcom.fontlab.v5.background
p1
(dp2
Vdata
p3
(dp4
Vbytes
p5
(lp6
I255
aI0
aI0
aI254
aI255
aI0
aI0
aI254
aI255
aI0
aI0
aI254
aI255
aI60
aI0
aI255
aI199
aI255
aI0
aI255
aI199
aI255
aI0
aI255
aI199
aI255
aI0
aI255
aI147
aI255
aI0
aI255
aI147
aI255
aI0
aI255
aI147
aI255
aI0
aI255
aI147
aI255
aI0
aI255
aI57
aI255
aI0
aI255
aI57
aI255
aI0
aI255
aI57
aI255
aI0
aI254
aI124
aI255
aI0
aI254
aI124
aI255
aI0
aI254
aI124
aI255
aI0
aI252
aI254
aI127
aI0
aI252
aI254
aI127
aI0
aI254
aI255
aI0
aI0
aI254
aI255
aI0
aI0
aI254
aI255
aI0
aI0
aI254
aI255
aI0
aI0
aI254
aI255
aI0
aI0
aI0
aI0
aI0
aI0
aI0
aI0
aI0
aI0
aI0
aI0
aI0
aI0
aI0
aI0
aI0
aI0
aI0
aI0
aI0
aI0
aI0
aI0
aI0
aI0
aI0
aI0
aI0
aI0
aI0
aI0
aI0
aI0
aI0
aI0
aI0
aI0
aI0
aI0
aI0
aI0
aI0
aI0
aI0
aI0
aI0
aI0
aI0
aI0
aI0
aI0
aI0
aI0
aI0
aI0
aI0
aI0
aI0
aI0
aI0
aI0
aI0
aI0
aI0
aI0
aI0
aI0
aI0
aI0
aI0
aI0
aI0
aI0
aI0
aI0
aI0
aI0
aI0
aI0
aI0
aI0
aI0
aI0
aI0
aI0
aI0
aI0
aI0
aI0
aI0
aI0
aI0
aI0
aI0
aI0
aI0
aI0
aI0
aI0
aI0
aI0
aI0
aI0
aI0
aI0
aI0
aI0
aI0
aI0
aI0
aI0
aI0
aI0
aI0
aI0
aI0
aI0
aI0
aI0
aI0
aI0
aI0
aI0
aI0
aI0
aI0
aI0
aI0
aI0
aI0
aI0
aI0
aI0
aI0
aI0
aI0
aI0
aI0
aI0
aI0
aI0
aI0
aI0
aI0
aI0
aI0
aI0
aI0
aI0
aI0
aI0
aI0
aI0
aI0
aI0
aI0
aI0
aI0
aI0
aI0
asVnum_bytes
p7
I254
ssVlen
p8
I96
sVorigin
p9
(lp10
I-166
aI-208
asVsize_pixels
p11
(lp12
I24
aI24
asVsize_units
p13
(lp14
I833
aI791
ass."
EndChar

StartChar: Lslash
Encoding: 99 321 99
GlifName: L_slash
Width: 593
VWidth: 0
Flags: HW
LayerCount: 2
Fore
SplineSet
201 72 m 257
 201 306 l 257
 339 378 l 257
 310 438 l 257
 201 382 l 257
 201 634 l 257
 116 634 l 257
 116 338 l 257
 18 288 l 257
 48 227 l 257
 116 262 l 257
 116 0 l 257
 471 0 l 257
 471 72 l 257
 201 72 l 257
EndSplineSet
Validated: 9
PickledDataWithLists: "(dp0
Vcom.fontlab.v5.background
p1
(dp2
Vdata
p3
(dp4
Vbytes
p5
(lp6
I255
aI0
aI0
aI254
aI255
aI0
aI0
aI254
aI255
aI0
aI0
aI254
aI255
aI60
aI0
aI255
aI63
aI255
aI0
aI255
aI63
aI255
aI0
aI255
aI63
aI255
aI0
aI255
aI63
aI255
aI0
aI255
aI63
aI255
aI0
aI255
aI51
aI255
aI0
aI255
aI7
aI255
aI0
aI255
aI15
aI255
aI0
aI254
aI63
aI255
aI0
aI252
aI63
aI255
aI0
aI255
aI63
aI255
aI0
aI255
aI63
aI255
aI0
aI255
aI63
aI255
aI0
aI255
aI0
aI127
aI0
aI255
aI0
aI127
aI0
aI254
aI255
aI0
aI0
aI254
aI255
aI0
aI0
aI254
aI255
aI0
aI0
aI254
aI255
aI0
aI0
aI254
aI255
aI0
aI0
aI0
aI0
aI0
aI0
aI0
aI0
aI0
aI0
aI0
aI0
aI0
aI0
aI0
aI0
aI0
aI0
aI0
aI0
aI0
aI0
aI0
aI0
aI0
aI0
aI0
aI0
aI0
aI0
aI0
aI0
aI0
aI0
aI0
aI0
aI0
aI0
aI0
aI0
aI0
aI0
aI0
aI0
aI0
aI0
aI0
aI0
aI0
aI0
aI0
aI0
aI0
aI0
aI0
aI0
aI0
aI0
aI0
aI0
aI0
aI0
aI0
aI0
aI0
aI0
aI0
aI0
aI0
aI0
aI0
aI0
aI0
aI0
aI0
aI0
aI0
aI0
aI0
aI0
aI0
aI0
aI0
aI0
aI0
aI0
aI0
aI0
aI0
aI0
aI0
aI0
aI0
aI0
aI0
aI0
aI0
aI0
aI0
aI0
aI0
aI0
aI0
aI0
aI0
aI0
aI0
aI0
aI0
aI0
aI0
aI0
aI0
aI0
aI0
aI0
aI0
aI0
aI0
aI0
aI0
aI0
aI0
aI0
aI0
aI0
aI0
aI0
aI0
aI0
aI0
aI0
aI0
aI0
aI0
aI0
aI0
aI0
aI0
aI0
aI0
aI0
aI0
aI0
aI0
aI0
aI0
aI0
aI0
aI0
aI0
aI0
aI0
aI0
aI0
aI0
aI0
aI0
aI0
aI0
aI0
asVnum_bytes
p7
I254
ssVlen
p8
I96
sVorigin
p9
(lp10
I-166
aI-208
asVsize_pixels
p11
(lp12
I24
aI24
asVsize_units
p13
(lp14
I833
aI791
ass."
EndChar

StartChar: M
Encoding: 100 77 100
GlifName: M_
Width: 593
VWidth: 0
Flags: HW
LayerCount: 2
Fore
SplineSet
158 634 m 257
 80 634 l 257
 54 439 41 209 33 0 c 257
 115 0 l 257
 117 147 124 352 126 529 c 257
 220 241 l 257
 294 241 l 257
 386 529 l 257
 391 351 394 147 397 0 c 257
 479 0 l 257
 470 226 462 436 434 634 c 257
 355 634 l 257
 257 318 l 257
 158 634 l 257
EndSplineSet
Validated: 9
PickledDataWithLists: "(dp0
Vcom.fontlab.v5.background
p1
(dp2
Vdata
p3
(dp4
Vbytes
p5
(lp6
I255
aI0
aI0
aI254
aI255
aI0
aI0
aI254
aI255
aI0
aI0
aI254
aI255
aI60
aI0
aI252
aI124
aI127
aI0
aI252
aI56
aI127
aI0
aI252
aI56
aI127
aI0
aI252
aI146
aI127
aI0
aI252
aI146
aI127
aI0
aI252
aI146
aI127
aI0
aI252
aI198
aI127
aI0
aI252
aI198
aI127
aI0
aI252
aI254
aI127
aI0
aI252
aI254
aI127
aI0
aI252
aI254
aI127
aI0
aI252
aI254
aI127
aI0
aI252
aI254
aI127
aI0
aI252
aI254
aI127
aI0
aI252
aI254
aI127
aI0
aI254
aI255
aI0
aI0
aI254
aI255
aI0
aI0
aI254
aI255
aI0
aI0
aI254
aI255
aI0
aI0
aI254
aI255
aI0
aI0
aI0
aI0
aI0
aI0
aI0
aI0
aI0
aI0
aI0
aI0
aI0
aI0
aI0
aI0
aI0
aI0
aI0
aI0
aI0
aI0
aI0
aI0
aI0
aI0
aI0
aI0
aI0
aI0
aI0
aI0
aI0
aI0
aI0
aI0
aI0
aI0
aI0
aI0
aI0
aI0
aI0
aI0
aI0
aI0
aI0
aI0
aI0
aI0
aI0
aI0
aI0
aI0
aI0
aI0
aI0
aI0
aI0
aI0
aI0
aI0
aI0
aI0
aI0
aI0
aI0
aI0
aI0
aI0
aI0
aI0
aI0
aI0
aI0
aI0
aI0
aI0
aI0
aI0
aI0
aI0
aI0
aI0
aI0
aI0
aI0
aI0
aI0
aI0
aI0
aI0
aI0
aI0
aI0
aI0
aI0
aI0
aI0
aI0
aI0
aI0
aI0
aI0
aI0
aI0
aI0
aI0
aI0
aI0
aI0
aI0
aI0
aI0
aI0
aI0
aI0
aI0
aI0
aI0
aI0
aI0
aI0
aI0
aI0
aI0
aI0
aI0
aI0
aI0
aI0
aI0
aI0
aI0
aI0
aI0
aI0
aI0
aI0
aI0
aI0
aI0
aI0
aI0
aI0
aI0
aI0
aI0
aI0
aI0
aI0
aI0
aI0
aI0
aI0
aI0
aI0
aI0
aI0
aI0
aI0
asVnum_bytes
p7
I254
ssVlen
p8
I96
sVorigin
p9
(lp10
I-280
aI-209
asVsize_pixels
p11
(lp12
I24
aI24
asVsize_units
p13
(lp14
I719
aI790
ass."
EndChar

StartChar: Mu
Encoding: 101 924 101
GlifName: M_u
Width: 593
VWidth: 0
Flags: HW
LayerCount: 2
Fore
SplineSet
163 634 m 257
 70 634 l 257
 51 424 43 218 35 0 c 257
 116 0 l 257
 119 147 124 364 125 541 c 257
 214 241 l 257
 298 241 l 257
 385 541 l 257
 390 363 393 147 397 0 c 257
 478 0 l 257
 469 226 458 472 442 634 c 257
 349 634 l 257
 256 318 l 257
 163 634 l 257
EndSplineSet
Validated: 9
PickledDataWithLists: "(dp0
Vcom.fontlab.v5.background
p1
(dp2
Vdata
p3
(dp4
Vbytes
p5
(lp6
I255
aI0
aI0
aI254
aI255
aI0
aI0
aI254
aI255
aI0
aI0
aI254
aI255
aI60
aI0
aI252
aI124
aI127
aI0
aI252
aI56
aI127
aI0
aI252
aI56
aI127
aI0
aI252
aI146
aI127
aI0
aI252
aI146
aI127
aI0
aI252
aI146
aI127
aI0
aI252
aI198
aI127
aI0
aI252
aI198
aI127
aI0
aI252
aI254
aI127
aI0
aI252
aI254
aI127
aI0
aI252
aI254
aI127
aI0
aI252
aI254
aI127
aI0
aI252
aI254
aI127
aI0
aI252
aI254
aI127
aI0
aI252
aI254
aI127
aI0
aI254
aI255
aI0
aI0
aI254
aI255
aI0
aI0
aI254
aI255
aI0
aI0
aI254
aI255
aI0
aI0
aI254
aI255
aI0
aI0
aI0
aI0
aI0
aI0
aI0
aI0
aI0
aI0
aI0
aI0
aI0
aI0
aI0
aI0
aI0
aI0
aI0
aI0
aI0
aI0
aI0
aI0
aI0
aI0
aI0
aI0
aI0
aI0
aI0
aI0
aI0
aI0
aI0
aI0
aI0
aI0
aI0
aI0
aI0
aI0
aI0
aI0
aI0
aI0
aI0
aI0
aI0
aI0
aI0
aI0
aI0
aI0
aI0
aI0
aI0
aI0
aI0
aI0
aI0
aI0
aI0
aI0
aI0
aI0
aI0
aI0
aI0
aI0
aI0
aI0
aI0
aI0
aI0
aI0
aI0
aI0
aI0
aI0
aI0
aI0
aI0
aI0
aI0
aI0
aI0
aI0
aI0
aI0
aI0
aI0
aI0
aI0
aI0
aI0
aI0
aI0
aI0
aI0
aI0
aI0
aI0
aI0
aI0
aI0
aI0
aI0
aI0
aI0
aI0
aI0
aI0
aI0
aI0
aI0
aI0
aI0
aI0
aI0
aI0
aI0
aI0
aI0
aI0
aI0
aI0
aI0
aI0
aI0
aI0
aI0
aI0
aI0
aI0
aI0
aI0
aI0
aI0
aI0
aI0
aI0
aI0
aI0
aI0
aI0
aI0
aI0
aI0
aI0
aI0
aI0
aI0
aI0
aI0
aI0
aI0
aI0
aI0
aI0
aI0
asVnum_bytes
p7
I254
ssVlen
p8
I96
sVorigin
p9
(lp10
I-166
aI-208
asVsize_pixels
p11
(lp12
I24
aI24
asVsize_units
p13
(lp14
I833
aI791
ass."
EndChar

StartChar: N
Encoding: 102 78 102
GlifName: N_
Width: 593
VWidth: 0
Flags: HW
LayerCount: 2
Fore
SplineSet
456 0 m 257
 456 634 l 257
 379 634 l 257
 379 146 l 257
 298 345 255 430 142 634 c 257
 56 634 l 257
 56 0 l 257
 133 0 l 257
 133 506 l 257
 209 362 278 226 370 0 c 257
 456 0 l 257
EndSplineSet
Validated: 9
EndChar

StartChar: Nu
Encoding: 107 925 107
GlifName: N_u
Width: 593
VWidth: 0
Flags: HW
LayerCount: 2
Fore
SplineSet
457 0 m 257
 457 634 l 257
 380 634 l 257
 380 141 l 257
 338 260 227 487 141 634 c 257
 56 634 l 257
 56 0 l 257
 133 0 l 257
 133 506 l 257
 235 303 325 115 372 0 c 257
 457 0 l 257
EndSplineSet
Validated: 9
PickledDataWithLists: "(dp0
Vcom.fontlab.v5.background
p1
(dp2
Vdata
p3
(dp4
Vbytes
p5
(lp6
I255
aI0
aI0
aI254
aI255
aI0
aI0
aI254
aI255
aI0
aI0
aI254
aI255
aI60
aI0
aI254
aI60
aI255
aI0
aI254
aI60
aI255
aI0
aI254
aI28
aI255
aI0
aI254
aI28
aI255
aI0
aI254
aI28
aI255
aI0
aI254
aI76
aI255
aI0
aI254
aI76
aI255
aI0
aI254
aI108
aI255
aI0
aI254
aI100
aI255
aI0
aI254
aI100
aI255
aI0
aI254
aI112
aI255
aI0
aI254
aI112
aI255
aI0
aI254
aI112
aI255
aI0
aI254
aI120
aI255
aI0
aI254
aI120
aI255
aI0
aI254
aI255
aI0
aI0
aI254
aI255
aI0
aI0
aI254
aI255
aI0
aI0
aI254
aI255
aI0
aI0
aI254
aI255
aI0
aI0
aI0
aI0
aI0
aI0
aI0
aI0
aI0
aI0
aI0
aI0
aI0
aI0
aI0
aI0
aI0
aI0
aI0
aI0
aI0
aI0
aI0
aI0
aI0
aI0
aI0
aI0
aI0
aI0
aI0
aI0
aI0
aI0
aI0
aI0
aI0
aI0
aI0
aI0
aI0
aI0
aI0
aI0
aI0
aI0
aI0
aI0
aI0
aI0
aI0
aI0
aI0
aI0
aI0
aI0
aI0
aI0
aI0
aI0
aI0
aI0
aI0
aI0
aI0
aI0
aI0
aI0
aI0
aI0
aI0
aI0
aI0
aI0
aI0
aI0
aI0
aI0
aI0
aI0
aI0
aI0
aI0
aI0
aI0
aI0
aI0
aI0
aI0
aI0
aI0
aI0
aI0
aI0
aI0
aI0
aI0
aI0
aI0
aI0
aI0
aI0
aI0
aI0
aI0
aI0
aI0
aI0
aI0
aI0
aI0
aI0
aI0
aI0
aI0
aI0
aI0
aI0
aI0
aI0
aI0
aI0
aI0
aI0
aI0
aI0
aI0
aI0
aI0
aI0
aI0
aI0
aI0
aI0
aI0
aI0
aI0
aI0
aI0
aI0
aI0
aI0
aI0
aI0
aI0
aI0
aI0
aI0
aI0
aI0
aI0
aI0
aI0
aI0
aI0
aI0
aI0
aI0
aI0
aI0
aI0
asVnum_bytes
p7
I254
ssVlen
p8
I96
sVorigin
p9
(lp10
I-166
aI-208
asVsize_pixels
p11
(lp12
I24
aI24
asVsize_units
p13
(lp14
I833
aI791
ass."
EndChar

StartChar: O
Encoding: 108 79 108
GlifName: O_
Width: 593
VWidth: 0
Flags: HW
LayerCount: 2
Fore
SplineSet
30 317 m 256
 30 90 121 -13 256 -13 c 256
 390 -13 483 90 483 317 c 256
 483 543 390 648 256 648 c 256
 121 648 30 543 30 317 c 256
116 317 m 256
 116 483 160 575 254 575 c 256
 349 575 397 483 397 317 c 256
 397 151 349 59 254 59 c 256
 160 59 116 151 116 317 c 256
EndSplineSet
Validated: 9
EndChar

StartChar: OE
Encoding: 109 338 109
GlifName: O_E_
Width: 593
VWidth: 0
Flags: HW
LayerCount: 2
Fore
SplineSet
225 567 m 256
 237 567 252 566 269 560 c 257
 269 74 l 257
 265 73 252 67 225 67 c 256
 149 67 110 150 110 308 c 256
 110 466 150 567 225 567 c 256
225 -6 m 256
 243 -6 264 -4 283 0 c 257
 494 0 l 257
 494 72 l 257
 349 72 l 257
 349 296 l 257
 457 296 l 257
 457 368 l 257
 349 368 l 257
 349 562 l 257
 480 562 l 257
 480 634 l 257
 283 634 l 257
 265 637 240 640 226 640 c 256
 104 640 28 525 28 308 c 256
 28 90 103 -6 225 -6 c 256
EndSplineSet
Validated: 9
PickledDataWithLists: "(dp0
Vcom.fontlab.v5.background
p1
(dp2
Vdata
p3
(dp4
Vbytes
p5
(lp6
I255
aI0
aI0
aI254
aI255
aI0
aI0
aI254
aI255
aI0
aI0
aI254
aI255
aI60
aI0
aI255
aI192
aI127
aI0
aI255
aI128
aI127
aI0
aI255
aI51
aI255
aI0
aI255
aI51
aI255
aI0
aI254
aI115
aI255
aI0
aI254
aI115
aI255
aI0
aI254
aI112
aI127
aI0
aI254
aI112
aI127
aI0
aI254
aI115
aI255
aI0
aI254
aI115
aI255
aI0
aI254
aI115
aI255
aI0
aI255
aI51
aI255
aI0
aI255
aI51
aI255
aI0
aI255
aI128
aI127
aI0
aI255
aI192
aI127
aI0
aI254
aI255
aI0
aI0
aI254
aI255
aI0
aI0
aI254
aI255
aI0
aI0
aI254
aI255
aI0
aI0
aI254
aI255
aI0
aI0
aI0
aI0
aI0
aI0
aI0
aI0
aI0
aI0
aI0
aI0
aI0
aI0
aI0
aI0
aI0
aI0
aI0
aI0
aI0
aI0
aI0
aI0
aI0
aI0
aI0
aI0
aI0
aI0
aI0
aI0
aI0
aI0
aI0
aI0
aI0
aI0
aI0
aI0
aI0
aI0
aI0
aI0
aI0
aI0
aI0
aI0
aI0
aI0
aI0
aI0
aI0
aI0
aI0
aI0
aI0
aI0
aI0
aI0
aI0
aI0
aI0
aI0
aI0
aI0
aI0
aI0
aI0
aI0
aI0
aI0
aI0
aI0
aI0
aI0
aI0
aI0
aI0
aI0
aI0
aI0
aI0
aI0
aI0
aI0
aI0
aI0
aI0
aI0
aI0
aI0
aI0
aI0
aI0
aI0
aI0
aI0
aI0
aI0
aI0
aI0
aI0
aI0
aI0
aI0
aI0
aI0
aI0
aI0
aI0
aI0
aI0
aI0
aI0
aI0
aI0
aI0
aI0
aI0
aI0
aI0
aI0
aI0
aI0
aI0
aI0
aI0
aI0
aI0
aI0
aI0
aI0
aI0
aI0
aI0
aI0
aI0
aI0
aI0
aI0
aI0
aI0
aI0
aI0
aI0
aI0
aI0
aI0
aI0
aI0
aI0
aI0
aI0
aI0
aI0
aI0
aI0
aI0
aI0
aI0
asVnum_bytes
p7
I254
ssVlen
p8
I96
sVorigin
p9
(lp10
I-172
aI-208
asVsize_pixels
p11
(lp12
I24
aI24
asVsize_units
p13
(lp14
I827
aI791
ass."
EndChar

StartChar: Ohorn
Encoding: 115 416 115
GlifName: O_horn
Width: 593
VWidth: 0
Flags: HW
LayerCount: 2
Fore
SplineSet
30 317 m 256
 30 90 121 -13 256 -13 c 256
 390 -13 483 90 483 317 c 256
 483 415 465 492 434 545 c 257
 480 589 506 641 506 699 c 256
 506 706 506 719 505 732 c 257
 421 732 l 257
 422 725 423 709 423 697 c 256
 423 657 419 630 392 598 c 257
 355 632 309 648 256 648 c 256
 121 648 30 543 30 317 c 256
116 317 m 256
 116 483 160 575 254 575 c 256
 349 575 397 483 397 317 c 256
 397 151 349 59 254 59 c 256
 160 59 116 151 116 317 c 256
EndSplineSet
Validated: 9
PickledDataWithLists: "(dp0
Vcom.fontlab.v5.background
p1
(dp2
Vdata
p3
(dp4
Vbytes
p5
(lp6
I255
aI0
aI0
aI254
aI255
aI0
aI0
aI254
aI255
aI0
aI0
aI254
aI255
aI60
aI0
aI255
aI199
aI127
aI0
aI255
aI1
aI127
aI0
aI255
aI56
aI255
aI0
aI254
aI57
aI255
aI0
aI254
aI124
aI255
aI0
aI254
aI124
aI255
aI0
aI254
aI124
aI255
aI0
aI254
aI124
aI255
aI0
aI254
aI124
aI255
aI0
aI254
aI124
aI255
aI0
aI254
aI124
aI255
aI0
aI254
aI56
aI255
aI0
aI255
aI57
aI255
aI0
aI255
aI1
aI255
aI0
aI255
aI199
aI255
aI0
aI254
aI255
aI0
aI0
aI254
aI255
aI0
aI0
aI254
aI255
aI0
aI0
aI254
aI255
aI0
aI0
aI254
aI255
aI0
aI0
aI0
aI0
aI0
aI0
aI0
aI0
aI0
aI0
aI0
aI0
aI0
aI0
aI0
aI0
aI0
aI0
aI0
aI0
aI0
aI0
aI0
aI0
aI0
aI0
aI0
aI0
aI0
aI0
aI0
aI0
aI0
aI0
aI0
aI0
aI0
aI0
aI0
aI0
aI0
aI0
aI0
aI0
aI0
aI0
aI0
aI0
aI0
aI0
aI0
aI0
aI0
aI0
aI0
aI0
aI0
aI0
aI0
aI0
aI0
aI0
aI0
aI0
aI0
aI0
aI0
aI0
aI0
aI0
aI0
aI0
aI0
aI0
aI0
aI0
aI0
aI0
aI0
aI0
aI0
aI0
aI0
aI0
aI0
aI0
aI0
aI0
aI0
aI0
aI0
aI0
aI0
aI0
aI0
aI0
aI0
aI0
aI0
aI0
aI0
aI0
aI0
aI0
aI0
aI0
aI0
aI0
aI0
aI0
aI0
aI0
aI0
aI0
aI0
aI0
aI0
aI0
aI0
aI0
aI0
aI0
aI0
aI0
aI0
aI0
aI0
aI0
aI0
aI0
aI0
aI0
aI0
aI0
aI0
aI0
aI0
aI0
aI0
aI0
aI0
aI0
aI0
aI0
aI0
aI0
aI0
aI0
aI0
aI0
aI0
aI0
aI0
aI0
aI0
aI0
aI0
aI0
aI0
aI0
aI0
asVnum_bytes
p7
I254
ssVlen
p8
I96
sVorigin
p9
(lp10
I-167
aI-208
asVsize_pixels
p11
(lp12
I24
aI24
asVsize_units
p13
(lp14
I832
aI791
ass."
EndChar

StartChar: Omega
Encoding: 118 937 118
GlifName: O_mega
Width: 593
VWidth: 0
Flags: HW
LayerCount: 2
Fore
SplineSet
18 0 m 257
 222 0 l 257
 222 61 l 257
 156 132 119 252 119 361 c 256
 119 476 162 575 257 575 c 256
 352 575 395 476 395 361 c 256
 395 252 358 132 292 61 c 257
 292 0 l 257
 494 0 l 257
 494 72 l 257
 384 72 l 257
 447 155 480 262 480 362 c 256
 480 514 405 648 257 648 c 256
 109 648 34 514 34 362 c 256
 34 262 65 155 130 72 c 257
 18 72 l 257
 18 0 l 257
EndSplineSet
Validated: 9
EndChar

StartChar: Oslash
Encoding: 122 216 122
GlifName: O_slash
Width: 593
VWidth: 0
Flags: HW
LayerCount: 2
Fore
SplineSet
30 317 m 256
 30 202 51 120 92 66 c 257
 59 -2 l 257
 122 -34 l 257
 145 15 l 257
 177 -4 215 -13 256 -13 c 256
 390 -13 483 90 483 317 c 256
 483 433 458 517 416 572 c 257
 446 635 l 257
 383 667 l 257
 361 621 l 257
 329 639 295 648 256 648 c 256
 121 648 30 543 30 317 c 256
397 317 m 256
 397 151 349 59 254 59 c 256
 226 59 198 66 178 83 c 257
 374 486 l 257
 390 444 397 385 397 317 c 256
116 317 m 256
 116 483 160 575 254 575 c 256
 283 575 308 569 328 553 c 257
 133 152 l 257
 119 194 116 251 116 317 c 256
EndSplineSet
Validated: 9
PickledDataWithLists: "(dp0
Vcom.fontlab.v5.background
p1
(dp2
Vdata
p3
(dp4
Vbytes
p5
(lp6
I255
aI0
aI0
aI254
aI255
aI0
aI0
aI254
aI255
aI68
aI0
aI255
aI249
aI255
aI0
aI255
aI193
aI255
aI0
aI255
aI1
aI255
aI0
aI255
aI49
aI255
aI0
aI254
aI49
aI255
aI0
aI254
aI100
aI255
aI0
aI254
aI100
aI255
aI0
aI254
aI100
aI255
aI0
aI254
aI68
aI255
aI0
aI254
aI76
aI255
aI0
aI254
aI76
aI255
aI0
aI254
aI76
aI255
aI0
aI254
aI24
aI255
aI0
aI255
aI25
aI255
aI0
aI255
aI1
aI255
aI0
aI255
aI7
aI255
aI0
aI255
aI63
aI255
aI0
aI254
aI255
aI0
aI0
aI254
aI255
aI0
aI0
aI254
aI255
aI0
aI0
aI254
aI255
aI0
aI0
aI0
aI0
aI0
aI0
aI0
aI0
aI0
aI0
aI0
aI0
aI0
aI0
aI0
aI0
aI0
aI0
aI0
aI0
aI0
aI0
aI0
aI0
aI0
aI0
aI0
aI0
aI0
aI0
aI0
aI0
aI0
aI0
aI0
aI0
aI0
aI0
aI0
aI0
aI0
aI0
aI0
aI0
aI0
aI0
aI0
aI0
aI0
aI0
aI0
aI0
aI0
aI0
aI0
aI0
aI0
aI0
aI0
aI0
aI0
aI0
aI0
aI0
aI0
aI0
aI0
aI0
aI0
aI0
aI0
aI0
aI0
aI0
aI0
aI0
aI0
aI0
aI0
aI0
aI0
aI0
aI0
aI0
aI0
aI0
aI0
aI0
aI0
aI0
aI0
aI0
aI0
aI0
aI0
aI0
aI0
aI0
aI0
aI0
aI0
aI0
aI0
aI0
aI0
aI0
aI0
aI0
aI0
aI0
aI0
aI0
aI0
aI0
aI0
aI0
aI0
aI0
aI0
aI0
aI0
aI0
aI0
aI0
aI0
aI0
aI0
aI0
aI0
aI0
aI0
aI0
aI0
aI0
aI0
aI0
aI0
aI0
aI0
aI0
aI0
aI0
aI0
aI0
aI0
aI0
aI0
aI0
aI0
aI0
aI0
aI0
aI0
aI0
aI0
aI0
aI0
aI0
aI0
aI0
aI0
asVnum_bytes
p7
I254
ssVlen
p8
I96
sVorigin
p9
(lp10
I-175
aI-208
asVsize_pixels
p11
(lp12
I24
aI24
asVsize_units
p13
(lp14
I824
aI791
ass."
EndChar

StartChar: P
Encoding: 125 80 125
GlifName: P_
Width: 593
VWidth: 0
Flags: HW
LayerCount: 2
Fore
SplineSet
241 640 m 256
 196 640 124 637 75 625 c 257
 75 0 l 257
 159 0 l 257
 159 237 l 257
 232 237 l 258
 387 237 466 312 466 443 c 256
 466 560 393 640 241 640 c 256
247 567 m 256
 334 567 380 523 380 440 c 256
 380 347 329 308 228 308 c 258
 159 308 l 257
 159 564 l 257
 175 566 212 567 247 567 c 256
EndSplineSet
Validated: 9
PickledDataWithLists: "(dp0
Vcom.fontlab.v5.background
p1
(dp2
Vdata
p3
(dp4
Vbytes
p5
(lp6
I255
aI0
aI0
aI254
aI255
aI0
aI0
aI254
aI255
aI0
aI0
aI254
aI255
aI60
aI0
aI254
aI3
aI255
aI0
aI254
aI1
aI255
aI0
aI254
aI120
aI255
aI0
aI254
aI124
aI255
aI0
aI254
aI124
aI255
aI0
aI254
aI124
aI255
aI0
aI254
aI120
aI255
aI0
aI254
aI1
aI255
aI0
aI254
aI3
aI255
aI0
aI254
aI127
aI255
aI0
aI254
aI127
aI255
aI0
aI254
aI127
aI255
aI0
aI254
aI127
aI255
aI0
aI254
aI127
aI255
aI0
aI254
aI127
aI255
aI0
aI254
aI255
aI0
aI0
aI254
aI255
aI0
aI0
aI254
aI255
aI0
aI0
aI254
aI255
aI0
aI0
aI254
aI255
aI0
aI0
aI0
aI0
aI0
aI0
aI0
aI0
aI0
aI0
aI0
aI0
aI0
aI0
aI0
aI0
aI0
aI0
aI0
aI0
aI0
aI0
aI0
aI0
aI0
aI0
aI0
aI0
aI0
aI0
aI0
aI0
aI0
aI0
aI0
aI0
aI0
aI0
aI0
aI0
aI0
aI0
aI0
aI0
aI0
aI0
aI0
aI0
aI0
aI0
aI0
aI0
aI0
aI0
aI0
aI0
aI0
aI0
aI0
aI0
aI0
aI0
aI0
aI0
aI0
aI0
aI0
aI0
aI0
aI0
aI0
aI0
aI0
aI0
aI0
aI0
aI0
aI0
aI0
aI0
aI0
aI0
aI0
aI0
aI0
aI0
aI0
aI0
aI0
aI0
aI0
aI0
aI0
aI0
aI0
aI0
aI0
aI0
aI0
aI0
aI0
aI0
aI0
aI0
aI0
aI0
aI0
aI0
aI0
aI0
aI0
aI0
aI0
aI0
aI0
aI0
aI0
aI0
aI0
aI0
aI0
aI0
aI0
aI0
aI0
aI0
aI0
aI0
aI0
aI0
aI0
aI0
aI0
aI0
aI0
aI0
aI0
aI0
aI0
aI0
aI0
aI0
aI0
aI0
aI0
aI0
aI0
aI0
aI0
aI0
aI0
aI0
aI0
aI0
aI0
aI0
aI0
aI0
aI0
aI0
aI0
asVnum_bytes
p7
I254
ssVlen
p8
I96
sVorigin
p9
(lp10
I-168
aI-209
asVsize_pixels
p11
(lp12
I24
aI24
asVsize_units
p13
(lp14
I831
aI790
ass."
EndChar

StartChar: Psi
Encoding: 130 936 130
GlifName: P_si
Width: 593
VWidth: 0
Flags: HW
LayerCount: 2
Fore
SplineSet
294 162 m 257
 423 162 468 263 468 420 c 258
 468 634 l 257
 384 634 l 257
 384 423 l 258
 384 285 361 233 294 233 c 257
 294 486 l 257
 218 486 l 257
 218 233 l 257
 151 233 128 285 128 423 c 258
 128 634 l 257
 44 634 l 257
 44 420 l 258
 44 263 90 162 218 162 c 257
 218 0 l 257
 294 0 l 257
 294 162 l 257
EndSplineSet
Validated: 9
PickledDataWithLists: "(dp0
Vcom.fontlab.v5.background
p1
(dp2
Vdata
p3
(dp4
Vbytes
p5
(lp6
I255
aI0
aI0
aI254
aI255
aI0
aI0
aI254
aI255
aI0
aI0
aI254
aI255
aI60
aI0
aI249
aI231
aI159
aI0
aI252
aI231
aI31
aI0
aI252
aI231
aI63
aI0
aI252
aI231
aI63
aI0
aI252
aI231
aI63
aI0
aI252
aI230
aI127
aI0
aI254
aI102
aI127
aI0
aI254
aI0
aI127
aI0
aI255
aI1
aI255
aI0
aI255
aI231
aI255
aI0
aI255
aI231
aI255
aI0
aI255
aI231
aI255
aI0
aI255
aI231
aI255
aI0
aI255
aI231
aI255
aI0
aI255
aI231
aI255
aI0
aI254
aI255
aI0
aI0
aI254
aI255
aI0
aI0
aI254
aI255
aI0
aI0
aI254
aI255
aI0
aI0
aI254
aI255
aI0
aI0
aI0
aI0
aI0
aI0
aI0
aI0
aI0
aI0
aI0
aI0
aI0
aI0
aI0
aI0
aI0
aI0
aI0
aI0
aI0
aI0
aI0
aI0
aI0
aI0
aI0
aI0
aI0
aI0
aI0
aI0
aI0
aI0
aI0
aI0
aI0
aI0
aI0
aI0
aI0
aI0
aI0
aI0
aI0
aI0
aI0
aI0
aI0
aI0
aI0
aI0
aI0
aI0
aI0
aI0
aI0
aI0
aI0
aI0
aI0
aI0
aI0
aI0
aI0
aI0
aI0
aI0
aI0
aI0
aI0
aI0
aI0
aI0
aI0
aI0
aI0
aI0
aI0
aI0
aI0
aI0
aI0
aI0
aI0
aI0
aI0
aI0
aI0
aI0
aI0
aI0
aI0
aI0
aI0
aI0
aI0
aI0
aI0
aI0
aI0
aI0
aI0
aI0
aI0
aI0
aI0
aI0
aI0
aI0
aI0
aI0
aI0
aI0
aI0
aI0
aI0
aI0
aI0
aI0
aI0
aI0
aI0
aI0
aI0
aI0
aI0
aI0
aI0
aI0
aI0
aI0
aI0
aI0
aI0
aI0
aI0
aI0
aI0
aI0
aI0
aI0
aI0
aI0
aI0
aI0
aI0
aI0
aI0
aI0
aI0
aI0
aI0
aI0
aI0
aI0
aI0
aI0
aI0
aI0
aI0
asVnum_bytes
p7
I254
ssVlen
p8
I96
sVorigin
p9
(lp10
I-165
aI-208
asVsize_pixels
p11
(lp12
I24
aI24
asVsize_units
p13
(lp14
I834
aI791
ass."
EndChar

StartChar: Q
Encoding: 131 81 131
GlifName: Q_
Width: 593
VWidth: 0
Flags: HW
LayerCount: 2
Fore
SplineSet
30 316 m 256
 30 116 99 13 209 -10 c 257
 229 -113 326 -150 439 -169 c 257
 459 -101 l 257
 376 -90 304 -64 296 -11 c 257
 409 8 483 113 483 316 c 256
 483 542 390 647 256 647 c 256
 121 647 30 542 30 316 c 256
116 316 m 256
 116 482 160 574 254 574 c 256
 349 574 397 482 397 316 c 256
 397 150 349 58 254 58 c 256
 160 58 116 150 116 316 c 256
EndSplineSet
Validated: 9
PickledDataWithLists: "(dp0
Vcom.fontlab.v5.background
p1
(dp2
Vdata
p3
(dp4
Vbytes
p5
(lp6
I255
aI0
aI0
aI254
aI255
aI0
aI0
aI254
aI255
aI0
aI0
aI254
aI255
aI72
aI0
aI255
aI199
aI255
aI0
aI255
aI1
aI255
aI0
aI255
aI57
aI255
aI0
aI254
aI56
aI255
aI0
aI254
aI124
aI255
aI0
aI254
aI124
aI255
aI0
aI254
aI124
aI255
aI0
aI254
aI124
aI255
aI0
aI254
aI124
aI255
aI0
aI254
aI124
aI255
aI0
aI254
aI124
aI255
aI0
aI254
aI56
aI255
aI0
aI255
aI57
aI255
aI0
aI255
aI1
aI255
aI0
aI255
aI131
aI255
aI0
aI255
aI243
aI255
aI0
aI255
aI240
aI255
aI0
aI255
aI248
aI255
aI0
aI254
aI255
aI0
aI0
aI254
aI255
aI0
aI0
aI0
aI0
aI0
aI0
aI0
aI0
aI0
aI0
aI0
aI0
aI0
aI0
aI0
aI0
aI0
aI0
aI0
aI0
aI0
aI0
aI0
aI0
aI0
aI0
aI0
aI0
aI0
aI0
aI0
aI0
aI0
aI0
aI0
aI0
aI0
aI0
aI0
aI0
aI0
aI0
aI0
aI0
aI0
aI0
aI0
aI0
aI0
aI0
aI0
aI0
aI0
aI0
aI0
aI0
aI0
aI0
aI0
aI0
aI0
aI0
aI0
aI0
aI0
aI0
aI0
aI0
aI0
aI0
aI0
aI0
aI0
aI0
aI0
aI0
aI0
aI0
aI0
aI0
aI0
aI0
aI0
aI0
aI0
aI0
aI0
aI0
aI0
aI0
aI0
aI0
aI0
aI0
aI0
aI0
aI0
aI0
aI0
aI0
aI0
aI0
aI0
aI0
aI0
aI0
aI0
aI0
aI0
aI0
aI0
aI0
aI0
aI0
aI0
aI0
aI0
aI0
aI0
aI0
aI0
aI0
aI0
aI0
aI0
aI0
aI0
aI0
aI0
aI0
aI0
aI0
aI0
aI0
aI0
aI0
aI0
aI0
aI0
aI0
aI0
aI0
aI0
aI0
aI0
aI0
aI0
aI0
aI0
aI0
aI0
aI0
aI0
aI0
aI0
aI0
aI0
aI0
aI0
aI0
aI0
asVnum_bytes
p7
I254
ssVlen
p8
I96
sVorigin
p9
(lp10
I-213
aI-209
asVsize_pixels
p11
(lp12
I24
aI24
asVsize_units
p13
(lp14
I786
aI790
ass."
EndChar

StartChar: R
Encoding: 133 82 133
GlifName: R_
Width: 593
VWidth: 0
Flags: HW
LayerCount: 2
Fore
SplineSet
441 440 m 256
 441 572 363 640 211 640 c 256
 167 640 98 636 56 625 c 257
 56 0 l 257
 141 0 l 257
 141 250 l 257
 213 250 l 258
 218 250 239 250 247 251 c 257
 292 196 343 97 384 0 c 257
 474 0 l 257
 431 96 370 202 328 268 c 257
 397 301 441 362 441 440 c 256
218 567 m 256
 292 567 355 542 355 444 c 256
 355 342 293 319 196 319 c 258
 141 319 l 257
 141 564 l 257
 153 566 186 567 218 567 c 256
EndSplineSet
Validated: 9
PickledDataWithLists: "(dp0
Vcom.fontlab.v5.background
p1
(dp2
Vdata
p3
(dp4
Vbytes
p5
(lp6
I255
aI0
aI0
aI254
aI255
aI0
aI0
aI254
aI255
aI0
aI0
aI254
aI255
aI60
aI0
aI254
aI3
aI255
aI0
aI254
aI1
aI255
aI0
aI254
aI120
aI255
aI0
aI254
aI124
aI255
aI0
aI254
aI124
aI255
aI0
aI254
aI120
aI255
aI0
aI254
aI1
aI255
aI0
aI254
aI7
aI255
aI0
aI254
aI103
aI255
aI0
aI254
aI115
aI255
aI0
aI254
aI115
aI255
aI0
aI254
aI121
aI255
aI0
aI254
aI124
aI255
aI0
aI254
aI124
aI255
aI0
aI254
aI126
aI127
aI0
aI254
aI255
aI0
aI0
aI254
aI255
aI0
aI0
aI254
aI255
aI0
aI0
aI254
aI255
aI0
aI0
aI254
aI255
aI0
aI0
aI0
aI0
aI0
aI0
aI0
aI0
aI0
aI0
aI0
aI0
aI0
aI0
aI0
aI0
aI0
aI0
aI0
aI0
aI0
aI0
aI0
aI0
aI0
aI0
aI0
aI0
aI0
aI0
aI0
aI0
aI0
aI0
aI0
aI0
aI0
aI0
aI0
aI0
aI0
aI0
aI0
aI0
aI0
aI0
aI0
aI0
aI0
aI0
aI0
aI0
aI0
aI0
aI0
aI0
aI0
aI0
aI0
aI0
aI0
aI0
aI0
aI0
aI0
aI0
aI0
aI0
aI0
aI0
aI0
aI0
aI0
aI0
aI0
aI0
aI0
aI0
aI0
aI0
aI0
aI0
aI0
aI0
aI0
aI0
aI0
aI0
aI0
aI0
aI0
aI0
aI0
aI0
aI0
aI0
aI0
aI0
aI0
aI0
aI0
aI0
aI0
aI0
aI0
aI0
aI0
aI0
aI0
aI0
aI0
aI0
aI0
aI0
aI0
aI0
aI0
aI0
aI0
aI0
aI0
aI0
aI0
aI0
aI0
aI0
aI0
aI0
aI0
aI0
aI0
aI0
aI0
aI0
aI0
aI0
aI0
aI0
aI0
aI0
aI0
aI0
aI0
aI0
aI0
aI0
aI0
aI0
aI0
aI0
aI0
aI0
aI0
aI0
aI0
aI0
aI0
aI0
aI0
aI0
aI0
asVnum_bytes
p7
I254
ssVlen
p8
I96
sVorigin
p9
(lp10
I-220
aI-209
asVsize_pixels
p11
(lp12
I24
aI24
asVsize_units
p13
(lp14
I779
aI790
ass."
EndChar

StartChar: Rho
Encoding: 137 929 137
GlifName: R_ho
Width: 593
VWidth: 0
Flags: HW
LayerCount: 2
Fore
SplineSet
241 640 m 256
 196 640 124 636 75 624 c 257
 75 0 l 257
 159 0 l 257
 159 236 l 257
 232 236 l 258
 376 236 466 292 466 438 c 256
 466 571 384 640 241 640 c 256
247 567 m 256
 316 567 380 538 380 439 c 256
 380 337 318 307 228 307 c 258
 159 307 l 257
 159 563 l 257
 175 565 212 567 247 567 c 256
EndSplineSet
Validated: 9
PickledDataWithLists: "(dp0
Vcom.fontlab.v5.background
p1
(dp2
Vdata
p3
(dp4
Vbytes
p5
(lp6
I255
aI0
aI0
aI254
aI255
aI0
aI0
aI254
aI255
aI0
aI0
aI254
aI255
aI60
aI0
aI254
aI3
aI255
aI0
aI254
aI1
aI255
aI0
aI254
aI120
aI255
aI0
aI254
aI124
aI255
aI0
aI254
aI124
aI255
aI0
aI254
aI124
aI255
aI0
aI254
aI120
aI255
aI0
aI254
aI1
aI255
aI0
aI254
aI3
aI255
aI0
aI254
aI127
aI255
aI0
aI254
aI127
aI255
aI0
aI254
aI127
aI255
aI0
aI254
aI127
aI255
aI0
aI254
aI127
aI255
aI0
aI254
aI127
aI255
aI0
aI254
aI255
aI0
aI0
aI254
aI255
aI0
aI0
aI254
aI255
aI0
aI0
aI254
aI255
aI0
aI0
aI254
aI255
aI0
aI0
aI0
aI0
aI0
aI0
aI0
aI0
aI0
aI0
aI0
aI0
aI0
aI0
aI0
aI0
aI0
aI0
aI0
aI0
aI0
aI0
aI0
aI0
aI0
aI0
aI0
aI0
aI0
aI0
aI0
aI0
aI0
aI0
aI0
aI0
aI0
aI0
aI0
aI0
aI0
aI0
aI0
aI0
aI0
aI0
aI0
aI0
aI0
aI0
aI0
aI0
aI0
aI0
aI0
aI0
aI0
aI0
aI0
aI0
aI0
aI0
aI0
aI0
aI0
aI0
aI0
aI0
aI0
aI0
aI0
aI0
aI0
aI0
aI0
aI0
aI0
aI0
aI0
aI0
aI0
aI0
aI0
aI0
aI0
aI0
aI0
aI0
aI0
aI0
aI0
aI0
aI0
aI0
aI0
aI0
aI0
aI0
aI0
aI0
aI0
aI0
aI0
aI0
aI0
aI0
aI0
aI0
aI0
aI0
aI0
aI0
aI0
aI0
aI0
aI0
aI0
aI0
aI0
aI0
aI0
aI0
aI0
aI0
aI0
aI0
aI0
aI0
aI0
aI0
aI0
aI0
aI0
aI0
aI0
aI0
aI0
aI0
aI0
aI0
aI0
aI0
aI0
aI0
aI0
aI0
aI0
aI0
aI0
aI0
aI0
aI0
aI0
aI0
aI0
aI0
aI0
aI0
aI0
aI0
aI0
asVnum_bytes
p7
I254
ssVlen
p8
I96
sVorigin
p9
(lp10
I-166
aI-208
asVsize_pixels
p11
(lp12
I24
aI24
asVsize_units
p13
(lp14
I833
aI791
ass."
EndChar

StartChar: S
Encoding: 138 83 138
GlifName: S_
Width: 593
VWidth: 0
Flags: HW
LayerCount: 2
Fore
SplineSet
240 59 m 256
 164 59 109 85 82 100 c 257
 56 31 l 257
 82 16 149 -13 240 -13 c 256
 378 -13 456 49 456 159 c 256
 456 278 384 314 281 358 c 256
 210 389 156 413 156 483 c 256
 156 543 208 575 269 575 c 256
 327 575 378 555 406 539 c 257
 432 609 l 257
 404 628 339 648 269 648 c 256
 145 648 72 582 72 472 c 256
 72 372 146 329 228 295 c 256
 299 267 372 237 372 158 c 256
 372 93 325 59 240 59 c 256
EndSplineSet
Validated: 9
PickledDataWithLists: "(dp0
Vcom.fontlab.v5.background
p1
(dp2
Vdata
p3
(dp4
Vbytes
p5
(lp6
I255
aI0
aI0
aI254
aI255
aI0
aI0
aI254
aI255
aI0
aI0
aI254
aI255
aI60
aI0
aI255
aI131
aI255
aI0
aI255
aI1
aI255
aI0
aI254
aI61
aI255
aI0
aI254
aI127
aI255
aI0
aI254
aI127
aI255
aI0
aI255
aI31
aI255
aI0
aI255
aI143
aI255
aI0
aI255
aI195
aI255
aI0
aI255
aI241
aI255
aI0
aI255
aI248
aI255
aI0
aI255
aI252
aI255
aI0
aI255
aI252
aI255
aI0
aI254
aI248
aI255
aI0
aI254
aI1
aI255
aI0
aI255
aI7
aI255
aI0
aI254
aI255
aI0
aI0
aI254
aI255
aI0
aI0
aI254
aI255
aI0
aI0
aI254
aI255
aI0
aI0
aI254
aI255
aI0
aI0
aI0
aI0
aI0
aI0
aI0
aI0
aI0
aI0
aI0
aI0
aI0
aI0
aI0
aI0
aI0
aI0
aI0
aI0
aI0
aI0
aI0
aI0
aI0
aI0
aI0
aI0
aI0
aI0
aI0
aI0
aI0
aI0
aI0
aI0
aI0
aI0
aI0
aI0
aI0
aI0
aI0
aI0
aI0
aI0
aI0
aI0
aI0
aI0
aI0
aI0
aI0
aI0
aI0
aI0
aI0
aI0
aI0
aI0
aI0
aI0
aI0
aI0
aI0
aI0
aI0
aI0
aI0
aI0
aI0
aI0
aI0
aI0
aI0
aI0
aI0
aI0
aI0
aI0
aI0
aI0
aI0
aI0
aI0
aI0
aI0
aI0
aI0
aI0
aI0
aI0
aI0
aI0
aI0
aI0
aI0
aI0
aI0
aI0
aI0
aI0
aI0
aI0
aI0
aI0
aI0
aI0
aI0
aI0
aI0
aI0
aI0
aI0
aI0
aI0
aI0
aI0
aI0
aI0
aI0
aI0
aI0
aI0
aI0
aI0
aI0
aI0
aI0
aI0
aI0
aI0
aI0
aI0
aI0
aI0
aI0
aI0
aI0
aI0
aI0
aI0
aI0
aI0
aI0
aI0
aI0
aI0
aI0
aI0
aI0
aI0
aI0
aI0
aI0
aI0
aI0
aI0
aI0
aI0
aI0
asVnum_bytes
p7
I254
ssVlen
p8
I96
sVorigin
p9
(lp10
I-109
aI-221
asVsize_pixels
p11
(lp12
I24
aI24
asVsize_units
p13
(lp14
I890
aI778
ass."
EndChar

StartChar: SF010000.001
Encoding: 139 -1 139
GlifName: S_F_010000.001
Width: 593
VWidth: 0
Flags: HW
LayerCount: 2
Back
SplineSet
215.040039062 -174.080078125 m 257
 296.959960938 -174.080078125 l 257
 296.959960938 296.959960938 l 257
 512 296.959960938 l 257
 512 378.879882812 l 257
 215.040039062 378.879882812 l 257
 215.040039062 -174.080078125 l 257
EndSplineSet
Fore
SplineSet
215 -174 m 257
 297 -174 l 257
 297 297 l 257
 512 297 l 257
 512 379 l 257
 215 379 l 257
 215 -174 l 257
EndSplineSet
Validated: 9
PickledDataWithLists: "(dp0
Vcom.fontlab.v5.background
p1
(dp2
Vdata
p3
(dp4
Vbytes
p5
(lp6
I255
aI0
aI0
aI254
aI255
aI0
aI0
aI254
aI255
aI0
aI0
aI254
aI255
aI0
aI0
aI254
aI255
aI0
aI0
aI254
aI255
aI0
aI0
aI254
aI255
aI0
aI0
aI254
aI255
aI0
aI0
aI254
aI255
aI0
aI0
aI254
aI255
aI0
aI0
aI254
aI255
aI52
aI0
aI255
aI0
aI255
aI0
aI255
aI0
aI255
aI0
aI255
aI63
aI255
aI0
aI255
aI63
aI255
aI0
aI255
aI63
aI255
aI0
aI255
aI63
aI255
aI0
aI255
aI63
aI255
aI0
aI255
aI63
aI255
aI0
aI255
aI63
aI255
aI0
aI255
aI63
aI255
aI0
aI255
aI63
aI255
aI0
aI255
aI63
aI255
aI0
aI255
aI63
aI255
aI0
aI0
aI0
aI0
aI0
aI0
aI0
aI0
aI0
aI0
aI0
aI0
aI0
aI0
aI0
aI0
aI0
aI0
aI0
aI0
aI0
aI0
aI0
aI0
aI0
aI0
aI0
aI0
aI0
aI0
aI0
aI0
aI0
aI0
aI0
aI0
aI0
aI0
aI0
aI0
aI0
aI0
aI0
aI0
aI0
aI0
aI0
aI0
aI0
aI0
aI0
aI0
aI0
aI0
aI0
aI0
aI0
aI0
aI0
aI0
aI0
aI0
aI0
aI0
aI0
aI0
aI0
aI0
aI0
aI0
aI0
aI0
aI0
aI0
aI0
aI0
aI0
aI0
aI0
aI0
aI0
aI0
aI0
aI0
aI0
aI0
aI0
aI0
aI0
aI0
aI0
aI0
aI0
aI0
aI0
aI0
aI0
aI0
aI0
aI0
aI0
aI0
aI0
aI0
aI0
aI0
aI0
aI0
aI0
aI0
aI0
aI0
aI0
aI0
aI0
aI0
aI0
aI0
aI0
aI0
aI0
aI0
aI0
aI0
aI0
aI0
aI0
aI0
aI0
aI0
aI0
aI0
aI0
aI0
aI0
aI0
aI0
aI0
aI0
aI0
aI0
aI0
aI0
aI0
aI0
aI0
aI0
aI0
aI0
aI0
aI0
aI0
aI0
aI0
aI0
aI0
aI0
aI0
aI0
aI0
asVnum_bytes
p7
I254
ssVlen
p8
I96
sVorigin
p9
(lp10
I-166
aI-208
asVsize_pixels
p11
(lp12
I24
aI24
asVsize_units
p13
(lp14
I833
aI791
ass."
EndChar

StartChar: SF020000.001
Encoding: 140 -1 140
GlifName: S_F_020000.001
Width: 593
VWidth: 0
Flags: HW
LayerCount: 2
Back
SplineSet
215.040039062 296.959960938 m 257
 512 296.959960938 l 257
 512 378.879882812 l 257
 296.959960938 378.879882812 l 257
 296.959960938 849.919921875 l 257
 215.040039062 849.919921875 l 257
 215.040039062 296.959960938 l 257
EndSplineSet
Fore
SplineSet
215 297 m 257
 512 297 l 257
 512 379 l 257
 297 379 l 257
 297 850 l 257
 215 850 l 257
 215 297 l 257
EndSplineSet
Validated: 9
PickledDataWithLists: "(dp0
Vcom.fontlab.v5.background
p1
(dp2
Vdata
p3
(dp4
Vbytes
p5
(lp6
I255
aI63
aI255
aI0
aI255
aI63
aI255
aI0
aI255
aI63
aI255
aI0
aI255
aI63
aI255
aI0
aI255
aI63
aI255
aI0
aI255
aI63
aI255
aI0
aI255
aI63
aI255
aI0
aI255
aI63
aI255
aI0
aI255
aI63
aI255
aI0
aI255
aI63
aI255
aI0
aI255
aI63
aI255
aI0
aI255
aI0
aI255
aI0
aI255
aI0
aI255
asVextra
p7
(lp8
I0
aI254
aI255
aI0
aI0
aI254
aI255
aI0
aI0
aI254
aI255
aI0
aI0
aI254
aI255
aI0
aI0
aI254
aI255
aI0
aI0
aI254
aI255
aI0
aI0
aI254
aI255
aI0
aI0
aI254
aI255
aI0
aI0
aI254
aI255
aI0
aI0
aI254
aI255
aI0
aI0
aI254
aI255
aI0
aI0
asVnum_bytes
p9
I51
ssVlen
p10
I97
sVorigin
p11
(lp12
I-166
aI-208
asVsize_pixels
p13
(lp14
I24
aI24
asVsize_units
p15
(lp16
I833
aI791
ass."
EndChar

StartChar: SF030000.001
Encoding: 141 -1 141
GlifName: S_F_030000.001
Width: 593
VWidth: 0
Flags: HW
LayerCount: 2
Back
SplineSet
296.959960938 378.879882812 m 257
 0 378.879882812 l 257
 0 296.959960938 l 257
 215.040039062 296.959960938 l 257
 215.040039062 -174.080078125 l 257
 296.959960938 -174.080078125 l 257
 296.959960938 378.879882812 l 257
EndSplineSet
Fore
SplineSet
0 297 m 257
 215 297 l 257
 215 -174 l 257
 297 -174 l 257
 297 379 l 257
 0 379 l 257
 0 297 l 257
EndSplineSet
Validated: 9
PickledDataWithLists: "(dp0
Vcom.fontlab.v5.background
p1
(dp2
Vdata
p3
(dp4
Vbytes
p5
(lp6
I255
aI0
aI0
aI254
aI255
aI0
aI0
aI254
aI255
aI0
aI0
aI254
aI255
aI0
aI0
aI254
aI255
aI0
aI0
aI254
aI255
aI0
aI0
aI254
aI255
aI0
aI0
aI254
aI255
aI0
aI0
aI254
aI255
aI0
aI0
aI254
aI255
aI0
aI0
aI254
aI255
aI52
aI0
aI254
aI0
aI255
aI0
aI254
aI0
aI255
aI0
aI255
aI252
aI255
aI0
aI255
aI252
aI255
aI0
aI255
aI252
aI255
aI0
aI255
aI252
aI255
aI0
aI255
aI252
aI255
aI0
aI255
aI252
aI255
aI0
aI255
aI252
aI255
aI0
aI255
aI252
aI255
aI0
aI255
aI252
aI255
aI0
aI255
aI252
aI255
aI0
aI255
aI252
aI255
aI0
aI0
aI0
aI0
aI0
aI0
aI0
aI0
aI0
aI0
aI0
aI0
aI0
aI0
aI0
aI0
aI0
aI0
aI0
aI0
aI0
aI0
aI0
aI0
aI0
aI0
aI0
aI0
aI0
aI0
aI0
aI0
aI0
aI0
aI0
aI0
aI0
aI0
aI0
aI0
aI0
aI0
aI0
aI0
aI0
aI0
aI0
aI0
aI0
aI0
aI0
aI0
aI0
aI0
aI0
aI0
aI0
aI0
aI0
aI0
aI0
aI0
aI0
aI0
aI0
aI0
aI0
aI0
aI0
aI0
aI0
aI0
aI0
aI0
aI0
aI0
aI0
aI0
aI0
aI0
aI0
aI0
aI0
aI0
aI0
aI0
aI0
aI0
aI0
aI0
aI0
aI0
aI0
aI0
aI0
aI0
aI0
aI0
aI0
aI0
aI0
aI0
aI0
aI0
aI0
aI0
aI0
aI0
aI0
aI0
aI0
aI0
aI0
aI0
aI0
aI0
aI0
aI0
aI0
aI0
aI0
aI0
aI0
aI0
aI0
aI0
aI0
aI0
aI0
aI0
aI0
aI0
aI0
aI0
aI0
aI0
aI0
aI0
aI0
aI0
aI0
aI0
aI0
aI0
aI0
aI0
aI0
aI0
aI0
aI0
aI0
aI0
aI0
aI0
aI0
aI0
aI0
aI0
aI0
aI0
asVnum_bytes
p7
I254
ssVlen
p8
I96
sVorigin
p9
(lp10
I-166
aI-208
asVsize_pixels
p11
(lp12
I24
aI24
asVsize_units
p13
(lp14
I833
aI791
ass."
EndChar

StartChar: SF040000.001
Encoding: 142 -1 142
GlifName: S_F_040000.001
Width: 593
VWidth: 0
Flags: HW
LayerCount: 2
Back
SplineSet
296.959960938 849.919921875 m 257
 296.959960938 296.959960938 l 257
 0 296.959960938 l 257
 0 378.879882812 l 257
 215.040039062 378.879882812 l 257
 215.040039062 849.919921875 l 257
 296.959960938 849.919921875 l 257
EndSplineSet
Fore
SplineSet
0 297 m 257
 297 297 l 257
 297 850 l 257
 215 850 l 257
 215 379 l 257
 0 379 l 257
 0 297 l 257
EndSplineSet
Validated: 9
PickledDataWithLists: "(dp0
Vcom.fontlab.v5.background
p1
(dp2
Vdata
p3
(dp4
Vbytes
p5
(lp6
I255
aI252
aI255
aI0
aI255
aI252
aI255
aI0
aI255
aI252
aI255
aI0
aI255
aI252
aI255
aI0
aI255
aI252
aI255
aI0
aI255
aI252
aI255
aI0
aI255
aI252
aI255
aI0
aI255
aI252
aI255
aI0
aI255
aI252
aI255
aI0
aI255
aI252
aI255
aI0
aI255
aI252
aI255
aI0
aI254
aI0
aI255
aI0
aI254
aI0
aI255
asVextra
p7
(lp8
I0
aI254
aI255
aI0
aI0
aI254
aI255
aI0
aI0
aI254
aI255
aI0
aI0
aI254
aI255
aI0
aI0
aI254
aI255
aI0
aI0
aI254
aI255
aI0
aI0
aI254
aI255
aI0
aI0
aI254
aI255
aI0
aI0
aI254
aI255
aI0
aI0
aI254
aI255
aI0
aI0
aI254
aI255
aI0
aI0
asVnum_bytes
p9
I51
ssVlen
p10
I97
sVorigin
p11
(lp12
I-166
aI-208
asVsize_pixels
p13
(lp14
I24
aI24
asVsize_units
p15
(lp16
I833
aI791
ass."
EndChar

StartChar: SF050000.001
Encoding: 143 -1 143
GlifName: S_F_050000.001
Width: 593
VWidth: 0
Flags: HW
LayerCount: 2
Back
SplineSet
522.240234375 304.127929688 m 257
 522.240234375 371.711914062 l 257
 289.791992188 371.711914062 l 257
 289.791992188 860.16015625 l 257
 222.208007812 860.16015625 l 257
 222.208007812 371.711914062 l 257
 -10.240234375 371.711914062 l 257
 -10.240234375 304.127929688 l 257
 222.208007812 304.127929688 l 257
 222.208007812 -184.3203125 l 257
 289.791992188 -184.3203125 l 257
 289.791992188 304.127929688 l 257
 522.240234375 304.127929688 l 257
EndSplineSet
Fore
SplineSet
215 -174 m 257
 297 -174 l 257
 297 297 l 257
 512 297 l 257
 512 379 l 257
 297 379 l 257
 297 850 l 257
 215 850 l 257
 215 379 l 257
 0 379 l 257
 0 297 l 257
 215 297 l 257
 215 -174 l 257
EndSplineSet
Validated: 9
PickledDataWithLists: "(dp0
Vcom.fontlab.v5.background
p1
(dp2
Vdata
p3
(dp4
Vbytes
p5
(lp6
I255
aI231
aI255
aI0
aI255
aI231
aI255
aI0
aI255
aI231
aI255
aI0
aI255
aI231
aI255
aI0
aI255
aI231
aI255
aI0
aI255
aI231
aI255
aI0
aI255
aI231
aI255
aI0
aI255
aI231
aI255
aI0
aI255
aI231
aI255
aI0
aI255
aI231
aI255
aI0
aI255
aI231
aI255
aI0
aI240
aI0
aI31
aI0
aI240
aI0
aI31
aI0
aI255
aI231
aI255
aI0
aI255
aI231
aI255
aI0
aI255
aI231
aI255
aI0
aI255
aI231
aI255
aI0
aI255
aI231
aI255
aI0
aI255
aI231
aI255
aI0
aI255
aI231
aI255
aI0
aI255
aI231
aI255
aI0
aI255
aI231
aI255
aI0
aI255
aI231
aI255
aI0
aI255
aI231
aI255
asVextra
p7
(lp8
I0
asVnum_bytes
p9
I95
ssVlen
p10
I97
sVorigin
p11
(lp12
I-166
aI-208
asVsize_pixels
p13
(lp14
I24
aI24
asVsize_units
p15
(lp16
I833
aI791
ass."
EndChar

StartChar: SF060000.001
Encoding: 144 -1 144
GlifName: S_F_060000.001
Width: 593
VWidth: 0
Flags: HW
LayerCount: 2
Back
SplineSet
289.791992188 304.127929688 m 257
 522.240234375 304.127929688 l 257
 522.240234375 371.711914062 l 257
 -10.240234375 371.711914062 l 257
 -10.240234375 304.127929688 l 257
 222.208007812 304.127929688 l 257
 222.208007812 -184.3203125 l 257
 289.791992188 -184.3203125 l 257
 289.791992188 304.127929688 l 257
EndSplineSet
Fore
SplineSet
0 379 m 257
 0 297 l 257
 215 297 l 257
 215 -174 l 257
 297 -174 l 257
 297 297 l 257
 512 297 l 257
 512 379 l 257
 0 379 l 257
EndSplineSet
Validated: 9
PickledDataWithLists: "(dp0
Vcom.fontlab.v5.background
p1
(dp2
Vdata
p3
(dp4
Vbytes
p5
(lp6
I255
aI0
aI0
aI254
aI255
aI0
aI0
aI254
aI255
aI0
aI0
aI254
aI255
aI0
aI0
aI254
aI255
aI0
aI0
aI254
aI255
aI0
aI0
aI254
aI255
aI0
aI0
aI254
aI255
aI0
aI0
aI254
aI255
aI0
aI0
aI254
aI255
aI0
aI0
aI254
aI255
aI52
aI0
aI240
aI0
aI31
aI0
aI240
aI0
aI31
aI0
aI255
aI231
aI255
aI0
aI255
aI231
aI255
aI0
aI255
aI231
aI255
aI0
aI255
aI231
aI255
aI0
aI255
aI231
aI255
aI0
aI255
aI231
aI255
aI0
aI255
aI231
aI255
aI0
aI255
aI231
aI255
aI0
aI255
aI231
aI255
aI0
aI255
aI231
aI255
aI0
aI255
aI231
aI255
aI0
aI0
aI0
aI0
aI0
aI0
aI0
aI0
aI0
aI0
aI0
aI0
aI0
aI0
aI0
aI0
aI0
aI0
aI0
aI0
aI0
aI0
aI0
aI0
aI0
aI0
aI0
aI0
aI0
aI0
aI0
aI0
aI0
aI0
aI0
aI0
aI0
aI0
aI0
aI0
aI0
aI0
aI0
aI0
aI0
aI0
aI0
aI0
aI0
aI0
aI0
aI0
aI0
aI0
aI0
aI0
aI0
aI0
aI0
aI0
aI0
aI0
aI0
aI0
aI0
aI0
aI0
aI0
aI0
aI0
aI0
aI0
aI0
aI0
aI0
aI0
aI0
aI0
aI0
aI0
aI0
aI0
aI0
aI0
aI0
aI0
aI0
aI0
aI0
aI0
aI0
aI0
aI0
aI0
aI0
aI0
aI0
aI0
aI0
aI0
aI0
aI0
aI0
aI0
aI0
aI0
aI0
aI0
aI0
aI0
aI0
aI0
aI0
aI0
aI0
aI0
aI0
aI0
aI0
aI0
aI0
aI0
aI0
aI0
aI0
aI0
aI0
aI0
aI0
aI0
aI0
aI0
aI0
aI0
aI0
aI0
aI0
aI0
aI0
aI0
aI0
aI0
aI0
aI0
aI0
aI0
aI0
aI0
aI0
aI0
aI0
aI0
aI0
aI0
aI0
aI0
aI0
aI0
aI0
aI0
asVnum_bytes
p7
I254
ssVlen
p8
I96
sVorigin
p9
(lp10
I-166
aI-208
asVsize_pixels
p11
(lp12
I24
aI24
asVsize_units
p13
(lp14
I833
aI791
ass."
EndChar

StartChar: SF070000.001
Encoding: 145 -1 145
GlifName: S_F_070000.001
Width: 593
VWidth: 0
Flags: HW
LayerCount: 2
Back
SplineSet
222.208007812 371.711914062 m 257
 -10.240234375 371.711914062 l 257
 -10.240234375 304.127929688 l 257
 522.240234375 304.127929688 l 257
 522.240234375 371.711914062 l 257
 289.791992188 371.711914062 l 257
 289.791992188 860.16015625 l 257
 222.208007812 860.16015625 l 257
 222.208007812 371.711914062 l 257
EndSplineSet
Fore
SplineSet
512 297 m 257
 512 379 l 257
 297 379 l 257
 297 850 l 257
 215 850 l 257
 215 379 l 257
 0 379 l 257
 0 297 l 257
 512 297 l 257
EndSplineSet
Validated: 9
PickledDataWithLists: "(dp0
Vcom.fontlab.v5.background
p1
(dp2
Vdata
p3
(dp4
Vbytes
p5
(lp6
I255
aI231
aI255
aI0
aI255
aI231
aI255
aI0
aI255
aI231
aI255
aI0
aI255
aI231
aI255
aI0
aI255
aI231
aI255
aI0
aI255
aI231
aI255
aI0
aI255
aI231
aI255
aI0
aI255
aI231
aI255
aI0
aI255
aI231
aI255
aI0
aI255
aI231
aI255
aI0
aI255
aI231
aI255
aI0
aI240
aI0
aI31
aI0
aI240
aI0
aI31
asVextra
p7
(lp8
I0
aI254
aI255
aI0
aI0
aI254
aI255
aI0
aI0
aI254
aI255
aI0
aI0
aI254
aI255
aI0
aI0
aI254
aI255
aI0
aI0
aI254
aI255
aI0
aI0
aI254
aI255
aI0
aI0
aI254
aI255
aI0
aI0
aI254
aI255
aI0
aI0
aI254
aI255
aI0
aI0
aI254
aI255
aI0
aI0
asVnum_bytes
p9
I51
ssVlen
p10
I97
sVorigin
p11
(lp12
I-166
aI-208
asVsize_pixels
p13
(lp14
I24
aI24
asVsize_units
p15
(lp16
I833
aI791
ass."
EndChar

StartChar: SF080000.001
Encoding: 146 -1 146
GlifName: S_F_080000.001
Width: 593
VWidth: 0
Flags: HW
LayerCount: 2
Back
SplineSet
289.791992188 -184.3203125 m 257
 222.208007812 -184.3203125 l 257
 222.208007812 860.16015625 l 257
 289.791992188 860.16015625 l 257
 289.791992188 371.711914062 l 257
 522.240234375 371.711914062 l 257
 522.240234375 304.127929688 l 257
 289.791992188 304.127929688 l 257
 289.791992188 -184.3203125 l 257
EndSplineSet
Fore
SplineSet
215 -174 m 257
 297 -174 l 257
 297 297 l 257
 512 297 l 257
 512 379 l 257
 297 379 l 257
 297 850 l 257
 215 850 l 257
 215 -174 l 257
EndSplineSet
Validated: 9
PickledDataWithLists: "(dp0
Vcom.fontlab.v5.background
p1
(dp2
Vdata
p3
(dp4
Vbytes
p5
(lp6
I255
aI63
aI255
aI0
aI255
aI63
aI255
aI0
aI255
aI63
aI255
aI0
aI255
aI63
aI255
aI0
aI255
aI63
aI255
aI0
aI255
aI63
aI255
aI0
aI255
aI63
aI255
aI0
aI255
aI63
aI255
aI0
aI255
aI63
aI255
aI0
aI255
aI63
aI255
aI0
aI255
aI63
aI255
aI0
aI255
aI0
aI255
aI0
aI255
aI0
aI255
aI0
aI255
aI63
aI255
aI0
aI255
aI63
aI255
aI0
aI255
aI63
aI255
aI0
aI255
aI63
aI255
aI0
aI255
aI63
aI255
aI0
aI255
aI63
aI255
aI0
aI255
aI63
aI255
aI0
aI255
aI63
aI255
aI0
aI255
aI63
aI255
aI0
aI255
aI63
aI255
aI0
aI255
aI63
aI255
asVextra
p7
(lp8
I0
asVnum_bytes
p9
I95
ssVlen
p10
I97
sVorigin
p11
(lp12
I-166
aI-208
asVsize_pixels
p13
(lp14
I24
aI24
asVsize_units
p15
(lp16
I833
aI791
ass."
EndChar

StartChar: SF090000.001
Encoding: 147 -1 147
GlifName: S_F_090000.001
Width: 593
VWidth: 0
Flags: HW
LayerCount: 2
Back
SplineSet
222.208007812 -184.3203125 m 257
 289.791992188 -184.3203125 l 257
 289.791992188 860.16015625 l 257
 222.208007812 860.16015625 l 257
 222.208007812 371.711914062 l 257
 -10.240234375 371.711914062 l 257
 -10.240234375 304.127929688 l 257
 222.208007812 304.127929688 l 257
 222.208007812 -184.3203125 l 257
EndSplineSet
Fore
SplineSet
297 850 m 257
 215 850 l 257
 215 379 l 257
 0 379 l 257
 0 297 l 257
 215 297 l 257
 215 -174 l 257
 297 -174 l 257
 297 850 l 257
EndSplineSet
Validated: 9
PickledDataWithLists: "(dp0
Vcom.fontlab.v5.background
p1
(dp2
Vdata
p3
(dp4
Vbytes
p5
(lp6
I255
aI252
aI255
aI0
aI255
aI252
aI255
aI0
aI255
aI252
aI255
aI0
aI255
aI252
aI255
aI0
aI255
aI252
aI255
aI0
aI255
aI252
aI255
aI0
aI255
aI252
aI255
aI0
aI255
aI252
aI255
aI0
aI255
aI252
aI255
aI0
aI255
aI252
aI255
aI0
aI255
aI252
aI255
aI0
aI254
aI0
aI255
aI0
aI254
aI0
aI255
aI0
aI255
aI252
aI255
aI0
aI255
aI252
aI255
aI0
aI255
aI252
aI255
aI0
aI255
aI252
aI255
aI0
aI255
aI252
aI255
aI0
aI255
aI252
aI255
aI0
aI255
aI252
aI255
aI0
aI255
aI252
aI255
aI0
aI255
aI252
aI255
aI0
aI255
aI252
aI255
aI0
aI255
aI252
aI255
asVextra
p7
(lp8
I0
asVnum_bytes
p9
I95
ssVlen
p10
I97
sVorigin
p11
(lp12
I-166
aI-208
asVsize_pixels
p13
(lp14
I24
aI24
asVsize_units
p15
(lp16
I833
aI791
ass."
EndChar

StartChar: SF100000.001
Encoding: 148 -1 148
GlifName: S_F_100000.001
Width: 593
VWidth: 0
Flags: HW
LayerCount: 2
Back
SplineSet
296.959960938 296.959960938 m 257
 512 296.959960938 l 257
 512 378.879882812 l 257
 296.959960938 378.879882812 l 1281
EndSplineSet
Fore
SplineSet
512 297 m 257
 512 379 l 257
 0 379 l 257
 0 297 l 257
 512 297 l 257
EndSplineSet
Validated: 9
PickledDataWithLists: "(dp0
Vcom.fontlab.v5.background
p1
(dp2
Vdata
p3
(dp4
Vbytes
p5
(lp6
I255
aI0
aI0
aI254
aI255
aI0
aI0
aI254
aI255
aI0
aI0
aI254
aI255
aI0
aI0
aI254
aI255
aI0
aI0
aI254
aI255
aI0
aI0
aI254
aI255
aI0
aI0
aI254
aI255
aI0
aI0
aI254
aI255
aI0
aI0
aI254
aI255
aI0
aI0
aI254
aI255
aI8
aI0
aI240
aI0
aI31
aI0
aI240
aI0
aI31
aI0
aI254
aI255
aI0
aI0
aI254
aI255
aI0
aI0
aI254
aI255
aI0
aI0
aI254
aI255
aI0
aI0
aI254
aI255
aI0
aI0
aI254
aI255
aI0
aI0
aI254
aI255
aI0
aI0
aI254
aI255
aI0
aI0
aI254
aI255
aI0
aI0
aI254
aI255
aI0
aI0
aI254
aI255
aI0
aI0
aI0
aI0
aI0
aI0
aI0
aI0
aI0
aI0
aI0
aI0
aI0
aI0
aI0
aI0
aI0
aI0
aI0
aI0
aI0
aI0
aI0
aI0
aI0
aI0
aI0
aI0
aI0
aI0
aI0
aI0
aI0
aI0
aI0
aI0
aI0
aI0
aI0
aI0
aI0
aI0
aI0
aI0
aI0
aI0
aI0
aI0
aI0
aI0
aI0
aI0
aI0
aI0
aI0
aI0
aI0
aI0
aI0
aI0
aI0
aI0
aI0
aI0
aI0
aI0
aI0
aI0
aI0
aI0
aI0
aI0
aI0
aI0
aI0
aI0
aI0
aI0
aI0
aI0
aI0
aI0
aI0
aI0
aI0
aI0
aI0
aI0
aI0
aI0
aI0
aI0
aI0
aI0
aI0
aI0
aI0
aI0
aI0
aI0
aI0
aI0
aI0
aI0
aI0
aI0
aI0
aI0
aI0
aI0
aI0
aI0
aI0
aI0
aI0
aI0
aI0
aI0
aI0
aI0
aI0
aI0
aI0
aI0
aI0
aI0
aI0
aI0
aI0
aI0
aI0
aI0
aI0
aI0
aI0
aI0
aI0
aI0
aI0
aI0
aI0
aI0
aI0
aI0
aI0
aI0
aI0
aI0
aI0
aI0
aI0
aI0
aI0
aI0
aI0
aI0
aI0
aI0
aI0
aI0
aI0
asVnum_bytes
p7
I254
ssVlen
p8
I96
sVorigin
p9
(lp10
I-166
aI-208
asVsize_pixels
p11
(lp12
I24
aI24
asVsize_units
p13
(lp14
I833
aI791
ass."
EndChar

StartChar: SF110000.001
Encoding: 149 -1 149
GlifName: S_F_110000.001
Width: 593
VWidth: 0
Flags: HW
LayerCount: 2
Back
SplineSet
222.208007812 -184.3203125 m 257
 289.791992188 -184.3203125 l 257
 289.791992188 860.16015625 l 257
 222.208007812 860.16015625 l 257
 222.208007812 -184.3203125 l 257
EndSplineSet
Fore
SplineSet
297 850 m 257
 215 850 l 257
 215 -174 l 257
 297 -174 l 257
 297 850 l 257
EndSplineSet
Validated: 9
PickledDataWithLists: "(dp0
Vcom.fontlab.v5.background
p1
(dp2
Vdata
p3
(dp4
Vbytes
p5
(lp6
I255
aI231
aI255
aI0
aI255
aI231
aI255
aI0
aI255
aI231
aI255
aI0
aI255
aI231
aI255
aI0
aI255
aI231
aI255
aI0
aI255
aI231
aI255
aI0
aI255
aI231
aI255
aI0
aI255
aI231
aI255
aI0
aI255
aI231
aI255
aI0
aI255
aI231
aI255
aI0
aI255
aI231
aI255
aI0
aI255
aI231
aI255
aI0
aI255
aI231
aI255
aI0
aI255
aI231
aI255
aI0
aI255
aI231
aI255
aI0
aI255
aI231
aI255
aI0
aI255
aI231
aI255
aI0
aI255
aI231
aI255
aI0
aI255
aI231
aI255
aI0
aI255
aI231
aI255
aI0
aI255
aI231
aI255
aI0
aI255
aI231
aI255
aI0
aI255
aI231
aI255
aI0
aI255
aI231
aI255
asVextra
p7
(lp8
I0
asVnum_bytes
p9
I95
ssVlen
p10
I97
sVorigin
p11
(lp12
I-166
aI-208
asVsize_pixels
p13
(lp14
I24
aI24
asVsize_units
p15
(lp16
I833
aI791
ass."
EndChar

StartChar: SF190000
Encoding: 150 9569 150
GlifName: S_F_190000
Width: 593
VWidth: 0
Flags: HW
LayerCount: 2
Back
SplineSet
296.959960938 849.919921875 m 257
 296.959960938 378.879882812 l 257
 0 378.879882812 l 257
 0 460.799804688 l 257
 215.040039062 460.799804688 l 257
 215.040039062 849.919921875 l 257
 296.959960938 849.919921875 l 257
215.040039062 -174.080078125 m 257
 215.040039062 215.040039062 l 257
 0 215.040039062 l 257
 0 296.959960938 l 257
 296.959960938 296.959960938 l 257
 296.959960938 -174.080078125 l 257
 215.040039062 -174.080078125 l 257
EndSplineSet
Fore
SplineSet
0 379 m 257
 297 379 l 257
 297 850 l 257
 215 850 l 257
 215 461 l 257
 0 461 l 257
 0 379 l 257
0 215 m 257
 215 215 l 257
 215 -174 l 257
 297 -174 l 257
 297 297 l 257
 0 297 l 257
 0 215 l 257
EndSplineSet
Validated: 9
EndChar

StartChar: SF200000
Encoding: 151 9570 151
GlifName: S_F_200000
Width: 593
VWidth: 0
Flags: HW
LayerCount: 2
Fore
SplineSet
215 850 m 257
 133 850 l 257
 133 379 l 257
 0 379 l 257
 0 297 l 257
 133 297 l 257
 133 -174 l 257
 215 -174 l 257
 215 850 l 257
379 850 m 257
 297 850 l 257
 297 -174 l 257
 379 -174 l 257
 379 850 l 257
EndSplineSet
Validated: 9
EndChar

StartChar: SF210000
Encoding: 152 9558 152
GlifName: S_F_210000
Width: 593
VWidth: 0
Flags: HW
LayerCount: 2
Back
SplineSet
296.959960938 -174.080078125 m 257
 296.959960938 378.879882812 l 257
 378.879882812 378.879882812 l 257
 378.879882812 -174.080078125 l 257
 296.959960938 -174.080078125 l 257
133.120117188 -174.080078125 m 257
 133.120117188 296.959960938 l 257
 0 296.959960938 l 257
 0 378.879882812 l 257
 215.040039062 378.879882812 l 257
 215.040039062 -174.080078125 l 257
 133.120117188 -174.080078125 l 257
EndSplineSet
Fore
SplineSet
0 297 m 257
 133 297 l 257
 133 -174 l 257
 215 -174 l 257
 215 379 l 257
 0 379 l 257
 0 297 l 257
297 -174 m 257
 379 -174 l 257
 379 379 l 257
 297 379 l 257
 297 -174 l 257
EndSplineSet
Validated: 9
EndChar

StartChar: SF220000
Encoding: 153 9557 153
GlifName: S_F_220000
Width: 593
VWidth: 0
Flags: HW
LayerCount: 2
Back
SplineSet
215.040039062 -174.080078125 m 257
 215.040039062 215.040039062 l 257
 0 215.040039062 l 257
 0 296.959960938 l 257
 296.959960938 296.959960938 l 257
 296.959960938 -174.080078125 l 257
 215.040039062 -174.080078125 l 257
296.959960938 378.879882812 m 257
 0 378.879882812 l 257
 0 460.799804688 l 257
 296.959960938 460.799804688 l 257
 296.959960938 378.879882812 l 257
0 460.799804688 m 257
 0 378.879882812 l 257
 296.959960938 378.879882812 l 257
 296.959960938 460.799804688 l 257
 0 460.799804688 l 257
EndSplineSet
Fore
SplineSet
0 215 m 257
 215 215 l 257
 215 -174 l 257
 297 -174 l 257
 297 297 l 257
 0 297 l 257
 0 215 l 257
0 379 m 257
 297 379 l 257
 297 461 l 257
 0 461 l 257
 0 379 l 257
EndSplineSet
Validated: 9
EndChar

StartChar: SF230000
Encoding: 154 9571 154
GlifName: S_F_230000
Width: 593
VWidth: 0
Flags: HW
LayerCount: 2
Fore
SplineSet
297 -174 m 257
 379 -174 l 257
 379 850 l 257
 297 850 l 257
 297 -174 l 257
0 379 m 257
 215 379 l 257
 215 850 l 257
 133 850 l 257
 133 461 l 257
 0 461 l 257
 0 379 l 257
0 215 m 257
 133 215 l 257
 133 -174 l 257
 215 -174 l 257
 215 297 l 257
 0 297 l 257
 0 215 l 257
EndSplineSet
Validated: 9
EndChar

StartChar: SF240000
Encoding: 155 9553 155
GlifName: S_F_240000
Width: 593
VWidth: 0
Flags: HW
LayerCount: 2
Fore
SplineSet
215 850 m 257
 133 850 l 257
 133 -174 l 257
 215 -174 l 257
 215 850 l 257
297 -174 m 257
 379 -174 l 257
 379 850 l 257
 297 850 l 257
 297 -174 l 257
EndSplineSet
Validated: 9
EndChar

StartChar: SF250000
Encoding: 156 9559 156
GlifName: S_F_250000
Width: 593
VWidth: 0
Flags: HW
LayerCount: 2
Fore
SplineSet
0 215 m 257
 133 215 l 257
 133 -174 l 257
 215 -174 l 257
 215 297 l 257
 0 297 l 257
 0 215 l 257
0 379 m 257
 297 379 l 257
 297 -174 l 257
 379 -174 l 257
 379 461 l 257
 0 461 l 257
 0 379 l 257
EndSplineSet
Validated: 9
EndChar

StartChar: SF260000
Encoding: 157 9565 157
GlifName: S_F_260000
Width: 593
VWidth: 0
Flags: HW
LayerCount: 2
Back
SplineSet
215.040039062 849.919921875 m 257
 215.040039062 378.879882812 l 257
 0 378.879882812 l 257
 0 460.799804688 l 257
 133.120117188 460.799804688 l 257
 133.120117188 849.919921875 l 257
 215.040039062 849.919921875 l 257
296.959960938 296.959960938 m 257
 296.959960938 849.919921875 l 257
 378.879882812 849.919921875 l 257
 378.879882812 215.040039062 l 257
 0 215.040039062 l 257
 0 296.959960938 l 257
 296.959960938 296.959960938 l 257
EndSplineSet
Fore
SplineSet
0 379 m 257
 215 379 l 257
 215 850 l 257
 133 850 l 257
 133 461 l 257
 0 461 l 257
 0 379 l 257
0 215 m 257
 379 215 l 257
 379 850 l 257
 297 850 l 257
 297 297 l 257
 0 297 l 257
 0 215 l 257
EndSplineSet
Validated: 9
EndChar

StartChar: SF270000
Encoding: 158 9564 158
GlifName: S_F_270000
Width: 593
VWidth: 0
Flags: HW
LayerCount: 2
Back
SplineSet
0 378.879882812 m 257
 0 296.959960938 l 257
 133.120117188 296.959960938 l 1281
EndSplineSet
Fore
SplineSet
0 297 m 257
 215 297 l 257
 215 850 l 257
 133 850 l 257
 133 379 l 257
 0 379 l 257
 0 297 l 257
297 297 m 257
 379 297 l 257
 379 850 l 257
 297 850 l 257
 297 297 l 257
EndSplineSet
Validated: 9
EndChar

StartChar: SF280000
Encoding: 159 9563 159
GlifName: S_F_280000
Width: 593
VWidth: 0
Flags: HW
LayerCount: 2
Back
SplineSet
296.959960938 849.919921875 m 257
 296.959960938 378.879882812 l 257
 0 378.879882812 l 257
 0 460.799804688 l 257
 215.040039062 460.799804688 l 257
 215.040039062 849.919921875 l 257
 296.959960938 849.919921875 l 257
296.959960938 215.040039062 m 257
 0 215.040039062 l 257
 0 296.959960938 l 257
 296.959960938 296.959960938 l 257
 296.959960938 215.040039062 l 257
0 215.040039062 m 257
 0 296.959960938 l 257
 296.959960938 296.959960938 l 257
 296.959960938 215.040039062 l 257
 0 215.040039062 l 257
0 296.959960938 m 257
 0 215.040039062 l 257
 296.959960938 215.040039062 l 257
 296.959960938 296.959960938 l 257
 0 296.959960938 l 257
EndSplineSet
Fore
SplineSet
0 379 m 257
 297 379 l 257
 297 850 l 257
 215 850 l 257
 215 461 l 257
 0 461 l 257
 0 379 l 257
0 215 m 257
 297 215 l 257
 297 297 l 257
 0 297 l 257
 0 215 l 257
EndSplineSet
Validated: 9
EndChar

StartChar: SF360000
Encoding: 160 9566 160
GlifName: S_F_360000
Width: 593
VWidth: 0
Flags: HW
LayerCount: 2
Fore
SplineSet
512 461 m 257
 297 461 l 257
 297 850 l 257
 215 850 l 257
 215 379 l 257
 512 379 l 257
 512 461 l 257
512 297 m 257
 215 297 l 257
 215 -174 l 257
 297 -174 l 257
 297 215 l 257
 512 215 l 257
 512 297 l 257
EndSplineSet
Validated: 9
EndChar

StartChar: SF370000
Encoding: 161 9567 161
GlifName: S_F_370000
Width: 593
VWidth: 0
Flags: HW
LayerCount: 2
Fore
SplineSet
297 -174 m 257
 379 -174 l 257
 379 297 l 257
 512 297 l 257
 512 379 l 257
 379 379 l 257
 379 850 l 257
 297 850 l 257
 297 -174 l 257
133 -174 m 257
 215 -174 l 257
 215 850 l 257
 133 850 l 257
 133 -174 l 257
EndSplineSet
Validated: 9
EndChar

StartChar: SF380000
Encoding: 162 9562 162
GlifName: S_F_380000
Width: 593
VWidth: 0
Flags: HW
LayerCount: 2
Back
SplineSet
378.879882812 849.919921875 m 257
 378.879882812 460.799804688 l 257
 512 460.799804688 l 257
 512 378.879882812 l 257
 296.959960938 378.879882812 l 257
 296.959960938 849.919921875 l 257
 378.879882812 849.919921875 l 257
512 296.959960938 m 257
 512 215.040039062 l 257
 133.120117188 215.040039062 l 257
 133.120117188 849.919921875 l 257
 215.040039062 849.919921875 l 257
 215.040039062 296.959960938 l 257
 512 296.959960938 l 257
EndSplineSet
Fore
SplineSet
512 461 m 257
 379 461 l 257
 379 850 l 257
 297 850 l 257
 297 379 l 257
 512 379 l 257
 512 461 l 257
512 297 m 257
 215 297 l 257
 215 850 l 257
 133 850 l 257
 133 215 l 257
 512 215 l 257
 512 297 l 257
EndSplineSet
Validated: 9
EndChar

StartChar: SF390000
Encoding: 163 9556 163
GlifName: S_F_390000
Width: 593
VWidth: 0
Flags: HW
LayerCount: 2
Fore
SplineSet
512 297 m 257
 297 297 l 257
 297 -174 l 257
 379 -174 l 257
 379 215 l 257
 512 215 l 257
 512 297 l 257
512 461 m 257
 133 461 l 257
 133 -174 l 257
 215 -174 l 257
 215 379 l 257
 512 379 l 257
 512 461 l 257
EndSplineSet
Validated: 9
EndChar

StartChar: SF400000
Encoding: 164 9577 164
GlifName: S_F_400000
Width: 593
VWidth: 0
Flags: HW
LayerCount: 2
Fore
SplineSet
0 297 m 257
 0 215 l 257
 512 215 l 257
 512 297 l 257
 0 297 l 257
0 379 m 257
 215 379 l 257
 215 850 l 257
 133 850 l 257
 133 461 l 257
 0 461 l 257
 0 379 l 257
512 461 m 257
 379 461 l 257
 379 850 l 257
 297 850 l 257
 297 379 l 257
 512 379 l 257
 512 461 l 257
EndSplineSet
Validated: 9
EndChar

StartChar: SF410000
Encoding: 165 9574 165
GlifName: S_F_410000
Width: 593
VWidth: 0
Flags: HW
LayerCount: 2
Fore
SplineSet
512 379 m 257
 512 461 l 257
 0 461 l 257
 0 379 l 257
 512 379 l 257
512 297 m 257
 297 297 l 257
 297 -174 l 257
 379 -174 l 257
 379 215 l 257
 512 215 l 257
 512 297 l 257
0 215 m 257
 133 215 l 257
 133 -174 l 257
 215 -174 l 257
 215 297 l 257
 0 297 l 257
 0 215 l 257
EndSplineSet
Validated: 9
EndChar

StartChar: SF420000
Encoding: 166 9568 166
GlifName: S_F_420000
Width: 593
VWidth: 0
Flags: HW
LayerCount: 2
Back
SplineSet
378.879882812 849.919921875 m 257
 378.879882812 460.799804688 l 257
 512 460.799804688 l 257
 512 378.879882812 l 257
 296.959960938 378.879882812 l 257
 296.959960938 849.919921875 l 257
 378.879882812 849.919921875 l 257
296.959960938 -174.080078125 m 257
 296.959960938 296.959960938 l 257
 512 296.959960938 l 257
 512 215.040039062 l 257
 378.879882812 215.040039062 l 257
 378.879882812 -174.080078125 l 257
 296.959960938 -174.080078125 l 257
EndSplineSet
Fore
SplineSet
215 850 m 257
 133 850 l 257
 133 -174 l 257
 215 -174 l 257
 215 850 l 257
512 461 m 257
 379 461 l 257
 379 850 l 257
 297 850 l 257
 297 379 l 257
 512 379 l 257
 512 461 l 257
512 297 m 257
 297 297 l 257
 297 -174 l 257
 379 -174 l 257
 379 215 l 257
 512 215 l 257
 512 297 l 257
EndSplineSet
Validated: 9
EndChar

StartChar: SF430000
Encoding: 167 9552 167
GlifName: S_F_430000
Width: 593
VWidth: 0
Flags: HW
LayerCount: 2
Fore
SplineSet
512 215 m 257
 512 297 l 257
 0 297 l 257
 0 215 l 257
 512 215 l 257
512 379 m 257
 512 461 l 257
 0 461 l 257
 0 379 l 257
 512 379 l 257
EndSplineSet
Validated: 9
EndChar

StartChar: SF440000
Encoding: 168 9580 168
GlifName: S_F_440000
Width: 593
VWidth: 0
Flags: HW
LayerCount: 2
Back
SplineSet
378.879882812 849.919921875 m 257
 378.879882812 460.799804688 l 257
 512 460.799804688 l 257
 512 378.879882812 l 257
 296.959960938 378.879882812 l 257
 296.959960938 849.919921875 l 257
 378.879882812 849.919921875 l 257
296.959960938 -174.080078125 m 257
 296.959960938 296.959960938 l 257
 512 296.959960938 l 257
 512 215.040039062 l 257
 378.879882812 215.040039062 l 257
 378.879882812 -174.080078125 l 257
 296.959960938 -174.080078125 l 257
215.040039062 849.919921875 m 257
 215.040039062 378.879882812 l 257
 0 378.879882812 l 257
 0 460.799804688 l 257
 133.120117188 460.799804688 l 257
 133.120117188 849.919921875 l 257
 215.040039062 849.919921875 l 257
133.120117188 -174.080078125 m 257
 133.120117188 215.040039062 l 257
 0 215.040039062 l 257
 0 296.959960938 l 257
 215.040039062 296.959960938 l 257
 215.040039062 -174.080078125 l 257
 133.120117188 -174.080078125 l 257
EndSplineSet
Fore
SplineSet
0 379 m 257
 215 379 l 257
 215 850 l 257
 133 850 l 257
 133 461 l 257
 0 461 l 257
 0 379 l 257
512 297 m 257
 297 297 l 257
 297 -174 l 257
 379 -174 l 257
 379 215 l 257
 512 215 l 257
 512 297 l 257
512 461 m 257
 379 461 l 257
 379 850 l 257
 297 850 l 257
 297 379 l 257
 512 379 l 257
 512 461 l 257
0 215 m 257
 133 215 l 257
 133 -174 l 257
 215 -174 l 257
 215 297 l 257
 0 297 l 257
 0 215 l 257
EndSplineSet
Validated: 9
EndChar

StartChar: SF450000
Encoding: 169 9575 169
GlifName: S_F_450000
Width: 593
VWidth: 0
Flags: HW
LayerCount: 2
Fore
SplineSet
512 379 m 257
 512 461 l 257
 297 461 l 257
 297 850 l 257
 215 850 l 257
 215 461 l 257
 0 461 l 257
 0 379 l 257
 512 379 l 257
0 297 m 257
 0 215 l 257
 512 215 l 257
 512 297 l 257
 0 297 l 257
EndSplineSet
Validated: 9
EndChar

StartChar: SF460000
Encoding: 170 9576 170
GlifName: S_F_460000
Width: 593
VWidth: 0
Flags: HW
LayerCount: 2
Fore
SplineSet
379 379 m 257
 379 850 l 257
 297 850 l 257
 297 379 l 257
 215 379 l 257
 215 850 l 257
 133 850 l 257
 133 379 l 257
 0 379 l 257
 0 297 l 257
 512 297 l 257
 512 379 l 257
 379 379 l 257
EndSplineSet
Validated: 9
EndChar

StartChar: SF470000
Encoding: 171 9572 171
GlifName: S_F_470000
Width: 593
VWidth: 0
Flags: HW
LayerCount: 2
Fore
SplineSet
0 297 m 257
 0 215 l 257
 215 215 l 257
 215 -174 l 257
 297 -174 l 257
 297 215 l 257
 512 215 l 257
 512 297 l 257
 0 297 l 257
512 379 m 257
 512 461 l 257
 0 461 l 257
 0 379 l 257
 512 379 l 257
EndSplineSet
Validated: 9
EndChar

StartChar: SF480000
Encoding: 172 9573 172
GlifName: S_F_480000
Width: 593
VWidth: 0
Flags: HW
LayerCount: 2
Fore
SplineSet
133 297 m 257
 133 -174 l 257
 215 -174 l 257
 215 297 l 257
 297 297 l 257
 297 -174 l 257
 379 -174 l 257
 379 297 l 257
 512 297 l 257
 512 379 l 257
 0 379 l 257
 0 297 l 257
 133 297 l 257
EndSplineSet
Validated: 9
EndChar

StartChar: SF490000
Encoding: 173 9561 173
GlifName: S_F_490000
Width: 593
VWidth: 0
Flags: HW
LayerCount: 2
Back
SplineSet
0 378.879882812 m 257
 0 296.959960938 l 257
 133.120117188 296.959960938 l 1281
EndSplineSet
Fore
SplineSet
512 379 m 257
 379 379 l 257
 379 850 l 257
 297 850 l 257
 297 297 l 257
 512 297 l 257
 512 379 l 257
215 850 m 257
 133 850 l 257
 133 297 l 257
 215 297 l 257
 215 850 l 257
EndSplineSet
Validated: 9
EndChar

StartChar: SF500000
Encoding: 174 9560 174
GlifName: S_F_500000
Width: 593
VWidth: 0
Flags: HW
LayerCount: 2
Back
SplineSet
296.959960938 849.919921875 m 257
 296.959960938 460.799804688 l 257
 512 460.799804688 l 257
 512 378.879882812 l 257
 215.040039062 378.879882812 l 257
 215.040039062 849.919921875 l 257
 296.959960938 849.919921875 l 257
215.040039062 296.959960938 m 257
 512 296.959960938 l 257
 512 215.040039062 l 257
 215.040039062 215.040039062 l 257
 215.040039062 296.959960938 l 257
215.040039062 215.040039062 m 257
 215.040039062 296.959960938 l 257
 512 296.959960938 l 257
 512 215.040039062 l 257
 215.040039062 215.040039062 l 257
215.040039062 296.959960938 m 257
 215.040039062 215.040039062 l 257
 512 215.040039062 l 257
 512 296.959960938 l 257
 215.040039062 296.959960938 l 257
EndSplineSet
Fore
SplineSet
512 461 m 257
 297 461 l 257
 297 850 l 257
 215 850 l 257
 215 379 l 257
 512 379 l 257
 512 461 l 257
215 215 m 257
 512 215 l 257
 512 297 l 257
 215 297 l 257
 215 215 l 257
EndSplineSet
Validated: 9
EndChar

StartChar: SF510000
Encoding: 175 9554 175
GlifName: S_F_510000
Width: 593
VWidth: 0
Flags: HW
LayerCount: 2
Back
SplineSet
215.040039062 -174.080078125 m 257
 215.040039062 296.959960938 l 257
 512 296.959960938 l 257
 512 215.040039062 l 257
 296.959960938 215.040039062 l 257
 296.959960938 -174.080078125 l 257
 215.040039062 -174.080078125 l 257
215.040039062 460.799804688 m 257
 512 460.799804688 l 257
 512 378.879882812 l 257
 215.040039062 378.879882812 l 257
 215.040039062 460.799804688 l 257
215.040039062 460.799804688 m 257
 215.040039062 378.879882812 l 257
 512 378.879882812 l 257
 512 460.799804688 l 257
 215.040039062 460.799804688 l 257
EndSplineSet
Fore
SplineSet
512 297 m 257
 215 297 l 257
 215 -174 l 257
 297 -174 l 257
 297 215 l 257
 512 215 l 257
 512 297 l 257
215 379 m 257
 512 379 l 257
 512 461 l 257
 215 461 l 257
 215 379 l 257
EndSplineSet
Validated: 9
EndChar

StartChar: SF520000
Encoding: 176 9555 176
GlifName: S_F_520000
Width: 593
VWidth: 0
Flags: HW
LayerCount: 2
Back
SplineSet
133.120117188 -174.080078125 m 257
 133.120117188 378.879882812 l 257
 215.040039062 378.879882812 l 257
 215.040039062 -174.080078125 l 257
 133.120117188 -174.080078125 l 257
296.959960938 -174.080078125 m 257
 296.959960938 378.879882812 l 257
 512 378.879882812 l 257
 512 296.959960938 l 257
 378.879882812 296.959960938 l 257
 378.879882812 -174.080078125 l 257
 296.959960938 -174.080078125 l 257
EndSplineSet
Fore
SplineSet
512 379 m 257
 297 379 l 257
 297 -174 l 257
 379 -174 l 257
 379 297 l 257
 512 297 l 257
 512 379 l 257
215 379 m 257
 133 379 l 257
 133 -174 l 257
 215 -174 l 257
 215 379 l 257
EndSplineSet
Validated: 9
EndChar

StartChar: SF530000
Encoding: 177 9579 177
GlifName: S_F_530000
Width: 593
VWidth: 0
Flags: HW
LayerCount: 2
Fore
SplineSet
379 850 m 257
 297 850 l 257
 297 379 l 257
 215 379 l 257
 215 850 l 257
 133 850 l 257
 133 379 l 257
 0 379 l 257
 0 297 l 257
 133 297 l 257
 133 -174 l 257
 215 -174 l 257
 215 297 l 257
 297 297 l 257
 297 -174 l 257
 379 -174 l 257
 379 297 l 257
 512 297 l 257
 512 379 l 257
 379 379 l 257
 379 850 l 257
EndSplineSet
Validated: 9
PickledDataWithLists: "(dp0
Vcom.fontlab.v5.background
p1
(dp2
Vdata
p3
(dp4
Vbytes
p5
(lp6
I255
aI153
aI255
aI0
aI255
aI153
aI255
aI0
aI255
aI153
aI255
aI0
aI255
aI153
aI255
aI0
aI255
aI153
aI255
aI0
aI255
aI153
aI255
aI0
aI255
aI153
aI255
aI0
aI255
aI153
aI255
aI0
aI255
aI153
aI255
aI0
aI255
aI153
aI255
aI0
aI255
aI153
aI255
aI0
aI240
aI0
aI31
aI0
aI240
aI0
aI31
aI0
aI255
aI153
aI255
aI0
aI255
aI153
aI255
aI0
aI255
aI153
aI255
aI0
aI255
aI153
aI255
aI0
aI255
aI153
aI255
aI0
aI255
aI153
aI255
aI0
aI255
aI153
aI255
aI0
aI255
aI153
aI255
aI0
aI255
aI153
aI255
aI0
aI255
aI153
aI255
aI0
aI255
aI153
aI255
asVextra
p7
(lp8
I0
asVnum_bytes
p9
I95
ssVlen
p10
I97
sVorigin
p11
(lp12
I-166
aI-208
asVsize_pixels
p13
(lp14
I24
aI24
asVsize_units
p15
(lp16
I833
aI791
ass."
EndChar

StartChar: SF530000.001
Encoding: 178 -1 178
GlifName: S_F_530000.001
Width: 593
VWidth: 0
Flags: HW
LayerCount: 2
Fore
SplineSet
215 850 m 257
 133 850 l 257
 133 379 l 257
 0 379 l 257
 0 297 l 257
 133 297 l 257
 133 -174 l 257
 215 -174 l 257
 215 850 l 257
297 -174 m 257
 379 -174 l 257
 379 297 l 257
 512 297 l 257
 512 379 l 257
 379 379 l 257
 379 850 l 257
 297 850 l 257
 297 -174 l 257
EndSplineSet
Validated: 9
PickledDataWithLists: "(dp0
Vcom.fontlab.v5.background
p1
(dp2
Vdata
p3
(dp4
Vbytes
p5
(lp6
I255
aI153
aI255
aI0
aI255
aI153
aI255
aI0
aI255
aI153
aI255
aI0
aI255
aI153
aI255
aI0
aI255
aI153
aI255
aI0
aI255
aI153
aI255
aI0
aI255
aI153
aI255
aI0
aI255
aI153
aI255
aI0
aI255
aI153
aI255
aI0
aI255
aI153
aI255
aI0
aI255
aI153
aI255
aI0
aI240
aI0
aI31
aI0
aI240
aI0
aI31
aI0
aI255
aI153
aI255
aI0
aI255
aI153
aI255
aI0
aI255
aI153
aI255
aI0
aI255
aI153
aI255
aI0
aI255
aI153
aI255
aI0
aI255
aI153
aI255
aI0
aI255
aI153
aI255
aI0
aI255
aI153
aI255
aI0
aI255
aI153
aI255
aI0
aI255
aI153
aI255
aI0
aI255
aI153
aI255
asVextra
p7
(lp8
I0
asVnum_bytes
p9
I95
ssVlen
p10
I97
sVorigin
p11
(lp12
I-166
aI-208
asVsize_pixels
p13
(lp14
I24
aI24
asVsize_units
p15
(lp16
I833
aI791
ass."
EndChar

StartChar: SF540000
Encoding: 179 9578 179
GlifName: S_F_540000
Width: 593
VWidth: 0
Flags: HW
LayerCount: 2
Fore
SplineSet
297 297 m 257
 297 379 l 257
 512 379 l 257
 512 461 l 257
 297 461 l 257
 297 850 l 257
 215 850 l 257
 215 461 l 257
 0 461 l 257
 0 379 l 257
 215 379 l 257
 215 297 l 257
 0 297 l 257
 0 215 l 257
 215 215 l 257
 215 -174 l 257
 297 -174 l 257
 297 215 l 257
 512 215 l 257
 512 297 l 257
 297 297 l 257
EndSplineSet
Validated: 9
PickledDataWithLists: "(dp0
Vcom.fontlab.v5.background
p1
(dp2
Vdata
p3
(dp4
Vbytes
p5
(lp6
I255
aI231
aI255
aI0
aI255
aI231
aI255
aI0
aI255
aI231
aI255
aI0
aI255
aI231
aI255
aI0
aI255
aI231
aI255
aI0
aI255
aI231
aI255
aI0
aI255
aI231
aI255
aI0
aI255
aI231
aI255
aI0
aI255
aI231
aI255
aI0
aI240
aI0
aI31
aI0
aI240
aI0
aI31
aI0
aI255
aI231
aI255
aI0
aI255
aI231
aI255
aI0
aI240
aI0
aI31
aI0
aI240
aI0
aI31
aI0
aI255
aI231
aI255
aI0
aI255
aI231
aI255
aI0
aI255
aI231
aI255
aI0
aI255
aI231
aI255
aI0
aI255
aI231
aI255
aI0
aI255
aI231
aI255
aI0
aI255
aI231
aI255
aI0
aI255
aI231
aI255
aI0
aI255
aI231
aI255
asVextra
p7
(lp8
I0
asVnum_bytes
p9
I95
ssVlen
p10
I97
sVorigin
p11
(lp12
I-166
aI-208
asVsize_pixels
p13
(lp14
I24
aI24
asVsize_units
p15
(lp16
I833
aI791
ass."
EndChar

StartChar: SF540000.001
Encoding: 180 -1 180
GlifName: S_F_540000.001
Width: 593
VWidth: 0
Flags: HW
LayerCount: 2
Fore
SplineSet
512 379 m 257
 512 461 l 257
 297 461 l 257
 297 850 l 257
 215 850 l 257
 215 461 l 257
 0 461 l 257
 0 379 l 257
 512 379 l 257
0 297 m 257
 0 215 l 257
 215 215 l 257
 215 -174 l 257
 297 -174 l 257
 297 215 l 257
 512 215 l 257
 512 297 l 257
 0 297 l 257
EndSplineSet
Validated: 9
PickledDataWithLists: "(dp0
Vcom.fontlab.v5.background
p1
(dp2
Vdata
p3
(dp4
Vbytes
p5
(lp6
I255
aI231
aI255
aI0
aI255
aI231
aI255
aI0
aI255
aI231
aI255
aI0
aI255
aI231
aI255
aI0
aI255
aI231
aI255
aI0
aI255
aI231
aI255
aI0
aI255
aI231
aI255
aI0
aI255
aI231
aI255
aI0
aI255
aI231
aI255
aI0
aI240
aI0
aI31
aI0
aI240
aI0
aI31
aI0
aI255
aI231
aI255
aI0
aI255
aI231
aI255
aI0
aI240
aI0
aI31
aI0
aI240
aI0
aI31
aI0
aI255
aI231
aI255
aI0
aI255
aI231
aI255
aI0
aI255
aI231
aI255
aI0
aI255
aI231
aI255
aI0
aI255
aI231
aI255
aI0
aI255
aI231
aI255
aI0
aI255
aI231
aI255
aI0
aI255
aI231
aI255
aI0
aI255
aI231
aI255
asVextra
p7
(lp8
I0
asVnum_bytes
p9
I95
ssVlen
p10
I97
sVorigin
p11
(lp12
I-166
aI-208
asVsize_pixels
p13
(lp14
I24
aI24
asVsize_units
p15
(lp16
I833
aI791
ass."
EndChar

StartChar: Scedilla
Encoding: 183 350 183
GlifName: S_cedilla
Width: 593
VWidth: 0
Flags: HW
LayerCount: 2
Fore
SplineSet
281 -11 m 257
 394 0 456 61 456 159 c 256
 456 278 384 314 281 358 c 256
 210 389 156 413 156 483 c 256
 156 543 208 575 269 575 c 256
 327 575 378 555 406 539 c 257
 432 609 l 257
 404 628 339 648 269 648 c 256
 145 648 72 582 72 472 c 256
 72 372 146 329 228 295 c 257
 299 267 372 237 372 158 c 256
 372 93 325 59 240 59 c 256
 164 59 109 85 82 100 c 257
 56 31 l 257
 80 17 139 -9 221 -13 c 257
 213 -29 205 -50 200 -63 c 257
 207 -66 l 258
 232 -73 245 -83 245 -97 c 256
 245 -109 235 -118 212 -118 c 256
 192 -118 175 -114 161 -109 c 257
 151 -161 l 257
 166 -167 194 -173 226 -173 c 256
 297 -173 319 -133 319 -106 c 256
 319 -67 304 -50 269 -34 c 257
 281 -11 l 257
EndSplineSet
Validated: 9
PickledDataWithLists: "(dp0
Vcom.fontlab.v5.background
p1
(dp2
Vdata
p3
(dp4
Vbytes
p5
(lp6
I255
aI0
aI0
aI254
aI255
aI0
aI0
aI254
aI255
aI0
aI0
aI254
aI255
aI60
aI0
aI255
aI131
aI255
aI0
aI255
aI1
aI255
aI0
aI254
aI61
aI255
aI0
aI254
aI127
aI255
aI0
aI254
aI127
aI255
aI0
aI255
aI31
aI255
aI0
aI255
aI143
aI255
aI0
aI255
aI195
aI255
aI0
aI255
aI241
aI255
aI0
aI255
aI248
aI255
aI0
aI255
aI252
aI255
aI0
aI255
aI252
aI255
aI0
aI254
aI248
aI255
aI0
aI254
aI1
aI255
aI0
aI255
aI7
aI255
aI0
aI254
aI255
aI16
aI0
aI255
aI231
aI255
aI0
aI255
aI231
aI255
aI0
aI255
aI247
aI255
aI0
aI255
aI239
aI255
aI0
aI0
aI0
aI0
aI0
aI0
aI0
aI0
aI0
aI0
aI0
aI0
aI0
aI0
aI0
aI0
aI0
aI0
aI0
aI0
aI0
aI0
aI0
aI0
aI0
aI0
aI0
aI0
aI0
aI0
aI0
aI0
aI0
aI0
aI0
aI0
aI0
aI0
aI0
aI0
aI0
aI0
aI0
aI0
aI0
aI0
aI0
aI0
aI0
aI0
aI0
aI0
aI0
aI0
aI0
aI0
aI0
aI0
aI0
aI0
aI0
aI0
aI0
aI0
aI0
aI0
aI0
aI0
aI0
aI0
aI0
aI0
aI0
aI0
aI0
aI0
aI0
aI0
aI0
aI0
aI0
aI0
aI0
aI0
aI0
aI0
aI0
aI0
aI0
aI0
aI0
aI0
aI0
aI0
aI0
aI0
aI0
aI0
aI0
aI0
aI0
aI0
aI0
aI0
aI0
aI0
aI0
aI0
aI0
aI0
aI0
aI0
aI0
aI0
aI0
aI0
aI0
aI0
aI0
aI0
aI0
aI0
aI0
aI0
aI0
aI0
aI0
aI0
aI0
aI0
aI0
aI0
aI0
aI0
aI0
aI0
aI0
aI0
aI0
aI0
aI0
aI0
aI0
aI0
aI0
aI0
aI0
aI0
aI0
aI0
aI0
aI0
aI0
aI0
aI0
aI0
aI0
aI0
aI0
aI0
asVnum_bytes
p7
I254
ssVlen
p8
I96
sVorigin
p9
(lp10
I-166
aI-208
asVsize_pixels
p11
(lp12
I24
aI24
asVsize_units
p13
(lp14
I833
aI791
ass."
EndChar

StartChar: Sigma
Encoding: 186 931 186
GlifName: S_igma
Width: 593
VWidth: 0
Flags: HW
LayerCount: 2
Fore
SplineSet
333 330 m 257
 267 416 193 511 158 562 c 257
 457 562 l 257
 457 634 l 257
 54 634 l 257
 54 578 l 257
 95 518 169 422 240 329 c 257
 167 235 87 142 41 67 c 257
 41 0 l 257
 458 0 l 257
 458 72 l 257
 131 72 l 257
 188 153 266 243 333 330 c 257
EndSplineSet
Validated: 9
PickledDataWithLists: "(dp0
Vcom.fontlab.v5.background
p1
(dp2
Vdata
p3
(dp4
Vbytes
p5
(lp6
I255
aI0
aI0
aI254
aI255
aI0
aI0
aI254
aI255
aI0
aI0
aI254
aI255
aI60
aI0
aI254
aI0
aI255
aI0
aI254
aI0
aI255
aI0
aI255
aI63
aI255
aI0
aI255
aI63
aI255
aI0
aI255
aI159
aI255
aI0
aI255
aI207
aI255
aI0
aI255
aI231
aI255
aI0
aI255
aI243
aI255
aI0
aI255
aI231
aI255
aI0
aI255
aI207
aI255
aI0
aI255
aI159
aI255
aI0
aI255
aI63
aI255
aI0
aI254
aI127
aI255
aI0
aI254
aI0
aI255
aI0
aI254
aI0
aI255
aI0
aI254
aI255
aI0
aI0
aI254
aI255
aI0
aI0
aI254
aI255
aI0
aI0
aI254
aI255
aI0
aI0
aI254
aI255
aI0
aI0
aI0
aI0
aI0
aI0
aI0
aI0
aI0
aI0
aI0
aI0
aI0
aI0
aI0
aI0
aI0
aI0
aI0
aI0
aI0
aI0
aI0
aI0
aI0
aI0
aI0
aI0
aI0
aI0
aI0
aI0
aI0
aI0
aI0
aI0
aI0
aI0
aI0
aI0
aI0
aI0
aI0
aI0
aI0
aI0
aI0
aI0
aI0
aI0
aI0
aI0
aI0
aI0
aI0
aI0
aI0
aI0
aI0
aI0
aI0
aI0
aI0
aI0
aI0
aI0
aI0
aI0
aI0
aI0
aI0
aI0
aI0
aI0
aI0
aI0
aI0
aI0
aI0
aI0
aI0
aI0
aI0
aI0
aI0
aI0
aI0
aI0
aI0
aI0
aI0
aI0
aI0
aI0
aI0
aI0
aI0
aI0
aI0
aI0
aI0
aI0
aI0
aI0
aI0
aI0
aI0
aI0
aI0
aI0
aI0
aI0
aI0
aI0
aI0
aI0
aI0
aI0
aI0
aI0
aI0
aI0
aI0
aI0
aI0
aI0
aI0
aI0
aI0
aI0
aI0
aI0
aI0
aI0
aI0
aI0
aI0
aI0
aI0
aI0
aI0
aI0
aI0
aI0
aI0
aI0
aI0
aI0
aI0
aI0
aI0
aI0
aI0
aI0
aI0
aI0
aI0
aI0
aI0
aI0
aI0
asVnum_bytes
p7
I254
ssVlen
p8
I96
sVorigin
p9
(lp10
I-166
aI-208
asVsize_pixels
p11
(lp12
I24
aI24
asVsize_units
p13
(lp14
I833
aI791
ass."
EndChar

StartChar: T
Encoding: 188 84 188
GlifName: T_
Width: 593
VWidth: 0
Flags: HW
LayerCount: 2
Fore
SplineSet
40 634 m 257
 40 562 l 257
 214 562 l 257
 214 0 l 257
 298 0 l 257
 298 562 l 257
 472 562 l 257
 472 634 l 257
 40 634 l 257
EndSplineSet
Validated: 9
PickledDataWithLists: "(dp0
Vcom.fontlab.v5.background
p1
(dp2
Vdata
p3
(dp4
Vbytes
p5
(lp6
I255
aI0
aI0
aI254
aI255
aI0
aI0
aI254
aI255
aI0
aI0
aI254
aI255
aI60
aI0
aI252
aI0
aI63
aI0
aI252
aI0
aI63
aI0
aI255
aI231
aI255
aI0
aI255
aI231
aI255
aI0
aI255
aI231
aI255
aI0
aI255
aI231
aI255
aI0
aI255
aI231
aI255
aI0
aI255
aI231
aI255
aI0
aI255
aI231
aI255
aI0
aI255
aI231
aI255
aI0
aI255
aI231
aI255
aI0
aI255
aI231
aI255
aI0
aI255
aI231
aI255
aI0
aI255
aI231
aI255
aI0
aI255
aI231
aI255
aI0
aI254
aI255
aI0
aI0
aI254
aI255
aI0
aI0
aI254
aI255
aI0
aI0
aI254
aI255
aI0
aI0
aI254
aI255
aI0
aI0
aI0
aI0
aI0
aI0
aI0
aI0
aI0
aI0
aI0
aI0
aI0
aI0
aI0
aI0
aI0
aI0
aI0
aI0
aI0
aI0
aI0
aI0
aI0
aI0
aI0
aI0
aI0
aI0
aI0
aI0
aI0
aI0
aI0
aI0
aI0
aI0
aI0
aI0
aI0
aI0
aI0
aI0
aI0
aI0
aI0
aI0
aI0
aI0
aI0
aI0
aI0
aI0
aI0
aI0
aI0
aI0
aI0
aI0
aI0
aI0
aI0
aI0
aI0
aI0
aI0
aI0
aI0
aI0
aI0
aI0
aI0
aI0
aI0
aI0
aI0
aI0
aI0
aI0
aI0
aI0
aI0
aI0
aI0
aI0
aI0
aI0
aI0
aI0
aI0
aI0
aI0
aI0
aI0
aI0
aI0
aI0
aI0
aI0
aI0
aI0
aI0
aI0
aI0
aI0
aI0
aI0
aI0
aI0
aI0
aI0
aI0
aI0
aI0
aI0
aI0
aI0
aI0
aI0
aI0
aI0
aI0
aI0
aI0
aI0
aI0
aI0
aI0
aI0
aI0
aI0
aI0
aI0
aI0
aI0
aI0
aI0
aI0
aI0
aI0
aI0
aI0
aI0
aI0
aI0
aI0
aI0
aI0
aI0
aI0
aI0
aI0
aI0
aI0
aI0
aI0
aI0
aI0
aI0
aI0
asVnum_bytes
p7
I254
ssVlen
p8
I96
sVorigin
p9
(lp10
I-101
aI-209
asVsize_pixels
p11
(lp12
I24
aI24
asVsize_units
p13
(lp14
I898
aI790
ass."
EndChar

StartChar: Tau
Encoding: 189 932 189
GlifName: T_au
Width: 593
VWidth: 0
Flags: HW
LayerCount: 2
Fore
SplineSet
37 634 m 257
 37 562 l 257
 214 562 l 257
 214 0 l 257
 298 0 l 257
 298 562 l 257
 475 562 l 257
 475 634 l 257
 37 634 l 257
EndSplineSet
Validated: 9
PickledDataWithLists: "(dp0
Vcom.fontlab.v5.background
p1
(dp2
Vdata
p3
(dp4
Vbytes
p5
(lp6
I255
aI0
aI0
aI254
aI255
aI0
aI0
aI254
aI255
aI0
aI0
aI254
aI255
aI60
aI0
aI252
aI0
aI63
aI0
aI252
aI0
aI63
aI0
aI255
aI231
aI255
aI0
aI255
aI231
aI255
aI0
aI255
aI231
aI255
aI0
aI255
aI231
aI255
aI0
aI255
aI231
aI255
aI0
aI255
aI231
aI255
aI0
aI255
aI231
aI255
aI0
aI255
aI231
aI255
aI0
aI255
aI231
aI255
aI0
aI255
aI231
aI255
aI0
aI255
aI231
aI255
aI0
aI255
aI231
aI255
aI0
aI255
aI231
aI255
aI0
aI254
aI255
aI0
aI0
aI254
aI255
aI0
aI0
aI254
aI255
aI0
aI0
aI254
aI255
aI0
aI0
aI254
aI255
aI0
aI0
aI0
aI0
aI0
aI0
aI0
aI0
aI0
aI0
aI0
aI0
aI0
aI0
aI0
aI0
aI0
aI0
aI0
aI0
aI0
aI0
aI0
aI0
aI0
aI0
aI0
aI0
aI0
aI0
aI0
aI0
aI0
aI0
aI0
aI0
aI0
aI0
aI0
aI0
aI0
aI0
aI0
aI0
aI0
aI0
aI0
aI0
aI0
aI0
aI0
aI0
aI0
aI0
aI0
aI0
aI0
aI0
aI0
aI0
aI0
aI0
aI0
aI0
aI0
aI0
aI0
aI0
aI0
aI0
aI0
aI0
aI0
aI0
aI0
aI0
aI0
aI0
aI0
aI0
aI0
aI0
aI0
aI0
aI0
aI0
aI0
aI0
aI0
aI0
aI0
aI0
aI0
aI0
aI0
aI0
aI0
aI0
aI0
aI0
aI0
aI0
aI0
aI0
aI0
aI0
aI0
aI0
aI0
aI0
aI0
aI0
aI0
aI0
aI0
aI0
aI0
aI0
aI0
aI0
aI0
aI0
aI0
aI0
aI0
aI0
aI0
aI0
aI0
aI0
aI0
aI0
aI0
aI0
aI0
aI0
aI0
aI0
aI0
aI0
aI0
aI0
aI0
aI0
aI0
aI0
aI0
aI0
aI0
aI0
aI0
aI0
aI0
aI0
aI0
aI0
aI0
aI0
aI0
aI0
aI0
asVnum_bytes
p7
I254
ssVlen
p8
I96
sVorigin
p9
(lp10
I-166
aI-208
asVsize_pixels
p11
(lp12
I24
aI24
asVsize_units
p13
(lp14
I833
aI791
ass."
EndChar

StartChar: Tbar
Encoding: 190 358 190
GlifName: T_bar
Width: 593
VWidth: 0
Flags: HW
LayerCount: 2
Fore
SplineSet
40 634 m 257
 40 562 l 257
 214 562 l 257
 214 357 l 257
 92 357 l 257
 92 292 l 257
 214 292 l 257
 214 0 l 257
 298 0 l 257
 298 292 l 257
 419 292 l 257
 419 357 l 257
 298 357 l 257
 298 562 l 257
 472 562 l 257
 472 634 l 257
 40 634 l 257
EndSplineSet
Validated: 9
PickledDataWithLists: "(dp0
Vcom.fontlab.v5.background
p1
(dp2
Vdata
p3
(dp4
Vbytes
p5
(lp6
I255
aI0
aI0
aI254
aI255
aI0
aI0
aI254
aI255
aI0
aI0
aI254
aI255
aI60
aI0
aI252
aI0
aI63
aI0
aI252
aI0
aI63
aI0
aI255
aI231
aI255
aI0
aI255
aI231
aI255
aI0
aI255
aI231
aI255
aI0
aI254
aI0
aI127
aI0
aI254
aI0
aI127
aI0
aI255
aI231
aI255
aI0
aI255
aI231
aI255
aI0
aI255
aI231
aI255
aI0
aI255
aI231
aI255
aI0
aI255
aI231
aI255
aI0
aI255
aI231
aI255
aI0
aI255
aI231
aI255
aI0
aI255
aI231
aI255
aI0
aI254
aI255
aI0
aI0
aI254
aI255
aI0
aI0
aI254
aI255
aI0
aI0
aI254
aI255
aI0
aI0
aI254
aI255
aI0
aI0
aI0
aI0
aI0
aI0
aI0
aI0
aI0
aI0
aI0
aI0
aI0
aI0
aI0
aI0
aI0
aI0
aI0
aI0
aI0
aI0
aI0
aI0
aI0
aI0
aI0
aI0
aI0
aI0
aI0
aI0
aI0
aI0
aI0
aI0
aI0
aI0
aI0
aI0
aI0
aI0
aI0
aI0
aI0
aI0
aI0
aI0
aI0
aI0
aI0
aI0
aI0
aI0
aI0
aI0
aI0
aI0
aI0
aI0
aI0
aI0
aI0
aI0
aI0
aI0
aI0
aI0
aI0
aI0
aI0
aI0
aI0
aI0
aI0
aI0
aI0
aI0
aI0
aI0
aI0
aI0
aI0
aI0
aI0
aI0
aI0
aI0
aI0
aI0
aI0
aI0
aI0
aI0
aI0
aI0
aI0
aI0
aI0
aI0
aI0
aI0
aI0
aI0
aI0
aI0
aI0
aI0
aI0
aI0
aI0
aI0
aI0
aI0
aI0
aI0
aI0
aI0
aI0
aI0
aI0
aI0
aI0
aI0
aI0
aI0
aI0
aI0
aI0
aI0
aI0
aI0
aI0
aI0
aI0
aI0
aI0
aI0
aI0
aI0
aI0
aI0
aI0
aI0
aI0
aI0
aI0
aI0
aI0
aI0
aI0
aI0
aI0
aI0
aI0
aI0
aI0
aI0
aI0
aI0
aI0
asVnum_bytes
p7
I254
ssVlen
p8
I96
sVorigin
p9
(lp10
I-166
aI-208
asVsize_pixels
p11
(lp12
I24
aI24
asVsize_units
p13
(lp14
I833
aI791
ass."
EndChar

StartChar: Theta
Encoding: 192 920 192
GlifName: T_heta
Width: 593
VWidth: 0
Flags: HW
LayerCount: 2
Fore
SplineSet
179 283 m 257
 335 283 l 257
 335 355 l 257
 179 355 l 257
 179 283 l 257
30 317 m 256
 30 90 121 -13 256 -13 c 256
 390 -13 483 90 483 317 c 256
 483 543 390 648 256 648 c 256
 121 648 30 543 30 317 c 256
116 317 m 256
 116 483 160 575 254 575 c 256
 349 575 397 483 397 317 c 256
 397 151 349 59 254 59 c 256
 160 59 116 151 116 317 c 256
EndSplineSet
Validated: 9
PickledDataWithLists: "(dp0
Vcom.fontlab.v5.background
p1
(dp2
Vdata
p3
(dp4
Vbytes
p5
(lp6
I255
aI0
aI0
aI254
aI255
aI0
aI0
aI254
aI255
aI0
aI0
aI254
aI255
aI60
aI0
aI255
aI199
aI255
aI0
aI255
aI1
aI255
aI0
aI255
aI57
aI255
aI0
aI254
aI56
aI255
aI0
aI254
aI124
aI255
aI0
aI254
aI124
aI255
aI0
aI254
aI124
aI255
aI0
aI254
aI68
aI255
aI0
aI254
aI68
aI255
aI0
aI254
aI124
aI255
aI0
aI254
aI124
aI255
aI0
aI254
aI56
aI255
aI0
aI255
aI57
aI255
aI0
aI255
aI1
aI255
aI0
aI255
aI199
aI255
aI0
aI254
aI255
aI0
aI0
aI254
aI255
aI0
aI0
aI254
aI255
aI0
aI0
aI254
aI255
aI0
aI0
aI254
aI255
aI0
aI0
aI0
aI0
aI0
aI0
aI0
aI0
aI0
aI0
aI0
aI0
aI0
aI0
aI0
aI0
aI0
aI0
aI0
aI0
aI0
aI0
aI0
aI0
aI0
aI0
aI0
aI0
aI0
aI0
aI0
aI0
aI0
aI0
aI0
aI0
aI0
aI0
aI0
aI0
aI0
aI0
aI0
aI0
aI0
aI0
aI0
aI0
aI0
aI0
aI0
aI0
aI0
aI0
aI0
aI0
aI0
aI0
aI0
aI0
aI0
aI0
aI0
aI0
aI0
aI0
aI0
aI0
aI0
aI0
aI0
aI0
aI0
aI0
aI0
aI0
aI0
aI0
aI0
aI0
aI0
aI0
aI0
aI0
aI0
aI0
aI0
aI0
aI0
aI0
aI0
aI0
aI0
aI0
aI0
aI0
aI0
aI0
aI0
aI0
aI0
aI0
aI0
aI0
aI0
aI0
aI0
aI0
aI0
aI0
aI0
aI0
aI0
aI0
aI0
aI0
aI0
aI0
aI0
aI0
aI0
aI0
aI0
aI0
aI0
aI0
aI0
aI0
aI0
aI0
aI0
aI0
aI0
aI0
aI0
aI0
aI0
aI0
aI0
aI0
aI0
aI0
aI0
aI0
aI0
aI0
aI0
aI0
aI0
aI0
aI0
aI0
aI0
aI0
aI0
aI0
aI0
aI0
aI0
aI0
aI0
asVnum_bytes
p7
I254
ssVlen
p8
I96
sVorigin
p9
(lp10
I-166
aI-208
asVsize_pixels
p11
(lp12
I24
aI24
asVsize_units
p13
(lp14
I833
aI791
ass."
EndChar

StartChar: Thorn
Encoding: 193 222 193
GlifName: T_horn
Width: 593
VWidth: 0
Flags: HW
LayerCount: 2
Fore
SplineSet
75 0 m 257
 159 0 l 257
 159 131 l 257
 215 131 l 258
 367 131 466 188 466 348 c 256
 466 468 378 531 221 531 c 256
 201 531 181 530 159 528 c 257
 159 634 l 257
 75 634 l 257
 75 0 l 257
234 458 m 256
 306 458 380 435 380 344 c 256
 380 233 314 202 218 202 c 258
 159 202 l 257
 159 457 l 257
 177 458 200 458 234 458 c 256
EndSplineSet
Validated: 9
PickledDataWithLists: "(dp0
Vcom.fontlab.v5.background
p1
(dp2
Vdata
p3
(dp4
Vbytes
p5
(lp6
I255
aI0
aI0
aI254
aI255
aI0
aI0
aI254
aI255
aI0
aI0
aI254
aI255
aI60
aI0
aI254
aI127
aI255
aI0
aI254
aI127
aI255
aI0
aI254
aI127
aI255
aI0
aI254
aI3
aI255
aI0
aI254
aI1
aI255
aI0
aI254
aI120
aI255
aI0
aI254
aI124
aI255
aI0
aI254
aI124
aI255
aI0
aI254
aI120
aI255
aI0
aI254
aI1
aI255
aI0
aI254
aI3
aI255
aI0
aI254
aI127
aI255
aI0
aI254
aI127
aI255
aI0
aI254
aI127
aI255
aI0
aI254
aI127
aI255
aI0
aI254
aI255
aI0
aI0
aI254
aI255
aI0
aI0
aI254
aI255
aI0
aI0
aI254
aI255
aI0
aI0
aI254
aI255
aI0
aI0
aI0
aI0
aI0
aI0
aI0
aI0
aI0
aI0
aI0
aI0
aI0
aI0
aI0
aI0
aI0
aI0
aI0
aI0
aI0
aI0
aI0
aI0
aI0
aI0
aI0
aI0
aI0
aI0
aI0
aI0
aI0
aI0
aI0
aI0
aI0
aI0
aI0
aI0
aI0
aI0
aI0
aI0
aI0
aI0
aI0
aI0
aI0
aI0
aI0
aI0
aI0
aI0
aI0
aI0
aI0
aI0
aI0
aI0
aI0
aI0
aI0
aI0
aI0
aI0
aI0
aI0
aI0
aI0
aI0
aI0
aI0
aI0
aI0
aI0
aI0
aI0
aI0
aI0
aI0
aI0
aI0
aI0
aI0
aI0
aI0
aI0
aI0
aI0
aI0
aI0
aI0
aI0
aI0
aI0
aI0
aI0
aI0
aI0
aI0
aI0
aI0
aI0
aI0
aI0
aI0
aI0
aI0
aI0
aI0
aI0
aI0
aI0
aI0
aI0
aI0
aI0
aI0
aI0
aI0
aI0
aI0
aI0
aI0
aI0
aI0
aI0
aI0
aI0
aI0
aI0
aI0
aI0
aI0
aI0
aI0
aI0
aI0
aI0
aI0
aI0
aI0
aI0
aI0
aI0
aI0
aI0
aI0
aI0
aI0
aI0
aI0
aI0
aI0
aI0
aI0
aI0
aI0
aI0
aI0
asVnum_bytes
p7
I254
ssVlen
p8
I96
sVorigin
p9
(lp10
I-218
aI-208
asVsize_pixels
p11
(lp12
I24
aI24
asVsize_units
p13
(lp14
I781
aI791
ass."
EndChar

StartChar: U
Encoding: 194 85 194
GlifName: U_
Width: 593
VWidth: 0
Flags: HW
LayerCount: 2
Fore
SplineSet
256 -13 m 256
 407 -13 463 76 463 218 c 258
 463 634 l 257
 379 634 l 257
 379 227 l 258
 379 98 332 59 256 59 c 256
 180 59 133 98 133 227 c 258
 133 634 l 257
 49 634 l 257
 49 218 l 258
 49 76 106 -13 256 -13 c 256
EndSplineSet
Validated: 9
PickledDataWithLists: "(dp0
Vcom.fontlab.v5.background
p1
(dp2
Vdata
p3
(dp4
Vbytes
p5
(lp6
I255
aI0
aI0
aI254
aI255
aI0
aI0
aI254
aI255
aI0
aI0
aI254
aI255
aI60
aI0
aI254
aI124
aI255
aI0
aI254
aI124
aI255
aI0
aI254
aI124
aI255
aI0
aI254
aI124
aI255
aI0
aI254
aI124
aI255
aI0
aI254
aI124
aI255
aI0
aI254
aI124
aI255
aI0
aI254
aI124
aI255
aI0
aI254
aI124
aI255
aI0
aI254
aI124
aI255
aI0
aI254
aI124
aI255
aI0
aI254
aI124
aI255
aI0
aI254
aI56
aI255
aI0
aI255
aI1
aI255
aI0
aI255
aI131
aI255
aI0
aI254
aI255
aI0
aI0
aI254
aI255
aI0
aI0
aI254
aI255
aI0
aI0
aI254
aI255
aI0
aI0
aI254
aI255
aI0
aI0
aI0
aI0
aI0
aI0
aI0
aI0
aI0
aI0
aI0
aI0
aI0
aI0
aI0
aI0
aI0
aI0
aI0
aI0
aI0
aI0
aI0
aI0
aI0
aI0
aI0
aI0
aI0
aI0
aI0
aI0
aI0
aI0
aI0
aI0
aI0
aI0
aI0
aI0
aI0
aI0
aI0
aI0
aI0
aI0
aI0
aI0
aI0
aI0
aI0
aI0
aI0
aI0
aI0
aI0
aI0
aI0
aI0
aI0
aI0
aI0
aI0
aI0
aI0
aI0
aI0
aI0
aI0
aI0
aI0
aI0
aI0
aI0
aI0
aI0
aI0
aI0
aI0
aI0
aI0
aI0
aI0
aI0
aI0
aI0
aI0
aI0
aI0
aI0
aI0
aI0
aI0
aI0
aI0
aI0
aI0
aI0
aI0
aI0
aI0
aI0
aI0
aI0
aI0
aI0
aI0
aI0
aI0
aI0
aI0
aI0
aI0
aI0
aI0
aI0
aI0
aI0
aI0
aI0
aI0
aI0
aI0
aI0
aI0
aI0
aI0
aI0
aI0
aI0
aI0
aI0
aI0
aI0
aI0
aI0
aI0
aI0
aI0
aI0
aI0
aI0
aI0
aI0
aI0
aI0
aI0
aI0
aI0
aI0
aI0
aI0
aI0
aI0
aI0
aI0
aI0
aI0
aI0
aI0
aI0
asVnum_bytes
p7
I254
ssVlen
p8
I96
sVorigin
p9
(lp10
I-217
aI-209
asVsize_pixels
p11
(lp12
I24
aI24
asVsize_units
p13
(lp14
I782
aI790
ass."
EndChar

StartChar: Uhorn
Encoding: 200 431 200
GlifName: U_horn
Width: 593
VWidth: 0
Flags: HW
LayerCount: 2
Fore
SplineSet
228 -13 m 256
 365 -13 408 76 408 209 c 258
 408 572 l 257
 483 583 506 645 506 699 c 256
 506 706 506 719 505 732 c 257
 421 732 l 257
 422 725 423 709 423 697 c 256
 423 655 406 634 389 634 c 258
 324 634 l 257
 324 218 l 258
 324 98 294 59 228 59 c 256
 163 59 133 98 133 218 c 258
 133 634 l 257
 49 634 l 257
 49 209 l 258
 49 76 92 -13 228 -13 c 256
EndSplineSet
Validated: 9
PickledDataWithLists: "(dp0
Vcom.fontlab.v5.background
p1
(dp2
Vdata
p3
(dp4
Vbytes
p5
(lp6
I255
aI0
aI0
aI254
aI255
aI0
aI0
aI254
aI255
aI0
aI0
aI254
aI255
aI60
aI0
aI252
aI249
aI127
aI0
aI252
aI249
aI127
aI0
aI252
aI248
aI255
aI0
aI252
aI249
aI255
aI0
aI252
aI249
aI255
aI0
aI252
aI249
aI255
aI0
aI252
aI249
aI255
aI0
aI252
aI249
aI255
aI0
aI252
aI249
aI255
aI0
aI252
aI249
aI255
aI0
aI252
aI249
aI255
aI0
aI252
aI249
aI255
aI0
aI252
aI113
aI255
aI0
aI254
aI3
aI255
aI0
aI255
aI7
aI255
aI0
aI254
aI255
aI0
aI0
aI254
aI255
aI0
aI0
aI254
aI255
aI0
aI0
aI254
aI255
aI0
aI0
aI254
aI255
aI0
aI0
aI0
aI0
aI0
aI0
aI0
aI0
aI0
aI0
aI0
aI0
aI0
aI0
aI0
aI0
aI0
aI0
aI0
aI0
aI0
aI0
aI0
aI0
aI0
aI0
aI0
aI0
aI0
aI0
aI0
aI0
aI0
aI0
aI0
aI0
aI0
aI0
aI0
aI0
aI0
aI0
aI0
aI0
aI0
aI0
aI0
aI0
aI0
aI0
aI0
aI0
aI0
aI0
aI0
aI0
aI0
aI0
aI0
aI0
aI0
aI0
aI0
aI0
aI0
aI0
aI0
aI0
aI0
aI0
aI0
aI0
aI0
aI0
aI0
aI0
aI0
aI0
aI0
aI0
aI0
aI0
aI0
aI0
aI0
aI0
aI0
aI0
aI0
aI0
aI0
aI0
aI0
aI0
aI0
aI0
aI0
aI0
aI0
aI0
aI0
aI0
aI0
aI0
aI0
aI0
aI0
aI0
aI0
aI0
aI0
aI0
aI0
aI0
aI0
aI0
aI0
aI0
aI0
aI0
aI0
aI0
aI0
aI0
aI0
aI0
aI0
aI0
aI0
aI0
aI0
aI0
aI0
aI0
aI0
aI0
aI0
aI0
aI0
aI0
aI0
aI0
aI0
aI0
aI0
aI0
aI0
aI0
aI0
aI0
aI0
aI0
aI0
aI0
aI0
aI0
aI0
aI0
aI0
aI0
aI0
asVnum_bytes
p7
I254
ssVlen
p8
I96
sVorigin
p9
(lp10
I-166
aI-208
asVsize_pixels
p11
(lp12
I24
aI24
asVsize_units
p13
(lp14
I833
aI791
ass."
EndChar

StartChar: Uogonek
Encoding: 203 370 203
GlifName: U_ogonek
Width: 593
VWidth: 0
Flags: HW
LayerCount: 2
Fore
SplineSet
246 -25 m 257
 213 -58 207 -72 207 -101 c 256
 207 -144 238 -171 307 -171 c 256
 332 -171 355 -167 368 -161 c 257
 361 -105 l 257
 347 -109 332 -112 324 -112 c 256
 299 -112 287 -102 287 -85 c 256
 287 -68 298 -52 316 -33 c 256
 334 -14 367 8 381 17 c 256
 439 54 463 125 463 218 c 258
 463 634 l 257
 379 634 l 257
 379 227 l 258
 379 98 332 59 256 59 c 256
 180 59 133 98 133 227 c 258
 133 634 l 257
 49 634 l 257
 49 218 l 258
 49 76 96 -25 246 -25 c 257
EndSplineSet
Validated: 9
PickledDataWithLists: "(dp0
Vcom.fontlab.v5.background
p1
(dp2
Vdata
p3
(dp4
Vbytes
p5
(lp6
I255
aI0
aI0
aI254
aI255
aI0
aI0
aI254
aI255
aI0
aI0
aI254
aI255
aI76
aI0
aI254
aI124
aI255
aI0
aI254
aI124
aI255
aI0
aI254
aI124
aI255
aI0
aI254
aI124
aI255
aI0
aI254
aI124
aI255
aI0
aI254
aI124
aI255
aI0
aI254
aI124
aI255
aI0
aI254
aI124
aI255
aI0
aI254
aI124
aI255
aI0
aI254
aI124
aI255
aI0
aI254
aI124
aI255
aI0
aI254
aI124
aI255
aI0
aI254
aI56
aI255
aI0
aI255
aI1
aI255
aI0
aI255
aI131
aI255
aI0
aI255
aI239
aI255
aI0
aI255
aI223
aI255
aI0
aI255
aI223
aI255
aI0
aI255
aI227
aI255
aI0
aI254
aI255
aI0
aI0
aI0
aI0
aI0
aI0
aI0
aI0
aI0
aI0
aI0
aI0
aI0
aI0
aI0
aI0
aI0
aI0
aI0
aI0
aI0
aI0
aI0
aI0
aI0
aI0
aI0
aI0
aI0
aI0
aI0
aI0
aI0
aI0
aI0
aI0
aI0
aI0
aI0
aI0
aI0
aI0
aI0
aI0
aI0
aI0
aI0
aI0
aI0
aI0
aI0
aI0
aI0
aI0
aI0
aI0
aI0
aI0
aI0
aI0
aI0
aI0
aI0
aI0
aI0
aI0
aI0
aI0
aI0
aI0
aI0
aI0
aI0
aI0
aI0
aI0
aI0
aI0
aI0
aI0
aI0
aI0
aI0
aI0
aI0
aI0
aI0
aI0
aI0
aI0
aI0
aI0
aI0
aI0
aI0
aI0
aI0
aI0
aI0
aI0
aI0
aI0
aI0
aI0
aI0
aI0
aI0
aI0
aI0
aI0
aI0
aI0
aI0
aI0
aI0
aI0
aI0
aI0
aI0
aI0
aI0
aI0
aI0
aI0
aI0
aI0
aI0
aI0
aI0
aI0
aI0
aI0
aI0
aI0
aI0
aI0
aI0
aI0
aI0
aI0
aI0
aI0
aI0
aI0
aI0
aI0
aI0
aI0
aI0
aI0
aI0
aI0
aI0
aI0
aI0
aI0
aI0
aI0
aI0
aI0
aI0
asVnum_bytes
p7
I254
ssVlen
p8
I96
sVorigin
p9
(lp10
I-166
aI-208
asVsize_pixels
p11
(lp12
I24
aI24
asVsize_units
p13
(lp14
I833
aI791
ass."
EndChar

StartChar: V
Encoding: 209 86 209
GlifName: V_
Width: 593
VWidth: 0
Flags: HW
LayerCount: 2
Fore
SplineSet
13 634 m 257
 37 524 118 246 203 0 c 257
 307 0 l 257
 398 247 477 525 500 634 c 257
 412 634 l 257
 380 465 303 213 258 73 c 257
 210 212 138 461 104 634 c 257
 13 634 l 257
EndSplineSet
Validated: 9
PickledDataWithLists: "(dp0
Vcom.fontlab.v5.background
p1
(dp2
Vdata
p3
(dp4
Vbytes
p5
(lp6
I255
aI0
aI0
aI254
aI255
aI0
aI0
aI254
aI255
aI0
aI0
aI254
aI255
aI60
aI0
aI252
aI254
aI127
aI0
aI252
aI254
aI127
aI0
aI254
aI124
aI255
aI0
aI254
aI124
aI255
aI0
aI254
aI124
aI255
aI0
aI255
aI57
aI255
aI0
aI255
aI57
aI255
aI0
aI255
aI57
aI255
aI0
aI255
aI147
aI255
aI0
aI255
aI147
aI255
aI0
aI255
aI147
aI255
aI0
aI255
aI147
aI255
aI0
aI255
aI199
aI255
aI0
aI255
aI199
aI255
aI0
aI255
aI199
aI255
aI0
aI254
aI255
aI0
aI0
aI254
aI255
aI0
aI0
aI254
aI255
aI0
aI0
aI254
aI255
aI0
aI0
aI254
aI255
aI0
aI0
aI0
aI0
aI0
aI0
aI0
aI0
aI0
aI0
aI0
aI0
aI0
aI0
aI0
aI0
aI0
aI0
aI0
aI0
aI0
aI0
aI0
aI0
aI0
aI0
aI0
aI0
aI0
aI0
aI0
aI0
aI0
aI0
aI0
aI0
aI0
aI0
aI0
aI0
aI0
aI0
aI0
aI0
aI0
aI0
aI0
aI0
aI0
aI0
aI0
aI0
aI0
aI0
aI0
aI0
aI0
aI0
aI0
aI0
aI0
aI0
aI0
aI0
aI0
aI0
aI0
aI0
aI0
aI0
aI0
aI0
aI0
aI0
aI0
aI0
aI0
aI0
aI0
aI0
aI0
aI0
aI0
aI0
aI0
aI0
aI0
aI0
aI0
aI0
aI0
aI0
aI0
aI0
aI0
aI0
aI0
aI0
aI0
aI0
aI0
aI0
aI0
aI0
aI0
aI0
aI0
aI0
aI0
aI0
aI0
aI0
aI0
aI0
aI0
aI0
aI0
aI0
aI0
aI0
aI0
aI0
aI0
aI0
aI0
aI0
aI0
aI0
aI0
aI0
aI0
aI0
aI0
aI0
aI0
aI0
aI0
aI0
aI0
aI0
aI0
aI0
aI0
aI0
aI0
aI0
aI0
aI0
aI0
aI0
aI0
aI0
aI0
aI0
aI0
aI0
aI0
aI0
aI0
aI0
aI0
asVnum_bytes
p7
I254
ssVlen
p8
I96
sVorigin
p9
(lp10
I-245
aI-209
asVsize_pixels
p11
(lp12
I24
aI24
asVsize_units
p13
(lp14
I754
aI790
ass."
EndChar

StartChar: W
Encoding: 210 87 210
GlifName: W_
Width: 593
VWidth: 0
Flags: HW
LayerCount: 2
Fore
SplineSet
255 315 m 257
 354 0 l 257
 432 0 l 257
 455 169 470 406 479 634 c 257
 397 634 l 257
 386 104 l 257
 292 393 l 257
 218 393 l 257
 126 104 l 257
 115 634 l 257
 33 634 l 257
 42 408 54 168 78 0 c 257
 157 0 l 257
 255 315 l 257
EndSplineSet
Validated: 9
PickledDataWithLists: "(dp0
Vcom.fontlab.v5.background
p1
(dp2
Vdata
p3
(dp4
Vbytes
p5
(lp6
I255
aI0
aI0
aI254
aI255
aI0
aI0
aI254
aI255
aI0
aI0
aI254
aI255
aI60
aI0
aI249
aI255
aI63
aI0
aI249
aI255
aI63
aI0
aI249
aI255
aI63
aI0
aI249
aI255
aI63
aI0
aI252
aI254
aI127
aI0
aI252
aI198
aI127
aI0
aI252
aI198
aI127
aI0
aI252
aI210
aI127
aI0
aI252
aI146
aI127
aI0
aI252
aI146
aI127
aI0
aI254
aI186
aI255
aI0
aI254
aI56
aI255
aI0
aI254
aI56
aI255
aI0
aI254
aI124
aI255
aI0
aI254
aI124
aI255
aI0
aI254
aI255
aI0
aI0
aI254
aI255
aI0
aI0
aI254
aI255
aI0
aI0
aI254
aI255
aI0
aI0
aI254
aI255
aI0
aI0
aI0
aI0
aI0
aI0
aI0
aI0
aI0
aI0
aI0
aI0
aI0
aI0
aI0
aI0
aI0
aI0
aI0
aI0
aI0
aI0
aI0
aI0
aI0
aI0
aI0
aI0
aI0
aI0
aI0
aI0
aI0
aI0
aI0
aI0
aI0
aI0
aI0
aI0
aI0
aI0
aI0
aI0
aI0
aI0
aI0
aI0
aI0
aI0
aI0
aI0
aI0
aI0
aI0
aI0
aI0
aI0
aI0
aI0
aI0
aI0
aI0
aI0
aI0
aI0
aI0
aI0
aI0
aI0
aI0
aI0
aI0
aI0
aI0
aI0
aI0
aI0
aI0
aI0
aI0
aI0
aI0
aI0
aI0
aI0
aI0
aI0
aI0
aI0
aI0
aI0
aI0
aI0
aI0
aI0
aI0
aI0
aI0
aI0
aI0
aI0
aI0
aI0
aI0
aI0
aI0
aI0
aI0
aI0
aI0
aI0
aI0
aI0
aI0
aI0
aI0
aI0
aI0
aI0
aI0
aI0
aI0
aI0
aI0
aI0
aI0
aI0
aI0
aI0
aI0
aI0
aI0
aI0
aI0
aI0
aI0
aI0
aI0
aI0
aI0
aI0
aI0
aI0
aI0
aI0
aI0
aI0
aI0
aI0
aI0
aI0
aI0
aI0
aI0
aI0
aI0
aI0
aI0
aI0
aI0
asVnum_bytes
p7
I254
ssVlen
p8
I96
sVorigin
p9
(lp10
I-409
aI-209
asVsize_pixels
p11
(lp12
I24
aI24
asVsize_units
p13
(lp14
I590
aI790
ass."
EndChar

StartChar: X
Encoding: 215 88 215
GlifName: X_
Width: 593
VWidth: 0
Flags: HW
LayerCount: 2
Fore
SplineSet
486 0 m 257
 438 114 375 233 309 338 c 257
 477 634 l 257
 386 634 l 257
 253 391 l 257
 129 634 l 257
 36 634 l 257
 201 335 l 257
 133 226 71 100 26 0 c 257
 117 0 l 257
 158 93 207 200 255 276 c 257
 311 192 362 74 393 0 c 257
 486 0 l 257
EndSplineSet
Validated: 9
PickledDataWithLists: "(dp0
Vcom.fontlab.v5.background
p1
(dp2
Vdata
p3
(dp4
Vbytes
p5
(lp6
I255
aI0
aI0
aI254
aI255
aI0
aI0
aI254
aI255
aI0
aI0
aI254
aI255
aI60
aI0
aI252
aI254
aI127
aI0
aI254
aI124
aI255
aI0
aI254
aI56
aI255
aI0
aI255
aI57
aI255
aI0
aI255
aI147
aI255
aI0
aI255
aI147
aI255
aI0
aI255
aI199
aI255
aI0
aI255
aI199
aI255
aI0
aI255
aI199
aI255
aI0
aI255
aI147
aI255
aI0
aI255
aI147
aI255
aI0
aI255
aI57
aI255
aI0
aI254
aI56
aI255
aI0
aI254
aI124
aI255
aI0
aI252
aI254
aI127
aI0
aI254
aI255
aI0
aI0
aI254
aI255
aI0
aI0
aI254
aI255
aI0
aI0
aI254
aI255
aI0
aI0
aI254
aI255
aI0
aI0
aI0
aI0
aI0
aI0
aI0
aI0
aI0
aI0
aI0
aI0
aI0
aI0
aI0
aI0
aI0
aI0
aI0
aI0
aI0
aI0
aI0
aI0
aI0
aI0
aI0
aI0
aI0
aI0
aI0
aI0
aI0
aI0
aI0
aI0
aI0
aI0
aI0
aI0
aI0
aI0
aI0
aI0
aI0
aI0
aI0
aI0
aI0
aI0
aI0
aI0
aI0
aI0
aI0
aI0
aI0
aI0
aI0
aI0
aI0
aI0
aI0
aI0
aI0
aI0
aI0
aI0
aI0
aI0
aI0
aI0
aI0
aI0
aI0
aI0
aI0
aI0
aI0
aI0
aI0
aI0
aI0
aI0
aI0
aI0
aI0
aI0
aI0
aI0
aI0
aI0
aI0
aI0
aI0
aI0
aI0
aI0
aI0
aI0
aI0
aI0
aI0
aI0
aI0
aI0
aI0
aI0
aI0
aI0
aI0
aI0
aI0
aI0
aI0
aI0
aI0
aI0
aI0
aI0
aI0
aI0
aI0
aI0
aI0
aI0
aI0
aI0
aI0
aI0
aI0
aI0
aI0
aI0
aI0
aI0
aI0
aI0
aI0
aI0
aI0
aI0
aI0
aI0
aI0
aI0
aI0
aI0
aI0
aI0
aI0
aI0
aI0
aI0
aI0
aI0
aI0
aI0
aI0
aI0
aI0
asVnum_bytes
p7
I254
ssVlen
p8
I96
sVorigin
p9
(lp10
I-213
aI-221
asVsize_pixels
p11
(lp12
I24
aI24
asVsize_units
p13
(lp14
I786
aI778
ass."
EndChar

StartChar: Xi
Encoding: 216 926 216
GlifName: X_i
Width: 593
VWidth: 0
Flags: HW
LayerCount: 2
Fore
SplineSet
466 634 m 257
 47 634 l 257
 47 561 l 257
 466 561 l 257
 466 634 l 257
38 0 m 257
 474 0 l 257
 474 73 l 257
 38 73 l 257
 38 0 l 257
87 295 m 257
 425 295 l 257
 425 370 l 257
 87 370 l 257
 87 295 l 257
EndSplineSet
Validated: 9
PickledDataWithLists: "(dp0
Vcom.fontlab.v5.background
p1
(dp2
Vdata
p3
(dp4
Vbytes
p5
(lp6
I255
aI0
aI0
aI254
aI255
aI0
aI0
aI254
aI255
aI0
aI0
aI254
aI255
aI8
aI0
aI254
aI0
aI255
aI0
aI254
aI0
aI255
aI0
aI254
aI255
aI0
aI0
aI254
aI255
aI0
aI0
aI254
aI255
aI0
aI0
aI254
aI255
aI8
aI0
aI255
aI1
aI255
aI0
aI255
aI1
aI255
aI0
aI254
aI255
aI0
aI0
aI254
aI255
aI0
aI0
aI254
aI255
aI0
aI0
aI254
aI255
aI0
aI0
aI254
aI255
aI8
aI0
aI254
aI0
aI255
aI0
aI254
aI0
aI255
aI0
aI254
aI255
aI0
aI0
aI254
aI255
aI0
aI0
aI254
aI255
aI0
aI0
aI254
aI255
aI0
aI0
aI254
aI255
aI0
aI0
aI0
aI0
aI0
aI0
aI0
aI0
aI0
aI0
aI0
aI0
aI0
aI0
aI0
aI0
aI0
aI0
aI0
aI0
aI0
aI0
aI0
aI0
aI0
aI0
aI0
aI0
aI0
aI0
aI0
aI0
aI0
aI0
aI0
aI0
aI0
aI0
aI0
aI0
aI0
aI0
aI0
aI0
aI0
aI0
aI0
aI0
aI0
aI0
aI0
aI0
aI0
aI0
aI0
aI0
aI0
aI0
aI0
aI0
aI0
aI0
aI0
aI0
aI0
aI0
aI0
aI0
aI0
aI0
aI0
aI0
aI0
aI0
aI0
aI0
aI0
aI0
aI0
aI0
aI0
aI0
aI0
aI0
aI0
aI0
aI0
aI0
aI0
aI0
aI0
aI0
aI0
aI0
aI0
aI0
aI0
aI0
aI0
aI0
aI0
aI0
aI0
aI0
aI0
aI0
aI0
aI0
aI0
aI0
aI0
aI0
aI0
aI0
aI0
aI0
aI0
aI0
aI0
aI0
aI0
aI0
aI0
aI0
aI0
aI0
aI0
aI0
aI0
aI0
aI0
aI0
aI0
aI0
aI0
aI0
aI0
aI0
aI0
aI0
aI0
aI0
aI0
aI0
aI0
aI0
aI0
aI0
aI0
aI0
aI0
aI0
aI0
aI0
aI0
aI0
aI0
aI0
aI0
aI0
aI0
asVnum_bytes
p7
I254
ssVlen
p8
I96
sVorigin
p9
(lp10
I-164
aI-208
asVsize_pixels
p11
(lp12
I24
aI24
asVsize_units
p13
(lp14
I835
aI791
ass."
EndChar

StartChar: Y
Encoding: 217 89 217
GlifName: Y_
Width: 593
VWidth: 0
Flags: HW
LayerCount: 2
Fore
SplineSet
299 0 m 257
 299 238 l 257
 381 377 449 501 500 634 c 257
 408 634 l 257
 369 525 320 423 258 308 c 257
 200 419 147 520 108 634 c 257
 13 634 l 257
 63 500 132 372 215 236 c 257
 215 0 l 257
 299 0 l 257
EndSplineSet
Validated: 9
PickledDataWithLists: "(dp0
Vcom.fontlab.v5.background
p1
(dp2
Vdata
p3
(dp4
Vbytes
p5
(lp6
I255
aI0
aI0
aI254
aI255
aI0
aI0
aI254
aI255
aI0
aI0
aI254
aI255
aI60
aI0
aI252
aI254
aI127
aI0
aI254
aI124
aI255
aI0
aI254
aI124
aI255
aI0
aI255
aI57
aI255
aI0
aI255
aI153
aI255
aI0
aI255
aI153
aI255
aI0
aI255
aI195
aI255
aI0
aI255
aI195
aI255
aI0
aI255
aI231
aI255
aI0
aI255
aI231
aI255
aI0
aI255
aI231
aI255
aI0
aI255
aI231
aI255
aI0
aI255
aI231
aI255
aI0
aI255
aI231
aI255
aI0
aI255
aI231
aI255
aI0
aI254
aI255
aI0
aI0
aI254
aI255
aI0
aI0
aI254
aI255
aI0
aI0
aI254
aI255
aI0
aI0
aI254
aI255
aI0
aI0
aI0
aI0
aI0
aI0
aI0
aI0
aI0
aI0
aI0
aI0
aI0
aI0
aI0
aI0
aI0
aI0
aI0
aI0
aI0
aI0
aI0
aI0
aI0
aI0
aI0
aI0
aI0
aI0
aI0
aI0
aI0
aI0
aI0
aI0
aI0
aI0
aI0
aI0
aI0
aI0
aI0
aI0
aI0
aI0
aI0
aI0
aI0
aI0
aI0
aI0
aI0
aI0
aI0
aI0
aI0
aI0
aI0
aI0
aI0
aI0
aI0
aI0
aI0
aI0
aI0
aI0
aI0
aI0
aI0
aI0
aI0
aI0
aI0
aI0
aI0
aI0
aI0
aI0
aI0
aI0
aI0
aI0
aI0
aI0
aI0
aI0
aI0
aI0
aI0
aI0
aI0
aI0
aI0
aI0
aI0
aI0
aI0
aI0
aI0
aI0
aI0
aI0
aI0
aI0
aI0
aI0
aI0
aI0
aI0
aI0
aI0
aI0
aI0
aI0
aI0
aI0
aI0
aI0
aI0
aI0
aI0
aI0
aI0
aI0
aI0
aI0
aI0
aI0
aI0
aI0
aI0
aI0
aI0
aI0
aI0
aI0
aI0
aI0
aI0
aI0
aI0
aI0
aI0
aI0
aI0
aI0
aI0
aI0
aI0
aI0
aI0
aI0
aI0
aI0
aI0
aI0
aI0
aI0
aI0
asVnum_bytes
p7
I254
ssVlen
p8
I96
sVorigin
p9
(lp10
I-186
aI-209
asVsize_pixels
p11
(lp12
I24
aI24
asVsize_units
p13
(lp14
I813
aI790
ass."
EndChar

StartChar: Z
Encoding: 222 90 222
GlifName: Z_
Width: 593
VWidth: 0
Flags: HW
LayerCount: 2
Fore
SplineSet
458 634 m 257
 71 634 l 257
 71 562 l 257
 360 562 l 257
 263 423 141 228 55 55 c 257
 55 0 l 257
 466 0 l 257
 466 72 l 257
 152 72 l 257
 231 224 372 447 458 568 c 257
 458 634 l 257
EndSplineSet
Validated: 9
PickledDataWithLists: "(dp0
Vcom.fontlab.v5.background
p1
(dp2
Vdata
p3
(dp4
Vbytes
p5
(lp6
I255
aI0
aI0
aI254
aI255
aI0
aI0
aI254
aI255
aI0
aI0
aI254
aI255
aI60
aI0
aI254
aI0
aI255
aI0
aI254
aI0
aI255
aI0
aI255
aI249
aI255
aI0
aI255
aI249
aI255
aI0
aI255
aI243
aI255
aI0
aI255
aI243
aI255
aI0
aI255
aI231
aI255
aI0
aI255
aI199
aI255
aI0
aI255
aI207
aI255
aI0
aI255
aI159
aI255
aI0
aI255
aI159
aI255
aI0
aI255
aI63
aI255
aI0
aI255
aI63
aI255
aI0
aI254
aI0
aI255
aI0
aI254
aI0
aI255
aI0
aI254
aI255
aI0
aI0
aI254
aI255
aI0
aI0
aI254
aI255
aI0
aI0
aI254
aI255
aI0
aI0
aI254
aI255
aI0
aI0
aI0
aI0
aI0
aI0
aI0
aI0
aI0
aI0
aI0
aI0
aI0
aI0
aI0
aI0
aI0
aI0
aI0
aI0
aI0
aI0
aI0
aI0
aI0
aI0
aI0
aI0
aI0
aI0
aI0
aI0
aI0
aI0
aI0
aI0
aI0
aI0
aI0
aI0
aI0
aI0
aI0
aI0
aI0
aI0
aI0
aI0
aI0
aI0
aI0
aI0
aI0
aI0
aI0
aI0
aI0
aI0
aI0
aI0
aI0
aI0
aI0
aI0
aI0
aI0
aI0
aI0
aI0
aI0
aI0
aI0
aI0
aI0
aI0
aI0
aI0
aI0
aI0
aI0
aI0
aI0
aI0
aI0
aI0
aI0
aI0
aI0
aI0
aI0
aI0
aI0
aI0
aI0
aI0
aI0
aI0
aI0
aI0
aI0
aI0
aI0
aI0
aI0
aI0
aI0
aI0
aI0
aI0
aI0
aI0
aI0
aI0
aI0
aI0
aI0
aI0
aI0
aI0
aI0
aI0
aI0
aI0
aI0
aI0
aI0
aI0
aI0
aI0
aI0
aI0
aI0
aI0
aI0
aI0
aI0
aI0
aI0
aI0
aI0
aI0
aI0
aI0
aI0
aI0
aI0
aI0
aI0
aI0
aI0
aI0
aI0
aI0
aI0
aI0
aI0
aI0
aI0
aI0
aI0
aI0
asVnum_bytes
p7
I254
ssVlen
p8
I96
sVorigin
p9
(lp10
I-158
aI-222
asVsize_pixels
p11
(lp12
I24
aI24
asVsize_units
p13
(lp14
I841
aI777
ass."
EndChar

StartChar: Zeta
Encoding: 226 918 226
GlifName: Z_eta
Width: 593
VWidth: 0
Flags: HW
LayerCount: 2
Fore
SplineSet
458 634 m 257
 71 634 l 257
 71 562 l 257
 360 562 l 257
 265 423 144 235 55 69 c 257
 55 0 l 257
 466 0 l 257
 466 72 l 257
 152 72 l 257
 231 224 372 444 458 565 c 257
 458 634 l 257
EndSplineSet
Validated: 9
PickledDataWithLists: "(dp0
Vcom.fontlab.v5.background
p1
(dp2
Vdata
p3
(dp4
Vbytes
p5
(lp6
I255
aI0
aI0
aI254
aI255
aI0
aI0
aI254
aI255
aI0
aI0
aI254
aI255
aI60
aI0
aI254
aI0
aI255
aI0
aI254
aI0
aI255
aI0
aI255
aI249
aI255
aI0
aI255
aI249
aI255
aI0
aI255
aI243
aI255
aI0
aI255
aI243
aI255
aI0
aI255
aI231
aI255
aI0
aI255
aI199
aI255
aI0
aI255
aI207
aI255
aI0
aI255
aI159
aI255
aI0
aI255
aI159
aI255
aI0
aI255
aI63
aI255
aI0
aI255
aI63
aI255
aI0
aI254
aI0
aI255
aI0
aI254
aI0
aI255
aI0
aI254
aI255
aI0
aI0
aI254
aI255
aI0
aI0
aI254
aI255
aI0
aI0
aI254
aI255
aI0
aI0
aI254
aI255
aI0
aI0
aI0
aI0
aI0
aI0
aI0
aI0
aI0
aI0
aI0
aI0
aI0
aI0
aI0
aI0
aI0
aI0
aI0
aI0
aI0
aI0
aI0
aI0
aI0
aI0
aI0
aI0
aI0
aI0
aI0
aI0
aI0
aI0
aI0
aI0
aI0
aI0
aI0
aI0
aI0
aI0
aI0
aI0
aI0
aI0
aI0
aI0
aI0
aI0
aI0
aI0
aI0
aI0
aI0
aI0
aI0
aI0
aI0
aI0
aI0
aI0
aI0
aI0
aI0
aI0
aI0
aI0
aI0
aI0
aI0
aI0
aI0
aI0
aI0
aI0
aI0
aI0
aI0
aI0
aI0
aI0
aI0
aI0
aI0
aI0
aI0
aI0
aI0
aI0
aI0
aI0
aI0
aI0
aI0
aI0
aI0
aI0
aI0
aI0
aI0
aI0
aI0
aI0
aI0
aI0
aI0
aI0
aI0
aI0
aI0
aI0
aI0
aI0
aI0
aI0
aI0
aI0
aI0
aI0
aI0
aI0
aI0
aI0
aI0
aI0
aI0
aI0
aI0
aI0
aI0
aI0
aI0
aI0
aI0
aI0
aI0
aI0
aI0
aI0
aI0
aI0
aI0
aI0
aI0
aI0
aI0
aI0
aI0
aI0
aI0
aI0
aI0
aI0
aI0
aI0
aI0
aI0
aI0
aI0
aI0
asVnum_bytes
p7
I254
ssVlen
p8
I96
sVorigin
p9
(lp10
I-166
aI-208
asVsize_pixels
p11
(lp12
I24
aI24
asVsize_units
p13
(lp14
I833
aI791
ass."
EndChar

StartChar: a
Encoding: 227 97 227
GlifName: a
Width: 593
VWidth: 0
Flags: HW
LayerCount: 2
Fore
SplineSet
261 60 m 256
 190 60 145 81 145 142 c 256
 145 202 210 220 271 220 c 256
 305 220 337 215 359 209 c 257
 359 68 l 257
 337 64 303 60 261 60 c 256
253 486 m 256
 192 486 133 476 109 466 c 257
 119 396 l 257
 142 404 188 415 246 415 c 256
 338 415 359 357 359 301 c 258
 359 278 l 257
 328 285 296 289 261 289 c 256
 163 289 59 250 59 141 c 256
 59 18 161 -11 264 -11 c 256
 333 -11 402 1 442 8 c 257
 442 305 l 258
 442 413 396 486 253 486 c 256
EndSplineSet
Validated: 9
PickledDataWithLists: "(dp0
Vcom.fontlab.v5.background
p1
(dp2
Vdata
p3
(dp4
Vbytes
p5
(lp6
I255
aI0
aI0
aI254
aI255
aI0
aI0
aI254
aI255
aI0
aI0
aI254
aI255
aI0
aI0
aI254
aI255
aI0
aI0
aI254
aI255
aI0
aI0
aI254
aI255
aI0
aI0
aI254
aI255
aI44
aI0
aI255
aI3
aI255
aI0
aI254
aI1
aI255
aI0
aI254
aI120
aI255
aI0
aI255
aI252
aI255
aI0
aI255
aI192
aI255
aI0
aI255
aI0
aI255
aI0
aI254
aI60
aI255
aI0
aI254
aI124
aI255
aI0
aI254
aI112
aI255
aI0
aI254
aI0
aI255
aI0
aI255
aI12
aI255
aI0
aI254
aI255
aI0
aI0
aI254
aI255
aI0
aI0
aI254
aI255
aI0
aI0
aI254
aI255
aI0
aI0
aI254
aI255
aI0
aI0
aI0
aI0
aI0
aI0
aI0
aI0
aI0
aI0
aI0
aI0
aI0
aI0
aI0
aI0
aI0
aI0
aI0
aI0
aI0
aI0
aI0
aI0
aI0
aI0
aI0
aI0
aI0
aI0
aI0
aI0
aI0
aI0
aI0
aI0
aI0
aI0
aI0
aI0
aI0
aI0
aI0
aI0
aI0
aI0
aI0
aI0
aI0
aI0
aI0
aI0
aI0
aI0
aI0
aI0
aI0
aI0
aI0
aI0
aI0
aI0
aI0
aI0
aI0
aI0
aI0
aI0
aI0
aI0
aI0
aI0
aI0
aI0
aI0
aI0
aI0
aI0
aI0
aI0
aI0
aI0
aI0
aI0
aI0
aI0
aI0
aI0
aI0
aI0
aI0
aI0
aI0
aI0
aI0
aI0
aI0
aI0
aI0
aI0
aI0
aI0
aI0
aI0
aI0
aI0
aI0
aI0
aI0
aI0
aI0
aI0
aI0
aI0
aI0
aI0
aI0
aI0
aI0
aI0
aI0
aI0
aI0
aI0
aI0
aI0
aI0
aI0
aI0
aI0
aI0
aI0
aI0
aI0
aI0
aI0
aI0
aI0
aI0
aI0
aI0
aI0
aI0
aI0
aI0
aI0
aI0
aI0
aI0
aI0
aI0
aI0
aI0
aI0
aI0
aI0
aI0
aI0
aI0
aI0
aI0
asVnum_bytes
p7
I254
ssVlen
p8
I96
sVorigin
p9
(lp10
I-164
aI-193
asVsize_pixels
p11
(lp12
I24
aI24
asVsize_units
p13
(lp14
I835
aI806
ass."
Substitution2: "case_dflt subtable" A
Substitution2: "'ordn' Ordinals lookup 7 subtable" ordfeminine
EndChar

StartChar: acute
Encoding: 231 180 231
GlifName: acute
Width: 593
VWidth: 0
Flags: HW
LayerCount: 2
Fore
SplineSet
291 710 m 257
 174 568 l 257
 217 530 l 257
 346 655 l 257
 291 710 l 257
EndSplineSet
Validated: 9
PickledDataWithLists: "(dp0
Vcom.fontlab.v5.background
p1
(dp2
Vdata
p3
(dp4
Vbytes
p5
(lp6
I255
aI0
aI0
aI254
aI255
aI0
aI0
aI254
aI255
aI12
aI0
aI255
aI243
aI255
aI0
aI255
aI231
aI255
aI0
aI255
aI207
aI255
aI0
aI254
aI255
aI0
aI0
aI254
aI255
aI0
aI0
aI254
aI255
aI0
aI0
aI254
aI255
aI0
aI0
aI254
aI255
aI0
aI0
aI254
aI255
aI0
aI0
aI254
aI255
aI0
aI0
aI254
aI255
aI0
aI0
aI254
aI255
aI0
aI0
aI254
aI255
aI0
aI0
aI254
aI255
aI0
aI0
aI254
aI255
aI0
aI0
aI254
aI255
aI0
aI0
aI254
aI255
aI0
aI0
aI254
aI255
aI0
aI0
aI254
aI255
aI0
aI0
aI254
aI255
aI0
aI0
aI254
aI255
aI0
aI0
aI0
aI0
aI0
aI0
aI0
aI0
aI0
aI0
aI0
aI0
aI0
aI0
aI0
aI0
aI0
aI0
aI0
aI0
aI0
aI0
aI0
aI0
aI0
aI0
aI0
aI0
aI0
aI0
aI0
aI0
aI0
aI0
aI0
aI0
aI0
aI0
aI0
aI0
aI0
aI0
aI0
aI0
aI0
aI0
aI0
aI0
aI0
aI0
aI0
aI0
aI0
aI0
aI0
aI0
aI0
aI0
aI0
aI0
aI0
aI0
aI0
aI0
aI0
aI0
aI0
aI0
aI0
aI0
aI0
aI0
aI0
aI0
aI0
aI0
aI0
aI0
aI0
aI0
aI0
aI0
aI0
aI0
aI0
aI0
aI0
aI0
aI0
aI0
aI0
aI0
aI0
aI0
aI0
aI0
aI0
aI0
aI0
aI0
aI0
aI0
aI0
aI0
aI0
aI0
aI0
aI0
aI0
aI0
aI0
aI0
aI0
aI0
aI0
aI0
aI0
aI0
aI0
aI0
aI0
aI0
aI0
aI0
aI0
aI0
aI0
aI0
aI0
aI0
aI0
aI0
aI0
aI0
aI0
aI0
aI0
aI0
aI0
aI0
aI0
aI0
aI0
aI0
aI0
aI0
aI0
aI0
aI0
aI0
aI0
aI0
aI0
aI0
aI0
aI0
aI0
aI0
aI0
aI0
aI0
asVnum_bytes
p7
I254
ssVlen
p8
I96
sVorigin
p9
(lp10
I-475
aI-208
asVsize_pixels
p11
(lp12
I24
aI24
asVsize_units
p13
(lp14
I524
aI791
ass."
EndChar

StartChar: acute.asc
Encoding: 232 -1 232
GlifName: acute.asc
Width: 593
VWidth: 0
Flags: HW
LayerCount: 2
Back
SplineSet
307.200195312 870.400390625 m 257
 159.744140625 798.719726562 l 257
 179.200195312 748.543945312 l 257
 332.799804688 803.83984375 l 257
 307.200195312 870.400390625 l 257
EndSplineSet
Fore
SplineSet
307 850 m 257
 160 778 l 257
 179 728 l 257
 333 783 l 257
 307 850 l 257
EndSplineSet
Validated: 9
EndChar

StartChar: ae
Encoding: 234 230 234
GlifName: ae
Width: 593
VWidth: 0
Flags: HW
LayerCount: 2
Fore
SplineSet
154 486 m 256
 119 486 75 476 63 466 c 257
 73 396 l 257
 84 404 116 415 146 415 c 256
 198 415 222 364 222 301 c 258
 222 278 l 257
 206 286 184 289 168 289 c 256
 79 289 32 221 32 135 c 256
 32 62 76 -11 166 -11 c 256
 205 -11 244 2 281 33 c 257
 307 5 341 -11 386 -11 c 256
 423 -11 465 4 476 15 c 257
 465 87 l 257
 439 72 416 65 394 65 c 256
 339 65 299 118 299 215 c 257
 488 215 l 257
 489 224 489 238 489 245 c 256
 489 405 445 486 357 486 c 256
 322 486 293 462 271 421 c 257
 251 462 213 486 154 486 c 256
176 220 m 256
 192 220 206 216 219 209 c 257
 222 165 231 124 245 90 c 257
 227 73 197 60 173 60 c 256
 130 60 109 99 109 140 c 256
 109 189 131 220 176 220 c 256
301 284 m 257
 301 380 330 415 361 415 c 256
 384 415 413 385 413 284 c 257
 301 284 l 257
EndSplineSet
Validated: 9
PickledDataWithLists: "(dp0
Vcom.fontlab.v5.background
p1
(dp2
Vdata
p3
(dp4
Vbytes
p5
(lp6
I255
aI0
aI0
aI254
aI255
aI0
aI0
aI254
aI255
aI0
aI0
aI254
aI255
aI0
aI0
aI254
aI255
aI0
aI0
aI254
aI255
aI0
aI0
aI254
aI255
aI0
aI0
aI254
aI255
aI44
aI0
aI254
aI24
aI255
aI0
aI252
aI0
aI127
aI0
aI253
aI195
aI63
aI0
aI255
aI231
aI63
aI0
aI255
aI224
aI63
aI0
aI255
aI0
aI63
aI0
aI254
aI7
aI255
aI0
aI252
aI231
aI255
aI0
aI252
aI227
aI191
aI0
aI252
aI16
aI63
aI0
aI254
aI56
aI127
aI0
aI254
aI255
aI0
aI0
aI254
aI255
aI0
aI0
aI254
aI255
aI0
aI0
aI254
aI255
aI0
aI0
aI254
aI255
aI0
aI0
aI0
aI0
aI0
aI0
aI0
aI0
aI0
aI0
aI0
aI0
aI0
aI0
aI0
aI0
aI0
aI0
aI0
aI0
aI0
aI0
aI0
aI0
aI0
aI0
aI0
aI0
aI0
aI0
aI0
aI0
aI0
aI0
aI0
aI0
aI0
aI0
aI0
aI0
aI0
aI0
aI0
aI0
aI0
aI0
aI0
aI0
aI0
aI0
aI0
aI0
aI0
aI0
aI0
aI0
aI0
aI0
aI0
aI0
aI0
aI0
aI0
aI0
aI0
aI0
aI0
aI0
aI0
aI0
aI0
aI0
aI0
aI0
aI0
aI0
aI0
aI0
aI0
aI0
aI0
aI0
aI0
aI0
aI0
aI0
aI0
aI0
aI0
aI0
aI0
aI0
aI0
aI0
aI0
aI0
aI0
aI0
aI0
aI0
aI0
aI0
aI0
aI0
aI0
aI0
aI0
aI0
aI0
aI0
aI0
aI0
aI0
aI0
aI0
aI0
aI0
aI0
aI0
aI0
aI0
aI0
aI0
aI0
aI0
aI0
aI0
aI0
aI0
aI0
aI0
aI0
aI0
aI0
aI0
aI0
aI0
aI0
aI0
aI0
aI0
aI0
aI0
aI0
aI0
aI0
aI0
aI0
aI0
aI0
aI0
aI0
aI0
aI0
aI0
aI0
aI0
aI0
aI0
aI0
aI0
asVnum_bytes
p7
I254
ssVlen
p8
I96
sVorigin
p9
(lp10
I-184
aI-208
asVsize_pixels
p11
(lp12
I24
aI24
asVsize_units
p13
(lp14
I815
aI791
ass."
Substitution2: "case_dflt subtable" AE
EndChar

StartChar: afii00208
Encoding: 236 8213 236
GlifName: afii00208
Width: 593
VWidth: 0
Flags: HW
LayerCount: 2
Fore
SplineSet
0 242 m 257
 512 242 l 257
 512 313 l 257
 0 313 l 257
 0 242 l 257
EndSplineSet
Validated: 9
PickledDataWithLists: "(dp0
Vcom.fontlab.v5.background
p1
(dp2
Vdata
p3
(dp4
Vbytes
p5
(lp6
I255
aI0
aI0
aI254
aI255
aI0
aI0
aI254
aI255
aI0
aI0
aI254
aI255
aI0
aI0
aI254
aI255
aI0
aI0
aI254
aI255
aI0
aI0
aI254
aI255
aI0
aI0
aI254
aI255
aI0
aI0
aI254
aI255
aI0
aI0
aI254
aI255
aI0
aI0
aI254
aI255
aI0
aI0
aI254
aI255
aI4
aI0
aI252
aI0
aI127
aI0
aI254
aI255
aI0
aI0
aI254
aI255
aI0
aI0
aI254
aI255
aI0
aI0
aI254
aI255
aI0
aI0
aI254
aI255
aI0
aI0
aI254
aI255
aI0
aI0
aI254
aI255
aI0
aI0
aI254
aI255
aI0
aI0
aI254
aI255
aI0
aI0
aI254
aI255
aI0
aI0
aI254
aI255
aI0
aI0
aI0
aI0
aI0
aI0
aI0
aI0
aI0
aI0
aI0
aI0
aI0
aI0
aI0
aI0
aI0
aI0
aI0
aI0
aI0
aI0
aI0
aI0
aI0
aI0
aI0
aI0
aI0
aI0
aI0
aI0
aI0
aI0
aI0
aI0
aI0
aI0
aI0
aI0
aI0
aI0
aI0
aI0
aI0
aI0
aI0
aI0
aI0
aI0
aI0
aI0
aI0
aI0
aI0
aI0
aI0
aI0
aI0
aI0
aI0
aI0
aI0
aI0
aI0
aI0
aI0
aI0
aI0
aI0
aI0
aI0
aI0
aI0
aI0
aI0
aI0
aI0
aI0
aI0
aI0
aI0
aI0
aI0
aI0
aI0
aI0
aI0
aI0
aI0
aI0
aI0
aI0
aI0
aI0
aI0
aI0
aI0
aI0
aI0
aI0
aI0
aI0
aI0
aI0
aI0
aI0
aI0
aI0
aI0
aI0
aI0
aI0
aI0
aI0
aI0
aI0
aI0
aI0
aI0
aI0
aI0
aI0
aI0
aI0
aI0
aI0
aI0
aI0
aI0
aI0
aI0
aI0
aI0
aI0
aI0
aI0
aI0
aI0
aI0
aI0
aI0
aI0
aI0
aI0
aI0
aI0
aI0
aI0
aI0
aI0
aI0
aI0
aI0
aI0
aI0
aI0
aI0
aI0
aI0
aI0
asVnum_bytes
p7
I254
ssVlen
p8
I96
sVorigin
p9
(lp10
I-166
aI-208
asVsize_pixels
p11
(lp12
I24
aI24
asVsize_units
p13
(lp14
I833
aI791
ass."
EndChar

StartChar: afii10020
Encoding: 240 1043 240
GlifName: afii10020
Width: 593
VWidth: 0
Flags: HW
LayerCount: 2
Fore
SplineSet
55 72 m 257
 55 0 l 257
 368 0 l 257
 368 72 l 257
 230 72 l 257
 230 562 l 257
 471 562 l 257
 471 634 l 257
 146 634 l 257
 146 72 l 257
 55 72 l 257
EndSplineSet
Validated: 9
PickledDataWithLists: "(dp0
Vcom.fontlab.v5.background
p1
(dp2
Vdata
p3
(dp4
Vbytes
p5
(lp6
I255
aI0
aI0
aI254
aI255
aI0
aI0
aI254
aI255
aI0
aI0
aI254
aI255
aI60
aI0
aI255
aI0
aI255
aI0
aI255
aI0
aI255
aI0
aI255
aI63
aI255
aI0
aI255
aI63
aI255
aI0
aI255
aI63
aI255
aI0
aI255
aI63
aI255
aI0
aI255
aI63
aI255
aI0
aI255
aI63
aI255
aI0
aI255
aI63
aI255
aI0
aI255
aI63
aI255
aI0
aI255
aI63
aI255
aI0
aI255
aI63
aI255
aI0
aI255
aI63
aI255
aI0
aI255
aI63
aI255
aI0
aI255
aI63
aI255
aI0
aI254
aI255
aI0
aI0
aI254
aI255
aI0
aI0
aI254
aI255
aI0
aI0
aI254
aI255
aI0
aI0
aI254
aI255
aI0
aI0
aI0
aI0
aI0
aI0
aI0
aI0
aI0
aI0
aI0
aI0
aI0
aI0
aI0
aI0
aI0
aI0
aI0
aI0
aI0
aI0
aI0
aI0
aI0
aI0
aI0
aI0
aI0
aI0
aI0
aI0
aI0
aI0
aI0
aI0
aI0
aI0
aI0
aI0
aI0
aI0
aI0
aI0
aI0
aI0
aI0
aI0
aI0
aI0
aI0
aI0
aI0
aI0
aI0
aI0
aI0
aI0
aI0
aI0
aI0
aI0
aI0
aI0
aI0
aI0
aI0
aI0
aI0
aI0
aI0
aI0
aI0
aI0
aI0
aI0
aI0
aI0
aI0
aI0
aI0
aI0
aI0
aI0
aI0
aI0
aI0
aI0
aI0
aI0
aI0
aI0
aI0
aI0
aI0
aI0
aI0
aI0
aI0
aI0
aI0
aI0
aI0
aI0
aI0
aI0
aI0
aI0
aI0
aI0
aI0
aI0
aI0
aI0
aI0
aI0
aI0
aI0
aI0
aI0
aI0
aI0
aI0
aI0
aI0
aI0
aI0
aI0
aI0
aI0
aI0
aI0
aI0
aI0
aI0
aI0
aI0
aI0
aI0
aI0
aI0
aI0
aI0
aI0
aI0
aI0
aI0
aI0
aI0
aI0
aI0
aI0
aI0
aI0
aI0
aI0
aI0
aI0
aI0
aI0
aI0
asVnum_bytes
p7
I254
ssVlen
p8
I96
sVorigin
p9
(lp10
I-191
aI-209
asVsize_pixels
p11
(lp12
I24
aI24
asVsize_units
p13
(lp14
I808
aI790
ass."
EndChar

StartChar: afii10021
Encoding: 241 1044 241
GlifName: afii10021
Width: 593
VWidth: 0
Flags: HW
LayerCount: 2
Fore
SplineSet
404 0 m 257
 404 -169 l 257
 484 -169 l 257
 484 72 l 257
 444 72 l 257
 444 634 l 257
 157 634 l 257
 154 565 l 258
 146 368 150 204 55 72 c 257
 18 72 l 257
 18 -169 l 257
 98 -169 l 257
 98 0 l 257
 404 0 l 257
360 562 m 257
 360 72 l 257
 153 72 l 257
 226 194 228 357 234 494 c 257
 237 562 l 257
 360 562 l 257
EndSplineSet
Validated: 9
PickledDataWithLists: "(dp0
Vcom.fontlab.v5.background
p1
(dp2
Vdata
p3
(dp4
Vbytes
p5
(lp6
I255
aI0
aI0
aI254
aI255
aI0
aI0
aI254
aI255
aI0
aI0
aI254
aI255
aI72
aI0
aI255
aI192
aI255
aI0
aI255
aI192
aI255
aI0
aI255
aI204
aI255
aI0
aI255
aI204
aI255
aI0
aI255
aI204
aI255
aI0
aI255
aI204
aI255
aI0
aI255
aI204
aI255
aI0
aI255
aI156
aI255
aI0
aI255
aI156
aI255
aI0
aI255
aI156
aI255
aI0
aI255
aI60
aI255
aI0
aI255
aI60
aI255
aI0
aI254
aI124
aI255
aI0
aI248
aI0
aI63
aI0
aI248
aI0
aI63
aI0
aI249
aI255
aI63
aI0
aI249
aI255
aI63
aI0
aI249
aI255
aI63
aI0
aI254
aI255
aI0
aI0
aI254
aI255
aI0
aI0
aI0
aI0
aI0
aI0
aI0
aI0
aI0
aI0
aI0
aI0
aI0
aI0
aI0
aI0
aI0
aI0
aI0
aI0
aI0
aI0
aI0
aI0
aI0
aI0
aI0
aI0
aI0
aI0
aI0
aI0
aI0
aI0
aI0
aI0
aI0
aI0
aI0
aI0
aI0
aI0
aI0
aI0
aI0
aI0
aI0
aI0
aI0
aI0
aI0
aI0
aI0
aI0
aI0
aI0
aI0
aI0
aI0
aI0
aI0
aI0
aI0
aI0
aI0
aI0
aI0
aI0
aI0
aI0
aI0
aI0
aI0
aI0
aI0
aI0
aI0
aI0
aI0
aI0
aI0
aI0
aI0
aI0
aI0
aI0
aI0
aI0
aI0
aI0
aI0
aI0
aI0
aI0
aI0
aI0
aI0
aI0
aI0
aI0
aI0
aI0
aI0
aI0
aI0
aI0
aI0
aI0
aI0
aI0
aI0
aI0
aI0
aI0
aI0
aI0
aI0
aI0
aI0
aI0
aI0
aI0
aI0
aI0
aI0
aI0
aI0
aI0
aI0
aI0
aI0
aI0
aI0
aI0
aI0
aI0
aI0
aI0
aI0
aI0
aI0
aI0
aI0
aI0
aI0
aI0
aI0
aI0
aI0
aI0
aI0
aI0
aI0
aI0
aI0
aI0
aI0
aI0
aI0
aI0
aI0
asVnum_bytes
p7
I254
ssVlen
p8
I96
sVorigin
p9
(lp10
I-31783
aI-209
asVsize_pixels
p11
(lp12
I24
aI24
asVsize_units
p13
(lp14
I-30784
aI790
ass."
EndChar

StartChar: afii10024
Encoding: 244 1046 244
GlifName: afii10024
Width: 593
VWidth: 0
Flags: HW
LayerCount: 2
Fore
SplineSet
294 0 m 257
 294 307 l 257
 347 240 392 109 424 0 c 257
 509 0 l 257
 476 119 411 263 354 338 c 257
 402 431 448 514 498 634 c 257
 414 634 l 257
 374 531 335 439 294 362 c 257
 294 634 l 257
 218 634 l 257
 218 360 l 257
 176 438 137 530 98 634 c 257
 14 634 l 257
 64 514 109 431 158 338 c 257
 101 263 36 119 4 0 c 257
 88 0 l 257
 120 110 165 242 218 308 c 257
 218 0 l 257
 294 0 l 257
EndSplineSet
Validated: 9
PickledDataWithLists: "(dp0
Vcom.fontlab.v5.background
p1
(dp2
Vdata
p3
(dp4
Vbytes
p5
(lp6
I255
aI0
aI0
aI254
aI255
aI0
aI0
aI254
aI255
aI0
aI0
aI254
aI255
aI60
aI0
aI252
aI231
aI63
aI0
aI252
aI231
aI63
aI0
aI254
aI102
aI127
aI0
aI254
aI102
aI127
aI0
aI255
aI36
aI255
aI0
aI255
aI36
aI255
aI0
aI255
aI129
aI255
aI0
aI255
aI0
aI255
aI0
aI255
aI0
aI255
aI0
aI255
aI102
aI255
aI0
aI254
aI102
aI127
aI0
aI254
aI102
aI127
aI0
aI254
aI102
aI127
aI0
aI252
aI231
aI63
aI0
aI252
aI231
aI63
aI0
aI254
aI255
aI0
aI0
aI254
aI255
aI0
aI0
aI254
aI255
aI0
aI0
aI254
aI255
aI0
aI0
aI254
aI255
aI0
aI0
aI0
aI0
aI0
aI0
aI0
aI0
aI0
aI0
aI0
aI0
aI0
aI0
aI0
aI0
aI0
aI0
aI0
aI0
aI0
aI0
aI0
aI0
aI0
aI0
aI0
aI0
aI0
aI0
aI0
aI0
aI0
aI0
aI0
aI0
aI0
aI0
aI0
aI0
aI0
aI0
aI0
aI0
aI0
aI0
aI0
aI0
aI0
aI0
aI0
aI0
aI0
aI0
aI0
aI0
aI0
aI0
aI0
aI0
aI0
aI0
aI0
aI0
aI0
aI0
aI0
aI0
aI0
aI0
aI0
aI0
aI0
aI0
aI0
aI0
aI0
aI0
aI0
aI0
aI0
aI0
aI0
aI0
aI0
aI0
aI0
aI0
aI0
aI0
aI0
aI0
aI0
aI0
aI0
aI0
aI0
aI0
aI0
aI0
aI0
aI0
aI0
aI0
aI0
aI0
aI0
aI0
aI0
aI0
aI0
aI0
aI0
aI0
aI0
aI0
aI0
aI0
aI0
aI0
aI0
aI0
aI0
aI0
aI0
aI0
aI0
aI0
aI0
aI0
aI0
aI0
aI0
aI0
aI0
aI0
aI0
aI0
aI0
aI0
aI0
aI0
aI0
aI0
aI0
aI0
aI0
aI0
aI0
aI0
aI0
aI0
aI0
aI0
aI0
aI0
aI0
aI0
aI0
aI0
aI0
asVnum_bytes
p7
I254
ssVlen
p8
I96
sVorigin
p9
(lp10
I-31783
aI-209
asVsize_pixels
p11
(lp12
I24
aI24
asVsize_units
p13
(lp14
I-30784
aI790
ass."
EndChar

StartChar: afii10025
Encoding: 245 1047 245
GlifName: afii10025
Width: 593
VWidth: 0
Flags: HW
LayerCount: 2
Fore
SplineSet
144 299 m 257
 187 299 l 258
 299 299 392 276 392 177 c 256
 392 92 328 59 230 59 c 256
 153 59 94 86 65 100 c 257
 39 33 l 257
 67 19 139 -12 231 -12 c 256
 378 -12 476 40 476 175 c 256
 476 272 411 323 337 342 c 257
 410 366 449 423 449 481 c 256
 449 594 362 645 241 645 c 256
 165 645 92 627 61 607 c 257
 89 541 l 257
 116 556 175 573 240 573 c 256
 313 573 364 534 364 479 c 256
 364 391 260 371 178 371 c 258
 144 371 l 257
 144 299 l 257
EndSplineSet
Validated: 9
PickledDataWithLists: "(dp0
Vcom.fontlab.v5.background
p1
(dp2
Vdata
p3
(dp4
Vbytes
p5
(lp6
I255
aI0
aI0
aI254
aI255
aI0
aI0
aI254
aI255
aI0
aI0
aI254
aI255
aI60
aI0
aI255
aI131
aI255
aI0
aI254
aI1
aI255
aI0
aI254
aI248
aI255
aI0
aI255
aI252
aI255
aI0
aI255
aI252
aI255
aI0
aI255
aI249
aI255
aI0
aI255
aI131
aI255
aI0
aI255
aI131
aI255
aI0
aI255
aI249
aI255
aI0
aI255
aI252
aI255
aI0
aI255
aI252
aI255
aI0
aI255
aI252
aI255
aI0
aI254
aI248
aI255
aI0
aI254
aI1
aI255
aI0
aI255
aI135
aI255
aI0
aI254
aI255
aI0
aI0
aI254
aI255
aI0
aI0
aI254
aI255
aI0
aI0
aI254
aI255
aI0
aI0
aI254
aI255
aI0
aI0
aI0
aI0
aI0
aI0
aI0
aI0
aI0
aI0
aI0
aI0
aI0
aI0
aI0
aI0
aI0
aI0
aI0
aI0
aI0
aI0
aI0
aI0
aI0
aI0
aI0
aI0
aI0
aI0
aI0
aI0
aI0
aI0
aI0
aI0
aI0
aI0
aI0
aI0
aI0
aI0
aI0
aI0
aI0
aI0
aI0
aI0
aI0
aI0
aI0
aI0
aI0
aI0
aI0
aI0
aI0
aI0
aI0
aI0
aI0
aI0
aI0
aI0
aI0
aI0
aI0
aI0
aI0
aI0
aI0
aI0
aI0
aI0
aI0
aI0
aI0
aI0
aI0
aI0
aI0
aI0
aI0
aI0
aI0
aI0
aI0
aI0
aI0
aI0
aI0
aI0
aI0
aI0
aI0
aI0
aI0
aI0
aI0
aI0
aI0
aI0
aI0
aI0
aI0
aI0
aI0
aI0
aI0
aI0
aI0
aI0
aI0
aI0
aI0
aI0
aI0
aI0
aI0
aI0
aI0
aI0
aI0
aI0
aI0
aI0
aI0
aI0
aI0
aI0
aI0
aI0
aI0
aI0
aI0
aI0
aI0
aI0
aI0
aI0
aI0
aI0
aI0
aI0
aI0
aI0
aI0
aI0
aI0
aI0
aI0
aI0
aI0
aI0
aI0
aI0
aI0
aI0
aI0
aI0
aI0
asVnum_bytes
p7
I254
ssVlen
p8
I96
sVorigin
p9
(lp10
I-166
aI-209
asVsize_pixels
p11
(lp12
I24
aI24
asVsize_units
p13
(lp14
I833
aI790
ass."
EndChar

StartChar: afii10026
Encoding: 246 1048 246
GlifName: afii10026
Width: 593
VWidth: 0
Flags: HW
LayerCount: 2
Fore
SplineSet
142 0 m 257
 235 226 303 362 379 506 c 257
 379 0 l 257
 456 0 l 257
 456 634 l 257
 370 634 l 257
 257 430 214 345 133 146 c 257
 133 634 l 257
 56 634 l 257
 56 0 l 257
 142 0 l 257
EndSplineSet
Validated: 9
PickledDataWithLists: "(dp0
Vcom.fontlab.v5.background
p1
(dp2
Vdata
p3
(dp4
Vbytes
p5
(lp6
I255
aI0
aI0
aI254
aI255
aI0
aI0
aI254
aI255
aI0
aI0
aI254
aI255
aI60
aI0
aI254
aI120
aI255
aI0
aI254
aI120
aI255
aI0
aI254
aI112
aI255
aI0
aI254
aI112
aI255
aI0
aI254
aI112
aI255
aI0
aI254
aI100
aI255
aI0
aI254
aI100
aI255
aI0
aI254
aI108
aI255
aI0
aI254
aI76
aI255
aI0
aI254
aI76
aI255
aI0
aI254
aI28
aI255
aI0
aI254
aI28
aI255
aI0
aI254
aI28
aI255
aI0
aI254
aI60
aI255
aI0
aI254
aI60
aI255
aI0
aI254
aI255
aI0
aI0
aI254
aI255
aI0
aI0
aI254
aI255
aI0
aI0
aI254
aI255
aI0
aI0
aI254
aI255
aI0
aI0
aI0
aI0
aI0
aI0
aI0
aI0
aI0
aI0
aI0
aI0
aI0
aI0
aI0
aI0
aI0
aI0
aI0
aI0
aI0
aI0
aI0
aI0
aI0
aI0
aI0
aI0
aI0
aI0
aI0
aI0
aI0
aI0
aI0
aI0
aI0
aI0
aI0
aI0
aI0
aI0
aI0
aI0
aI0
aI0
aI0
aI0
aI0
aI0
aI0
aI0
aI0
aI0
aI0
aI0
aI0
aI0
aI0
aI0
aI0
aI0
aI0
aI0
aI0
aI0
aI0
aI0
aI0
aI0
aI0
aI0
aI0
aI0
aI0
aI0
aI0
aI0
aI0
aI0
aI0
aI0
aI0
aI0
aI0
aI0
aI0
aI0
aI0
aI0
aI0
aI0
aI0
aI0
aI0
aI0
aI0
aI0
aI0
aI0
aI0
aI0
aI0
aI0
aI0
aI0
aI0
aI0
aI0
aI0
aI0
aI0
aI0
aI0
aI0
aI0
aI0
aI0
aI0
aI0
aI0
aI0
aI0
aI0
aI0
aI0
aI0
aI0
aI0
aI0
aI0
aI0
aI0
aI0
aI0
aI0
aI0
aI0
aI0
aI0
aI0
aI0
aI0
aI0
aI0
aI0
aI0
aI0
aI0
aI0
aI0
aI0
aI0
aI0
aI0
aI0
aI0
aI0
aI0
aI0
aI0
asVnum_bytes
p7
I254
ssVlen
p8
I96
sVorigin
p9
(lp10
I-174
aI-209
asVsize_pixels
p11
(lp12
I24
aI24
asVsize_units
p13
(lp14
I825
aI790
ass."
EndChar

StartChar: afii10029
Encoding: 249 1051 249
GlifName: afii10029
Width: 593
VWidth: 0
Flags: HW
LayerCount: 2
Fore
SplineSet
382 562 m 257
 382 0 l 257
 466 0 l 257
 466 634 l 257
 162 634 l 257
 161 472 156 306 128 209 c 256
 101 115 72 74 13 65 c 257
 23 -9 l 257
 126 -4 176 80 206 190 c 256
 236 301 240 424 244 562 c 257
 382 562 l 257
EndSplineSet
Validated: 9
PickledDataWithLists: "(dp0
Vcom.fontlab.v5.background
p1
(dp2
Vdata
p3
(dp4
Vbytes
p5
(lp6
I255
aI0
aI0
aI254
aI255
aI0
aI0
aI254
aI255
aI0
aI0
aI254
aI255
aI60
aI0
aI255
aI0
aI127
aI0
aI255
aI0
aI127
aI0
aI255
aI62
aI127
aI0
aI255
aI62
aI127
aI0
aI255
aI62
aI127
aI0
aI255
aI62
aI127
aI0
aI255
aI62
aI127
aI0
aI255
aI62
aI127
aI0
aI255
aI62
aI127
aI0
aI255
aI62
aI127
aI0
aI255
aI62
aI127
aI0
aI255
aI62
aI127
aI0
aI255
aI62
aI127
aI0
aI254
aI62
aI127
aI0
aI254
aI126
aI127
aI0
aI254
aI255
aI0
aI0
aI254
aI255
aI0
aI0
aI254
aI255
aI0
aI0
aI254
aI255
aI0
aI0
aI254
aI255
aI0
aI0
aI0
aI0
aI0
aI0
aI0
aI0
aI0
aI0
aI0
aI0
aI0
aI0
aI0
aI0
aI0
aI0
aI0
aI0
aI0
aI0
aI0
aI0
aI0
aI0
aI0
aI0
aI0
aI0
aI0
aI0
aI0
aI0
aI0
aI0
aI0
aI0
aI0
aI0
aI0
aI0
aI0
aI0
aI0
aI0
aI0
aI0
aI0
aI0
aI0
aI0
aI0
aI0
aI0
aI0
aI0
aI0
aI0
aI0
aI0
aI0
aI0
aI0
aI0
aI0
aI0
aI0
aI0
aI0
aI0
aI0
aI0
aI0
aI0
aI0
aI0
aI0
aI0
aI0
aI0
aI0
aI0
aI0
aI0
aI0
aI0
aI0
aI0
aI0
aI0
aI0
aI0
aI0
aI0
aI0
aI0
aI0
aI0
aI0
aI0
aI0
aI0
aI0
aI0
aI0
aI0
aI0
aI0
aI0
aI0
aI0
aI0
aI0
aI0
aI0
aI0
aI0
aI0
aI0
aI0
aI0
aI0
aI0
aI0
aI0
aI0
aI0
aI0
aI0
aI0
aI0
aI0
aI0
aI0
aI0
aI0
aI0
aI0
aI0
aI0
aI0
aI0
aI0
aI0
aI0
aI0
aI0
aI0
aI0
aI0
aI0
aI0
aI0
aI0
aI0
aI0
aI0
aI0
aI0
aI0
asVnum_bytes
p7
I254
ssVlen
p8
I96
sVorigin
p9
(lp10
I123
aI-209
asVsize_pixels
p11
(lp12
I24
aI24
asVsize_units
p13
(lp14
I1122
aI790
ass."
EndChar

StartChar: afii10033
Encoding: 253 1055 253
GlifName: afii10033
Width: 593
VWidth: 0
Flags: HW
LayerCount: 2
Fore
SplineSet
466 0 m 257
 466 634 l 257
 46 634 l 257
 46 0 l 257
 130 0 l 257
 130 562 l 257
 382 562 l 257
 382 0 l 257
 466 0 l 257
EndSplineSet
Validated: 9
PickledDataWithLists: "(dp0
Vcom.fontlab.v5.background
p1
(dp2
Vdata
p3
(dp4
Vbytes
p5
(lp6
I255
aI0
aI0
aI254
aI255
aI0
aI0
aI254
aI255
aI0
aI0
aI254
aI255
aI60
aI0
aI254
aI0
aI255
aI0
aI254
aI0
aI255
aI0
aI254
aI124
aI255
aI0
aI254
aI124
aI255
aI0
aI254
aI124
aI255
aI0
aI254
aI124
aI255
aI0
aI254
aI124
aI255
aI0
aI254
aI124
aI255
aI0
aI254
aI124
aI255
aI0
aI254
aI124
aI255
aI0
aI254
aI124
aI255
aI0
aI254
aI124
aI255
aI0
aI254
aI124
aI255
aI0
aI254
aI124
aI255
aI0
aI254
aI124
aI255
aI0
aI254
aI255
aI0
aI0
aI254
aI255
aI0
aI0
aI254
aI255
aI0
aI0
aI254
aI255
aI0
aI0
aI254
aI255
aI0
aI0
aI0
aI0
aI0
aI0
aI0
aI0
aI0
aI0
aI0
aI0
aI0
aI0
aI0
aI0
aI0
aI0
aI0
aI0
aI0
aI0
aI0
aI0
aI0
aI0
aI0
aI0
aI0
aI0
aI0
aI0
aI0
aI0
aI0
aI0
aI0
aI0
aI0
aI0
aI0
aI0
aI0
aI0
aI0
aI0
aI0
aI0
aI0
aI0
aI0
aI0
aI0
aI0
aI0
aI0
aI0
aI0
aI0
aI0
aI0
aI0
aI0
aI0
aI0
aI0
aI0
aI0
aI0
aI0
aI0
aI0
aI0
aI0
aI0
aI0
aI0
aI0
aI0
aI0
aI0
aI0
aI0
aI0
aI0
aI0
aI0
aI0
aI0
aI0
aI0
aI0
aI0
aI0
aI0
aI0
aI0
aI0
aI0
aI0
aI0
aI0
aI0
aI0
aI0
aI0
aI0
aI0
aI0
aI0
aI0
aI0
aI0
aI0
aI0
aI0
aI0
aI0
aI0
aI0
aI0
aI0
aI0
aI0
aI0
aI0
aI0
aI0
aI0
aI0
aI0
aI0
aI0
aI0
aI0
aI0
aI0
aI0
aI0
aI0
aI0
aI0
aI0
aI0
aI0
aI0
aI0
aI0
aI0
aI0
aI0
aI0
aI0
aI0
aI0
aI0
aI0
aI0
aI0
aI0
aI0
asVnum_bytes
p7
I254
ssVlen
p8
I96
sVorigin
p9
(lp10
I-166
aI-209
asVsize_pixels
p11
(lp12
I24
aI24
asVsize_units
p13
(lp14
I833
aI790
ass."
EndChar

StartChar: afii10037
Encoding: 257 1059 257
GlifName: afii10037
Width: 593
VWidth: 0
Flags: HW
LayerCount: 2
Fore
SplineSet
116 65 m 256
 91 65 68 72 53 78 c 257
 38 6 l 257
 48 -1 86 -8 113 -8 c 256
 248 -8 297 99 345 213 c 256
 399 344 453 462 506 634 c 257
 415 634 l 257
 378 498 334 372 284 251 c 257
 217 376 141 530 101 634 c 257
 9 634 l 257
 55 525 150 325 250 167 c 257
 242 153 l 258
 212 101 181 65 116 65 c 256
EndSplineSet
Validated: 9
PickledDataWithLists: "(dp0
Vcom.fontlab.v5.background
p1
(dp2
Vdata
p3
(dp4
Vbytes
p5
(lp6
I255
aI0
aI0
aI254
aI255
aI0
aI0
aI254
aI255
aI0
aI0
aI254
aI255
aI60
aI0
aI252
aI254
aI127
aI0
aI252
aI254
aI127
aI0
aI254
aI124
aI255
aI0
aI254
aI124
aI255
aI0
aI255
aI57
aI255
aI0
aI255
aI57
aI255
aI0
aI255
aI147
aI255
aI0
aI255
aI147
aI255
aI0
aI255
aI131
aI255
aI0
aI255
aI199
aI255
aI0
aI255
aI199
aI255
aI0
aI255
aI207
aI255
aI0
aI255
aI143
aI255
aI0
aI254
aI31
aI255
aI0
aI254
aI63
aI255
aI0
aI254
aI255
aI0
aI0
aI254
aI255
aI0
aI0
aI254
aI255
aI0
aI0
aI254
aI255
aI0
aI0
aI254
aI255
aI0
aI0
aI0
aI0
aI0
aI0
aI0
aI0
aI0
aI0
aI0
aI0
aI0
aI0
aI0
aI0
aI0
aI0
aI0
aI0
aI0
aI0
aI0
aI0
aI0
aI0
aI0
aI0
aI0
aI0
aI0
aI0
aI0
aI0
aI0
aI0
aI0
aI0
aI0
aI0
aI0
aI0
aI0
aI0
aI0
aI0
aI0
aI0
aI0
aI0
aI0
aI0
aI0
aI0
aI0
aI0
aI0
aI0
aI0
aI0
aI0
aI0
aI0
aI0
aI0
aI0
aI0
aI0
aI0
aI0
aI0
aI0
aI0
aI0
aI0
aI0
aI0
aI0
aI0
aI0
aI0
aI0
aI0
aI0
aI0
aI0
aI0
aI0
aI0
aI0
aI0
aI0
aI0
aI0
aI0
aI0
aI0
aI0
aI0
aI0
aI0
aI0
aI0
aI0
aI0
aI0
aI0
aI0
aI0
aI0
aI0
aI0
aI0
aI0
aI0
aI0
aI0
aI0
aI0
aI0
aI0
aI0
aI0
aI0
aI0
aI0
aI0
aI0
aI0
aI0
aI0
aI0
aI0
aI0
aI0
aI0
aI0
aI0
aI0
aI0
aI0
aI0
aI0
aI0
aI0
aI0
aI0
aI0
aI0
aI0
aI0
aI0
aI0
aI0
aI0
aI0
aI0
aI0
aI0
aI0
aI0
asVnum_bytes
p7
I254
ssVlen
p8
I96
sVorigin
p9
(lp10
I114
aI-209
asVsize_pixels
p11
(lp12
I24
aI24
asVsize_units
p13
(lp14
I1113
aI790
ass."
EndChar

StartChar: afii10038
Encoding: 258 1060 258
GlifName: afii10038
Width: 593
VWidth: 0
Flags: HW
LayerCount: 2
Fore
SplineSet
43 340 m 256
 43 178 115 95 224 80 c 257
 224 0 l 257
 299 0 l 257
 299 80 l 257
 407 95 479 178 479 340 c 256
 479 501 407 584 299 599 c 257
 299 675 l 257
 224 675 l 257
 224 599 l 257
 115 585 43 501 43 340 c 256
127 340 m 256
 127 451 156 514 224 529 c 257
 224 151 l 257
 156 166 127 228 127 340 c 256
395 340 m 256
 395 230 365 168 299 152 c 257
 299 528 l 257
 365 512 395 450 395 340 c 256
EndSplineSet
Validated: 9
PickledDataWithLists: "(dp0
Vcom.fontlab.v5.background
p1
(dp2
Vdata
p3
(dp4
Vbytes
p5
(lp6
I255
aI0
aI0
aI254
aI255
aI0
aI0
aI254
aI255
aI0
aI0
aI254
aI255
aI60
aI0
aI255
aI231
aI255
aI0
aI255
aI231
aI255
aI0
aI255
aI129
aI255
aI0
aI255
aI0
aI255
aI0
aI255
aI36
aI255
aI0
aI254
aI102
aI127
aI0
aI254
aI102
aI127
aI0
aI254
aI102
aI127
aI0
aI254
aI102
aI127
aI0
aI254
aI102
aI127
aI0
aI255
aI36
aI255
aI0
aI255
aI0
aI255
aI0
aI255
aI129
aI255
aI0
aI255
aI231
aI255
aI0
aI255
aI231
aI255
aI0
aI254
aI255
aI0
aI0
aI254
aI255
aI0
aI0
aI254
aI255
aI0
aI0
aI254
aI255
aI0
aI0
aI254
aI255
aI0
aI0
aI0
aI0
aI0
aI0
aI0
aI0
aI0
aI0
aI0
aI0
aI0
aI0
aI0
aI0
aI0
aI0
aI0
aI0
aI0
aI0
aI0
aI0
aI0
aI0
aI0
aI0
aI0
aI0
aI0
aI0
aI0
aI0
aI0
aI0
aI0
aI0
aI0
aI0
aI0
aI0
aI0
aI0
aI0
aI0
aI0
aI0
aI0
aI0
aI0
aI0
aI0
aI0
aI0
aI0
aI0
aI0
aI0
aI0
aI0
aI0
aI0
aI0
aI0
aI0
aI0
aI0
aI0
aI0
aI0
aI0
aI0
aI0
aI0
aI0
aI0
aI0
aI0
aI0
aI0
aI0
aI0
aI0
aI0
aI0
aI0
aI0
aI0
aI0
aI0
aI0
aI0
aI0
aI0
aI0
aI0
aI0
aI0
aI0
aI0
aI0
aI0
aI0
aI0
aI0
aI0
aI0
aI0
aI0
aI0
aI0
aI0
aI0
aI0
aI0
aI0
aI0
aI0
aI0
aI0
aI0
aI0
aI0
aI0
aI0
aI0
aI0
aI0
aI0
aI0
aI0
aI0
aI0
aI0
aI0
aI0
aI0
aI0
aI0
aI0
aI0
aI0
aI0
aI0
aI0
aI0
aI0
aI0
aI0
aI0
aI0
aI0
aI0
aI0
aI0
aI0
aI0
aI0
aI0
aI0
asVnum_bytes
p7
I254
ssVlen
p8
I96
sVorigin
p9
(lp10
I-175
aI-209
asVsize_pixels
p11
(lp12
I24
aI24
asVsize_units
p13
(lp14
I824
aI790
ass."
EndChar

StartChar: afii10040
Encoding: 260 1062 260
GlifName: afii10040
Width: 593
VWidth: 0
Flags: HW
LayerCount: 2
Back
SplineSet
444.416015625 71.6796875 m 257
 484.3515625 71.6796875 l 257
 484.3515625 -168.959960938 l 257
 404.48046875 -168.959960938 l 257
 404.48046875 0 l 257
 46.080078125 0 l 257
 46.080078125 633.856445312 l 257
 130.047851562 633.856445312 l 257
 130.047851562 71.6796875 l 257
 360.448242188 71.6796875 l 257
 360.448242188 633.856445312 l 257
 444.416015625 633.856445312 l 257
 444.416015625 71.6796875 l 257
EndSplineSet
Fore
SplineSet
46 0 m 257
 404 0 l 257
 404 -169 l 257
 484 -169 l 257
 484 72 l 257
 444 72 l 257
 444 634 l 257
 360 634 l 257
 360 72 l 257
 130 72 l 257
 130 634 l 257
 46 634 l 257
 46 0 l 257
EndSplineSet
Validated: 9
PickledDataWithLists: "(dp0
Vcom.fontlab.v5.background
p1
(dp2
Vdata
p3
(dp4
Vbytes
p5
(lp6
I255
aI0
aI0
aI254
aI255
aI0
aI0
aI254
aI255
aI0
aI0
aI254
aI255
aI72
aI0
aI254
aI124
aI255
aI0
aI254
aI124
aI255
aI0
aI254
aI124
aI255
aI0
aI254
aI124
aI255
aI0
aI254
aI124
aI255
aI0
aI254
aI124
aI255
aI0
aI254
aI124
aI255
aI0
aI254
aI124
aI255
aI0
aI254
aI124
aI255
aI0
aI254
aI124
aI255
aI0
aI254
aI124
aI255
aI0
aI254
aI124
aI255
aI0
aI254
aI124
aI255
aI0
aI254
aI0
aI127
aI0
aI254
aI0
aI127
aI0
aI255
aI254
aI127
aI0
aI255
aI254
aI127
aI0
aI255
aI254
aI127
aI0
aI254
aI255
aI0
aI0
aI254
aI255
aI0
aI0
aI0
aI0
aI0
aI0
aI0
aI0
aI0
aI0
aI0
aI0
aI0
aI0
aI0
aI0
aI0
aI0
aI0
aI0
aI0
aI0
aI0
aI0
aI0
aI0
aI0
aI0
aI0
aI0
aI0
aI0
aI0
aI0
aI0
aI0
aI0
aI0
aI0
aI0
aI0
aI0
aI0
aI0
aI0
aI0
aI0
aI0
aI0
aI0
aI0
aI0
aI0
aI0
aI0
aI0
aI0
aI0
aI0
aI0
aI0
aI0
aI0
aI0
aI0
aI0
aI0
aI0
aI0
aI0
aI0
aI0
aI0
aI0
aI0
aI0
aI0
aI0
aI0
aI0
aI0
aI0
aI0
aI0
aI0
aI0
aI0
aI0
aI0
aI0
aI0
aI0
aI0
aI0
aI0
aI0
aI0
aI0
aI0
aI0
aI0
aI0
aI0
aI0
aI0
aI0
aI0
aI0
aI0
aI0
aI0
aI0
aI0
aI0
aI0
aI0
aI0
aI0
aI0
aI0
aI0
aI0
aI0
aI0
aI0
aI0
aI0
aI0
aI0
aI0
aI0
aI0
aI0
aI0
aI0
aI0
aI0
aI0
aI0
aI0
aI0
aI0
aI0
aI0
aI0
aI0
aI0
aI0
aI0
aI0
aI0
aI0
aI0
aI0
aI0
aI0
aI0
aI0
aI0
aI0
aI0
asVnum_bytes
p7
I254
ssVlen
p8
I96
sVorigin
p9
(lp10
I110
aI-209
asVsize_pixels
p11
(lp12
I24
aI24
asVsize_units
p13
(lp14
I1109
aI790
ass."
EndChar

StartChar: afii10041
Encoding: 261 1063 261
GlifName: afii10041
Width: 593
VWidth: 0
Flags: HW
LayerCount: 2
Fore
SplineSet
140 634 m 257
 55 634 l 257
 55 451 l 258
 55 313 91 223 255 223 c 256
 303 223 354 232 374 238 c 257
 374 0 l 257
 458 0 l 257
 458 634 l 257
 374 634 l 257
 374 310 l 257
 356 305 309 296 266 296 c 256
 167 296 140 347 140 451 c 258
 140 634 l 257
EndSplineSet
Validated: 9
PickledDataWithLists: "(dp0
Vcom.fontlab.v5.background
p1
(dp2
Vdata
p3
(dp4
Vbytes
p5
(lp6
I255
aI0
aI0
aI254
aI255
aI0
aI0
aI254
aI255
aI0
aI0
aI254
aI255
aI60
aI0
aI254
aI124
aI255
aI0
aI254
aI124
aI255
aI0
aI254
aI124
aI255
aI0
aI254
aI124
aI255
aI0
aI254
aI124
aI255
aI0
aI254
aI124
aI255
aI0
aI254
aI124
aI255
aI0
aI254
aI56
aI255
aI0
aI255
aI0
aI255
aI0
aI255
aI132
aI255
aI0
aI255
aI252
aI255
aI0
aI255
aI252
aI255
aI0
aI255
aI252
aI255
aI0
aI255
aI252
aI255
aI0
aI255
aI252
aI255
aI0
aI254
aI255
aI0
aI0
aI254
aI255
aI0
aI0
aI254
aI255
aI0
aI0
aI254
aI255
aI0
aI0
aI254
aI255
aI0
aI0
aI0
aI0
aI0
aI0
aI0
aI0
aI0
aI0
aI0
aI0
aI0
aI0
aI0
aI0
aI0
aI0
aI0
aI0
aI0
aI0
aI0
aI0
aI0
aI0
aI0
aI0
aI0
aI0
aI0
aI0
aI0
aI0
aI0
aI0
aI0
aI0
aI0
aI0
aI0
aI0
aI0
aI0
aI0
aI0
aI0
aI0
aI0
aI0
aI0
aI0
aI0
aI0
aI0
aI0
aI0
aI0
aI0
aI0
aI0
aI0
aI0
aI0
aI0
aI0
aI0
aI0
aI0
aI0
aI0
aI0
aI0
aI0
aI0
aI0
aI0
aI0
aI0
aI0
aI0
aI0
aI0
aI0
aI0
aI0
aI0
aI0
aI0
aI0
aI0
aI0
aI0
aI0
aI0
aI0
aI0
aI0
aI0
aI0
aI0
aI0
aI0
aI0
aI0
aI0
aI0
aI0
aI0
aI0
aI0
aI0
aI0
aI0
aI0
aI0
aI0
aI0
aI0
aI0
aI0
aI0
aI0
aI0
aI0
aI0
aI0
aI0
aI0
aI0
aI0
aI0
aI0
aI0
aI0
aI0
aI0
aI0
aI0
aI0
aI0
aI0
aI0
aI0
aI0
aI0
aI0
aI0
aI0
aI0
aI0
aI0
aI0
aI0
aI0
aI0
aI0
aI0
aI0
aI0
aI0
asVnum_bytes
p7
I254
ssVlen
p8
I96
sVorigin
p9
(lp10
I114
aI-209
asVsize_pixels
p11
(lp12
I24
aI24
asVsize_units
p13
(lp14
I1113
aI790
ass."
EndChar

StartChar: afii10042
Encoding: 262 1064 262
GlifName: afii10042
Width: 593
VWidth: 0
Flags: HW
LayerCount: 2
Back
SplineSet
465.919921875 0 m 257
 465.919921875 633.856445312 l 257
 389.120117188 633.856445312 l 257
 389.120117188 71.6796875 l 257
 294.912109375 71.6796875 l 257
 294.912109375 393.215820312 l 257
 218.112304688 393.215820312 l 257
 218.112304688 71.6796875 l 257
 122.879882812 71.6796875 l 257
 122.879882812 633.856445312 l 257
 46.080078125 633.856445312 l 257
 46.080078125 0 l 257
 465.919921875 0 l 257
EndSplineSet
Fore
SplineSet
46 0 m 257
 466 0 l 257
 466 634 l 257
 389 634 l 257
 389 72 l 257
 295 72 l 257
 295 393 l 257
 218 393 l 257
 218 72 l 257
 123 72 l 257
 123 634 l 257
 46 634 l 257
 46 0 l 257
EndSplineSet
Validated: 9
PickledDataWithLists: "(dp0
Vcom.fontlab.v5.background
p1
(dp2
Vdata
p3
(dp4
Vbytes
p5
(lp6
I255
aI0
aI0
aI254
aI255
aI0
aI0
aI254
aI255
aI0
aI0
aI254
aI255
aI60
aI0
aI254
aI102
aI127
aI0
aI254
aI102
aI127
aI0
aI254
aI102
aI127
aI0
aI254
aI102
aI127
aI0
aI254
aI102
aI127
aI0
aI254
aI102
aI127
aI0
aI254
aI102
aI127
aI0
aI254
aI102
aI127
aI0
aI254
aI102
aI127
aI0
aI254
aI102
aI127
aI0
aI254
aI102
aI127
aI0
aI254
aI102
aI127
aI0
aI254
aI102
aI127
aI0
aI254
aI0
aI127
aI0
aI254
aI0
aI127
aI0
aI254
aI255
aI0
aI0
aI254
aI255
aI0
aI0
aI254
aI255
aI0
aI0
aI254
aI255
aI0
aI0
aI254
aI255
aI0
aI0
aI0
aI0
aI0
aI0
aI0
aI0
aI0
aI0
aI0
aI0
aI0
aI0
aI0
aI0
aI0
aI0
aI0
aI0
aI0
aI0
aI0
aI0
aI0
aI0
aI0
aI0
aI0
aI0
aI0
aI0
aI0
aI0
aI0
aI0
aI0
aI0
aI0
aI0
aI0
aI0
aI0
aI0
aI0
aI0
aI0
aI0
aI0
aI0
aI0
aI0
aI0
aI0
aI0
aI0
aI0
aI0
aI0
aI0
aI0
aI0
aI0
aI0
aI0
aI0
aI0
aI0
aI0
aI0
aI0
aI0
aI0
aI0
aI0
aI0
aI0
aI0
aI0
aI0
aI0
aI0
aI0
aI0
aI0
aI0
aI0
aI0
aI0
aI0
aI0
aI0
aI0
aI0
aI0
aI0
aI0
aI0
aI0
aI0
aI0
aI0
aI0
aI0
aI0
aI0
aI0
aI0
aI0
aI0
aI0
aI0
aI0
aI0
aI0
aI0
aI0
aI0
aI0
aI0
aI0
aI0
aI0
aI0
aI0
aI0
aI0
aI0
aI0
aI0
aI0
aI0
aI0
aI0
aI0
aI0
aI0
aI0
aI0
aI0
aI0
aI0
aI0
aI0
aI0
aI0
aI0
aI0
aI0
aI0
aI0
aI0
aI0
aI0
aI0
aI0
aI0
aI0
aI0
aI0
aI0
asVnum_bytes
p7
I254
ssVlen
p8
I96
sVorigin
p9
(lp10
I-31783
aI-209
asVsize_pixels
p11
(lp12
I24
aI24
asVsize_units
p13
(lp14
I-30784
aI790
ass."
EndChar

StartChar: afii10043
Encoding: 263 1065 263
GlifName: afii10043
Width: 593
VWidth: 0
Flags: HW
LayerCount: 2
Back
SplineSet
404.48046875 0 m 257
 404.48046875 -168.959960938 l 257
 484.3515625 -168.959960938 l 257
 484.3515625 71.6796875 l 257
 444.416015625 71.6796875 l 257
 444.416015625 633.856445312 l 257
 367.616210938 633.856445312 l 257
 367.616210938 71.6796875 l 257
 283.6484375 71.6796875 l 257
 283.6484375 393.215820312 l 257
 206.84765625 393.215820312 l 257
 206.84765625 71.6796875 l 257
 122.879882812 71.6796875 l 257
 122.879882812 633.856445312 l 257
 46.080078125 633.856445312 l 257
 46.080078125 0 l 257
 404.48046875 0 l 257
EndSplineSet
Fore
SplineSet
46 0 m 257
 404 0 l 257
 404 -169 l 257
 484 -169 l 257
 484 72 l 257
 444 72 l 257
 444 634 l 257
 368 634 l 257
 368 72 l 257
 284 72 l 257
 284 393 l 257
 207 393 l 257
 207 72 l 257
 123 72 l 257
 123 634 l 257
 46 634 l 257
 46 0 l 257
EndSplineSet
Validated: 9
PickledDataWithLists: "(dp0
Vcom.fontlab.v5.background
p1
(dp2
Vdata
p3
(dp4
Vbytes
p5
(lp6
I255
aI0
aI0
aI254
aI255
aI0
aI0
aI254
aI255
aI0
aI0
aI254
aI255
aI72
aI0
aI252
aI204
aI255
aI0
aI252
aI204
aI255
aI0
aI252
aI204
aI255
aI0
aI252
aI204
aI255
aI0
aI252
aI204
aI255
aI0
aI252
aI204
aI255
aI0
aI252
aI204
aI255
aI0
aI252
aI204
aI255
aI0
aI252
aI204
aI255
aI0
aI252
aI204
aI255
aI0
aI252
aI204
aI255
aI0
aI252
aI204
aI255
aI0
aI252
aI204
aI255
aI0
aI252
aI0
aI63
aI0
aI252
aI0
aI63
aI0
aI255
aI255
aI63
aI0
aI255
aI255
aI63
aI0
aI255
aI255
aI63
aI0
aI254
aI255
aI0
aI0
aI254
aI255
aI0
aI0
aI0
aI0
aI0
aI0
aI0
aI0
aI0
aI0
aI0
aI0
aI0
aI0
aI0
aI0
aI0
aI0
aI0
aI0
aI0
aI0
aI0
aI0
aI0
aI0
aI0
aI0
aI0
aI0
aI0
aI0
aI0
aI0
aI0
aI0
aI0
aI0
aI0
aI0
aI0
aI0
aI0
aI0
aI0
aI0
aI0
aI0
aI0
aI0
aI0
aI0
aI0
aI0
aI0
aI0
aI0
aI0
aI0
aI0
aI0
aI0
aI0
aI0
aI0
aI0
aI0
aI0
aI0
aI0
aI0
aI0
aI0
aI0
aI0
aI0
aI0
aI0
aI0
aI0
aI0
aI0
aI0
aI0
aI0
aI0
aI0
aI0
aI0
aI0
aI0
aI0
aI0
aI0
aI0
aI0
aI0
aI0
aI0
aI0
aI0
aI0
aI0
aI0
aI0
aI0
aI0
aI0
aI0
aI0
aI0
aI0
aI0
aI0
aI0
aI0
aI0
aI0
aI0
aI0
aI0
aI0
aI0
aI0
aI0
aI0
aI0
aI0
aI0
aI0
aI0
aI0
aI0
aI0
aI0
aI0
aI0
aI0
aI0
aI0
aI0
aI0
aI0
aI0
aI0
aI0
aI0
aI0
aI0
aI0
aI0
aI0
aI0
aI0
aI0
aI0
aI0
aI0
aI0
aI0
aI0
asVnum_bytes
p7
I254
ssVlen
p8
I96
sVorigin
p9
(lp10
I-31783
aI-209
asVsize_pixels
p11
(lp12
I24
aI24
asVsize_units
p13
(lp14
I-30784
aI790
ass."
EndChar

StartChar: afii10044
Encoding: 264 1066 264
GlifName: afii10044
Width: 593
VWidth: 0
Flags: HW
LayerCount: 2
Fore
SplineSet
471 199 m 256
 471 346 380 406 250 406 c 256
 234 406 216 404 199 402 c 257
 199 634 l 257
 18 634 l 257
 18 562 l 257
 115 562 l 257
 115 9 l 257
 161 -1 207 -7 249 -7 c 256
 374 -7 471 46 471 199 c 256
385 199 m 256
 385 97 326 65 249 65 c 256
 233 65 216 65 199 68 c 257
 199 332 l 257
 212 333 227 334 239 334 c 256
 328 334 385 303 385 199 c 256
EndSplineSet
Validated: 9
PickledDataWithLists: "(dp0
Vcom.fontlab.v5.background
p1
(dp2
Vdata
p3
(dp4
Vbytes
p5
(lp6
I255
aI0
aI0
aI254
aI255
aI0
aI0
aI254
aI255
aI0
aI0
aI254
aI255
aI60
aI0
aI252
aI31
aI255
aI0
aI252
aI31
aI255
aI0
aI255
aI159
aI255
aI0
aI255
aI159
aI255
aI0
aI255
aI159
aI255
aI0
aI255
aI131
aI255
aI0
aI255
aI128
aI255
aI0
aI255
aI156
aI255
aI0
aI255
aI158
aI127
aI0
aI255
aI158
aI127
aI0
aI255
aI158
aI127
aI0
aI255
aI158
aI127
aI0
aI255
aI156
aI255
aI0
aI255
aI128
aI255
aI0
aI255
aI131
aI255
aI0
aI254
aI255
aI0
aI0
aI254
aI255
aI0
aI0
aI254
aI255
aI0
aI0
aI254
aI255
aI0
aI0
aI254
aI255
aI0
aI0
aI0
aI0
aI0
aI0
aI0
aI0
aI0
aI0
aI0
aI0
aI0
aI0
aI0
aI0
aI0
aI0
aI0
aI0
aI0
aI0
aI0
aI0
aI0
aI0
aI0
aI0
aI0
aI0
aI0
aI0
aI0
aI0
aI0
aI0
aI0
aI0
aI0
aI0
aI0
aI0
aI0
aI0
aI0
aI0
aI0
aI0
aI0
aI0
aI0
aI0
aI0
aI0
aI0
aI0
aI0
aI0
aI0
aI0
aI0
aI0
aI0
aI0
aI0
aI0
aI0
aI0
aI0
aI0
aI0
aI0
aI0
aI0
aI0
aI0
aI0
aI0
aI0
aI0
aI0
aI0
aI0
aI0
aI0
aI0
aI0
aI0
aI0
aI0
aI0
aI0
aI0
aI0
aI0
aI0
aI0
aI0
aI0
aI0
aI0
aI0
aI0
aI0
aI0
aI0
aI0
aI0
aI0
aI0
aI0
aI0
aI0
aI0
aI0
aI0
aI0
aI0
aI0
aI0
aI0
aI0
aI0
aI0
aI0
aI0
aI0
aI0
aI0
aI0
aI0
aI0
aI0
aI0
aI0
aI0
aI0
aI0
aI0
aI0
aI0
aI0
aI0
aI0
aI0
aI0
aI0
aI0
aI0
aI0
aI0
aI0
aI0
aI0
aI0
aI0
aI0
aI0
aI0
aI0
aI0
asVnum_bytes
p7
I254
ssVlen
p8
I96
sVorigin
p9
(lp10
I114
aI-209
asVsize_pixels
p11
(lp12
I24
aI24
asVsize_units
p13
(lp14
I1113
aI790
ass."
EndChar

StartChar: afii10045
Encoding: 265 1067 265
GlifName: afii10045
Width: 593
VWidth: 0
Flags: HW
LayerCount: 2
Fore
SplineSet
335 199 m 256
 335 333 271 406 159 406 c 256
 146 406 132 403 117 401 c 257
 117 634 l 257
 37 634 l 257
 37 9 l 257
 73 -2 121 -6 157 -6 c 256
 270 -6 335 63 335 199 c 256
252 199 m 256
 252 109 227 65 161 65 c 256
 148 65 133 66 117 70 c 257
 117 330 l 257
 130 332 142 334 152 334 c 256
 229 334 252 280 252 199 c 256
395 0 m 257
 475 0 l 257
 475 634 l 257
 395 634 l 257
 395 0 l 257
EndSplineSet
Validated: 9
PickledDataWithLists: "(dp0
Vcom.fontlab.v5.background
p1
(dp2
Vdata
p3
(dp4
Vbytes
p5
(lp6
I255
aI0
aI0
aI254
aI255
aI0
aI0
aI254
aI255
aI0
aI0
aI254
aI255
aI60
aI0
aI252
aI254
aI127
aI0
aI252
aI254
aI127
aI0
aI252
aI254
aI127
aI0
aI252
aI254
aI127
aI0
aI252
aI254
aI127
aI0
aI252
aI30
aI127
aI0
aI252
aI6
aI127
aI0
aI252
aI230
aI127
aI0
aI252
aI242
aI127
aI0
aI252
aI242
aI127
aI0
aI252
aI242
aI127
aI0
aI252
aI242
aI127
aI0
aI252
aI230
aI127
aI0
aI252
aI6
aI127
aI0
aI252
aI30
aI127
aI0
aI254
aI255
aI0
aI0
aI254
aI255
aI0
aI0
aI254
aI255
aI0
aI0
aI254
aI255
aI0
aI0
aI254
aI255
aI0
aI0
aI0
aI0
aI0
aI0
aI0
aI0
aI0
aI0
aI0
aI0
aI0
aI0
aI0
aI0
aI0
aI0
aI0
aI0
aI0
aI0
aI0
aI0
aI0
aI0
aI0
aI0
aI0
aI0
aI0
aI0
aI0
aI0
aI0
aI0
aI0
aI0
aI0
aI0
aI0
aI0
aI0
aI0
aI0
aI0
aI0
aI0
aI0
aI0
aI0
aI0
aI0
aI0
aI0
aI0
aI0
aI0
aI0
aI0
aI0
aI0
aI0
aI0
aI0
aI0
aI0
aI0
aI0
aI0
aI0
aI0
aI0
aI0
aI0
aI0
aI0
aI0
aI0
aI0
aI0
aI0
aI0
aI0
aI0
aI0
aI0
aI0
aI0
aI0
aI0
aI0
aI0
aI0
aI0
aI0
aI0
aI0
aI0
aI0
aI0
aI0
aI0
aI0
aI0
aI0
aI0
aI0
aI0
aI0
aI0
aI0
aI0
aI0
aI0
aI0
aI0
aI0
aI0
aI0
aI0
aI0
aI0
aI0
aI0
aI0
aI0
aI0
aI0
aI0
aI0
aI0
aI0
aI0
aI0
aI0
aI0
aI0
aI0
aI0
aI0
aI0
aI0
aI0
aI0
aI0
aI0
aI0
aI0
aI0
aI0
aI0
aI0
aI0
aI0
aI0
aI0
aI0
aI0
aI0
aI0
asVnum_bytes
p7
I254
ssVlen
p8
I96
sVorigin
p9
(lp10
I114
aI-209
asVsize_pixels
p11
(lp12
I24
aI24
asVsize_units
p13
(lp14
I1113
aI790
ass."
EndChar

StartChar: afii10046
Encoding: 266 1068 266
GlifName: afii10046
Width: 593
VWidth: 0
Flags: HW
LayerCount: 2
Fore
SplineSet
471 199 m 256
 471 337 385 406 201 406 c 256
 176 406 154 405 130 403 c 257
 130 634 l 257
 46 634 l 257
 46 9 l 257
 96 -3 156 -6 206 -6 c 256
 379 -6 471 63 471 199 c 256
385 199 m 256
 385 98 303 65 213 65 c 256
 175 65 150 65 130 68 c 257
 130 333 l 257
 154 336 175 335 198 335 c 256
 309 335 385 302 385 199 c 256
EndSplineSet
Validated: 41
PickledDataWithLists: "(dp0
Vcom.fontlab.v5.background
p1
(dp2
Vdata
p3
(dp4
Vbytes
p5
(lp6
I255
aI0
aI0
aI254
aI255
aI0
aI0
aI254
aI255
aI0
aI0
aI254
aI255
aI60
aI0
aI254
aI127
aI255
aI0
aI254
aI127
aI255
aI0
aI254
aI127
aI255
aI0
aI254
aI127
aI255
aI0
aI254
aI127
aI255
aI0
aI254
aI7
aI255
aI0
aI254
aI1
aI255
aI0
aI254
aI113
aI255
aI0
aI254
aI124
aI255
aI0
aI254
aI124
aI255
aI0
aI254
aI124
aI255
aI0
aI254
aI124
aI255
aI0
aI254
aI121
aI255
aI0
aI254
aI1
aI255
aI0
aI254
aI7
aI255
aI0
aI254
aI255
aI0
aI0
aI254
aI255
aI0
aI0
aI254
aI255
aI0
aI0
aI254
aI255
aI0
aI0
aI254
aI255
aI0
aI0
aI0
aI0
aI0
aI0
aI0
aI0
aI0
aI0
aI0
aI0
aI0
aI0
aI0
aI0
aI0
aI0
aI0
aI0
aI0
aI0
aI0
aI0
aI0
aI0
aI0
aI0
aI0
aI0
aI0
aI0
aI0
aI0
aI0
aI0
aI0
aI0
aI0
aI0
aI0
aI0
aI0
aI0
aI0
aI0
aI0
aI0
aI0
aI0
aI0
aI0
aI0
aI0
aI0
aI0
aI0
aI0
aI0
aI0
aI0
aI0
aI0
aI0
aI0
aI0
aI0
aI0
aI0
aI0
aI0
aI0
aI0
aI0
aI0
aI0
aI0
aI0
aI0
aI0
aI0
aI0
aI0
aI0
aI0
aI0
aI0
aI0
aI0
aI0
aI0
aI0
aI0
aI0
aI0
aI0
aI0
aI0
aI0
aI0
aI0
aI0
aI0
aI0
aI0
aI0
aI0
aI0
aI0
aI0
aI0
aI0
aI0
aI0
aI0
aI0
aI0
aI0
aI0
aI0
aI0
aI0
aI0
aI0
aI0
aI0
aI0
aI0
aI0
aI0
aI0
aI0
aI0
aI0
aI0
aI0
aI0
aI0
aI0
aI0
aI0
aI0
aI0
aI0
aI0
aI0
aI0
aI0
aI0
aI0
aI0
aI0
aI0
aI0
aI0
aI0
aI0
aI0
aI0
aI0
aI0
asVnum_bytes
p7
I254
ssVlen
p8
I96
sVorigin
p9
(lp10
I-166
aI-209
asVsize_pixels
p11
(lp12
I24
aI24
asVsize_units
p13
(lp14
I833
aI790
ass."
EndChar

StartChar: afii10047
Encoding: 267 1069 267
GlifName: afii10047
Width: 593
VWidth: 0
Flags: HW
LayerCount: 2
Fore
SplineSet
217 648 m 256
 133 648 73 622 48 607 c 257
 70 542 l 257
 94 554 142 575 209 575 c 256
 327 575 385 488 396 359 c 257
 162 359 l 257
 162 288 l 257
 397 288 l 257
 388 142 320 59 204 59 c 256
 152 59 91 81 69 96 c 257
 47 29 l 257
 65 17 124 -13 213 -13 c 256
 370 -13 480 98 480 317 c 256
 480 534 376 648 217 648 c 256
EndSplineSet
Validated: 9
PickledDataWithLists: "(dp0
Vcom.fontlab.v5.background
p1
(dp2
Vdata
p3
(dp4
Vbytes
p5
(lp6
I255
aI0
aI0
aI254
aI255
aI0
aI0
aI254
aI255
aI0
aI0
aI254
aI255
aI60
aI0
aI255
aI135
aI255
aI0
aI254
aI3
aI255
aI0
aI254
aI241
aI255
aI0
aI255
aI249
aI255
aI0
aI255
aI252
aI255
aI0
aI255
aI252
aI255
aI0
aI255
aI128
aI255
aI0
aI255
aI128
aI255
aI0
aI255
aI252
aI255
aI0
aI255
aI252
aI255
aI0
aI255
aI252
aI255
aI0
aI255
aI249
aI255
aI0
aI254
aI241
aI255
aI0
aI254
aI3
aI255
aI0
aI255
aI135
aI255
aI0
aI254
aI255
aI0
aI0
aI254
aI255
aI0
aI0
aI254
aI255
aI0
aI0
aI254
aI255
aI0
aI0
aI254
aI255
aI0
aI0
aI0
aI0
aI0
aI0
aI0
aI0
aI0
aI0
aI0
aI0
aI0
aI0
aI0
aI0
aI0
aI0
aI0
aI0
aI0
aI0
aI0
aI0
aI0
aI0
aI0
aI0
aI0
aI0
aI0
aI0
aI0
aI0
aI0
aI0
aI0
aI0
aI0
aI0
aI0
aI0
aI0
aI0
aI0
aI0
aI0
aI0
aI0
aI0
aI0
aI0
aI0
aI0
aI0
aI0
aI0
aI0
aI0
aI0
aI0
aI0
aI0
aI0
aI0
aI0
aI0
aI0
aI0
aI0
aI0
aI0
aI0
aI0
aI0
aI0
aI0
aI0
aI0
aI0
aI0
aI0
aI0
aI0
aI0
aI0
aI0
aI0
aI0
aI0
aI0
aI0
aI0
aI0
aI0
aI0
aI0
aI0
aI0
aI0
aI0
aI0
aI0
aI0
aI0
aI0
aI0
aI0
aI0
aI0
aI0
aI0
aI0
aI0
aI0
aI0
aI0
aI0
aI0
aI0
aI0
aI0
aI0
aI0
aI0
aI0
aI0
aI0
aI0
aI0
aI0
aI0
aI0
aI0
aI0
aI0
aI0
aI0
aI0
aI0
aI0
aI0
aI0
aI0
aI0
aI0
aI0
aI0
aI0
aI0
aI0
aI0
aI0
aI0
aI0
aI0
aI0
aI0
aI0
aI0
aI0
asVnum_bytes
p7
I254
ssVlen
p8
I96
sVorigin
p9
(lp10
I114
aI-209
asVsize_pixels
p11
(lp12
I24
aI24
asVsize_units
p13
(lp14
I1113
aI790
ass."
EndChar

StartChar: afii10048
Encoding: 268 1070 268
GlifName: afii10048
Width: 593
VWidth: 0
Flags: HW
LayerCount: 2
Fore
SplineSet
126 634 m 257
 46 634 l 257
 46 0 l 257
 126 0 l 257
 126 295 l 257
 187 295 l 257
 190 75 242 -13 334 -13 c 256
 428 -13 484 80 484 317 c 256
 484 553 431 648 334 648 c 256
 248 648 195 567 188 367 c 257
 126 367 l 257
 126 634 l 257
268 317 m 256
 268 474 289 577 336 577 c 256
 382 577 404 474 404 317 c 256
 404 166 382 57 336 57 c 256
 289 57 268 166 268 317 c 256
EndSplineSet
Validated: 9
PickledDataWithLists: "(dp0
Vcom.fontlab.v5.background
p1
(dp2
Vdata
p3
(dp4
Vbytes
p5
(lp6
I255
aI0
aI0
aI254
aI255
aI0
aI0
aI254
aI255
aI0
aI0
aI254
aI255
aI60
aI0
aI252
aI241
aI255
aI0
aI252
aI224
aI255
aI0
aI252
aI228
aI255
aI0
aI252
aI206
aI127
aI0
aI252
aI206
aI127
aI0
aI252
aI206
aI127
aI0
aI252
aI14
aI127
aI0
aI252
aI14
aI127
aI0
aI252
aI206
aI127
aI0
aI252
aI206
aI127
aI0
aI252
aI206
aI127
aI0
aI252
aI206
aI127
aI0
aI252
aI228
aI255
aI0
aI252
aI224
aI255
aI0
aI252
aI241
aI255
aI0
aI254
aI255
aI0
aI0
aI254
aI255
aI0
aI0
aI254
aI255
aI0
aI0
aI254
aI255
aI0
aI0
aI254
aI255
aI0
aI0
aI0
aI0
aI0
aI0
aI0
aI0
aI0
aI0
aI0
aI0
aI0
aI0
aI0
aI0
aI0
aI0
aI0
aI0
aI0
aI0
aI0
aI0
aI0
aI0
aI0
aI0
aI0
aI0
aI0
aI0
aI0
aI0
aI0
aI0
aI0
aI0
aI0
aI0
aI0
aI0
aI0
aI0
aI0
aI0
aI0
aI0
aI0
aI0
aI0
aI0
aI0
aI0
aI0
aI0
aI0
aI0
aI0
aI0
aI0
aI0
aI0
aI0
aI0
aI0
aI0
aI0
aI0
aI0
aI0
aI0
aI0
aI0
aI0
aI0
aI0
aI0
aI0
aI0
aI0
aI0
aI0
aI0
aI0
aI0
aI0
aI0
aI0
aI0
aI0
aI0
aI0
aI0
aI0
aI0
aI0
aI0
aI0
aI0
aI0
aI0
aI0
aI0
aI0
aI0
aI0
aI0
aI0
aI0
aI0
aI0
aI0
aI0
aI0
aI0
aI0
aI0
aI0
aI0
aI0
aI0
aI0
aI0
aI0
aI0
aI0
aI0
aI0
aI0
aI0
aI0
aI0
aI0
aI0
aI0
aI0
aI0
aI0
aI0
aI0
aI0
aI0
aI0
aI0
aI0
aI0
aI0
aI0
aI0
aI0
aI0
aI0
aI0
aI0
aI0
aI0
aI0
aI0
aI0
aI0
asVnum_bytes
p7
I254
ssVlen
p8
I96
sVorigin
p9
(lp10
I-31783
aI-209
asVsize_pixels
p11
(lp12
I24
aI24
asVsize_units
p13
(lp14
I-30784
aI790
ass."
EndChar

StartChar: afii10049
Encoding: 269 1071 269
GlifName: afii10049
Width: 593
VWidth: 0
Flags: HW
LayerCount: 2
Fore
SplineSet
148 0 m 257
 189 90 244 192 282 250 c 257
 291 249 308 249 312 249 c 258
 385 249 l 257
 385 0 l 257
 469 0 l 257
 469 625 l 257
 427 636 358 640 314 640 c 256
 163 640 84 572 84 440 c 256
 84 361 128 301 199 267 c 257
 158 205 100 99 58 0 c 257
 148 0 l 257
308 568 m 256
 339 568 372 565 385 563 c 257
 385 318 l 257
 330 318 l 258
 234 318 170 338 170 440 c 256
 170 538 234 568 308 568 c 256
EndSplineSet
Validated: 9
PickledDataWithLists: "(dp0
Vcom.fontlab.v5.background
p1
(dp2
Vdata
p3
(dp4
Vbytes
p5
(lp6
I255
aI0
aI0
aI254
aI255
aI0
aI0
aI254
aI255
aI0
aI0
aI254
aI255
aI60
aI0
aI255
aI192
aI127
aI0
aI255
aI128
aI127
aI0
aI255
aI30
aI127
aI0
aI255
aI62
aI127
aI0
aI255
aI62
aI127
aI0
aI255
aI30
aI127
aI0
aI255
aI128
aI127
aI0
aI255
aI224
aI127
aI0
aI255
aI230
aI127
aI0
aI255
aI206
aI127
aI0
aI255
aI206
aI127
aI0
aI255
aI158
aI127
aI0
aI255
aI62
aI127
aI0
aI255
aI62
aI127
aI0
aI254
aI126
aI127
aI0
aI254
aI255
aI0
aI0
aI254
aI255
aI0
aI0
aI254
aI255
aI0
aI0
aI254
aI255
aI0
aI0
aI254
aI255
aI0
aI0
aI0
aI0
aI0
aI0
aI0
aI0
aI0
aI0
aI0
aI0
aI0
aI0
aI0
aI0
aI0
aI0
aI0
aI0
aI0
aI0
aI0
aI0
aI0
aI0
aI0
aI0
aI0
aI0
aI0
aI0
aI0
aI0
aI0
aI0
aI0
aI0
aI0
aI0
aI0
aI0
aI0
aI0
aI0
aI0
aI0
aI0
aI0
aI0
aI0
aI0
aI0
aI0
aI0
aI0
aI0
aI0
aI0
aI0
aI0
aI0
aI0
aI0
aI0
aI0
aI0
aI0
aI0
aI0
aI0
aI0
aI0
aI0
aI0
aI0
aI0
aI0
aI0
aI0
aI0
aI0
aI0
aI0
aI0
aI0
aI0
aI0
aI0
aI0
aI0
aI0
aI0
aI0
aI0
aI0
aI0
aI0
aI0
aI0
aI0
aI0
aI0
aI0
aI0
aI0
aI0
aI0
aI0
aI0
aI0
aI0
aI0
aI0
aI0
aI0
aI0
aI0
aI0
aI0
aI0
aI0
aI0
aI0
aI0
aI0
aI0
aI0
aI0
aI0
aI0
aI0
aI0
aI0
aI0
aI0
aI0
aI0
aI0
aI0
aI0
aI0
aI0
aI0
aI0
aI0
aI0
aI0
aI0
aI0
aI0
aI0
aI0
aI0
aI0
aI0
aI0
aI0
aI0
aI0
aI0
asVnum_bytes
p7
I254
ssVlen
p8
I96
sVorigin
p9
(lp10
I-166
aI-209
asVsize_pixels
p11
(lp12
I24
aI24
asVsize_units
p13
(lp14
I833
aI790
ass."
EndChar

StartChar: afii10050
Encoding: 270 1168 270
GlifName: afii10050
Width: 593
VWidth: 0
Flags: HW
LayerCount: 2
Fore
SplineSet
55 72 m 257
 55 0 l 257
 368 0 l 257
 368 72 l 257
 230 72 l 257
 230 562 l 257
 471 562 l 257
 471 755 l 257
 390 755 l 257
 390 634 l 257
 146 634 l 257
 146 72 l 257
 55 72 l 257
EndSplineSet
Validated: 9
PickledDataWithLists: "(dp0
Vcom.fontlab.v5.background
p1
(dp2
Vdata
p3
(dp4
Vbytes
p5
(lp6
I255
aI72
aI0
aI255
aI252
aI255
aI0
aI255
aI252
aI255
aI0
aI255
aI252
aI255
aI0
aI254
aI0
aI255
aI0
aI254
aI0
aI255
aI0
aI254
aI127
aI255
aI0
aI254
aI127
aI255
aI0
aI254
aI127
aI255
aI0
aI254
aI127
aI255
aI0
aI254
aI127
aI255
aI0
aI254
aI127
aI255
aI0
aI254
aI127
aI255
aI0
aI254
aI127
aI255
aI0
aI254
aI127
aI255
aI0
aI254
aI127
aI255
aI0
aI254
aI127
aI255
aI0
aI254
aI127
aI255
aI0
aI254
aI127
aI255
aI0
aI254
aI255
aI0
aI0
aI254
aI255
aI0
aI0
aI254
aI255
aI0
aI0
aI254
aI255
aI0
aI0
aI254
aI255
aI0
aI0
aI0
aI0
aI0
aI0
aI0
aI0
aI0
aI0
aI0
aI0
aI0
aI0
aI0
aI0
aI0
aI0
aI0
aI0
aI0
aI0
aI0
aI0
aI0
aI0
aI0
aI0
aI0
aI0
aI0
aI0
aI0
aI0
aI0
aI0
aI0
aI0
aI0
aI0
aI0
aI0
aI0
aI0
aI0
aI0
aI0
aI0
aI0
aI0
aI0
aI0
aI0
aI0
aI0
aI0
aI0
aI0
aI0
aI0
aI0
aI0
aI0
aI0
aI0
aI0
aI0
aI0
aI0
aI0
aI0
aI0
aI0
aI0
aI0
aI0
aI0
aI0
aI0
aI0
aI0
aI0
aI0
aI0
aI0
aI0
aI0
aI0
aI0
aI0
aI0
aI0
aI0
aI0
aI0
aI0
aI0
aI0
aI0
aI0
aI0
aI0
aI0
aI0
aI0
aI0
aI0
aI0
aI0
aI0
aI0
aI0
aI0
aI0
aI0
aI0
aI0
aI0
aI0
aI0
aI0
aI0
aI0
aI0
aI0
aI0
aI0
aI0
aI0
aI0
aI0
aI0
aI0
aI0
aI0
aI0
aI0
aI0
aI0
aI0
aI0
aI0
aI0
aI0
aI0
aI0
aI0
aI0
aI0
aI0
aI0
aI0
aI0
aI0
aI0
aI0
aI0
aI0
aI0
aI0
aI0
asVnum_bytes
p7
I254
ssVlen
p8
I96
sVorigin
p9
(lp10
I-166
aI-208
asVsize_pixels
p11
(lp12
I24
aI24
asVsize_units
p13
(lp14
I833
aI791
ass."
EndChar

StartChar: afii10051
Encoding: 271 1026 271
GlifName: afii10051
Width: 593
VWidth: 0
Flags: HW
LayerCount: 2
Fore
SplineSet
189 562 m 257
 384 562 l 257
 384 634 l 257
 18 634 l 257
 18 562 l 257
 105 562 l 257
 105 0 l 257
 189 0 l 257
 189 314 l 257
 218 322 244 328 270 328 c 256
 335 328 385 293 385 190 c 256
 385 119 350 66 283 66 c 256
 266 66 256 67 249 68 c 257
 246 1 l 257
 261 -2 281 -2 298 -2 c 256
 415 -2 471 88 471 193 c 256
 471 319 400 398 280 398 c 256
 252 398 221 394 189 385 c 257
 189 562 l 257
EndSplineSet
Validated: 9
PickledDataWithLists: "(dp0
Vcom.fontlab.v5.background
p1
(dp2
Vdata
p3
(dp4
Vbytes
p5
(lp6
I255
aI0
aI0
aI254
aI255
aI0
aI0
aI254
aI255
aI0
aI0
aI254
aI255
aI60
aI0
aI252
aI3
aI255
aI0
aI252
aI3
aI255
aI0
aI255
aI159
aI255
aI0
aI255
aI159
aI255
aI0
aI255
aI159
aI255
aI0
aI255
aI145
aI255
aI0
aI255
aI128
aI255
aI0
aI255
aI140
aI127
aI0
aI255
aI158
aI127
aI0
aI255
aI158
aI127
aI0
aI255
aI158
aI127
aI0
aI255
aI158
aI127
aI0
aI255
aI156
aI127
aI0
aI255
aI144
aI255
aI0
aI255
aI145
aI255
aI0
aI254
aI255
aI0
aI0
aI254
aI255
aI0
aI0
aI254
aI255
aI0
aI0
aI254
aI255
aI0
aI0
aI254
aI255
aI0
aI0
aI0
aI0
aI0
aI0
aI0
aI0
aI0
aI0
aI0
aI0
aI0
aI0
aI0
aI0
aI0
aI0
aI0
aI0
aI0
aI0
aI0
aI0
aI0
aI0
aI0
aI0
aI0
aI0
aI0
aI0
aI0
aI0
aI0
aI0
aI0
aI0
aI0
aI0
aI0
aI0
aI0
aI0
aI0
aI0
aI0
aI0
aI0
aI0
aI0
aI0
aI0
aI0
aI0
aI0
aI0
aI0
aI0
aI0
aI0
aI0
aI0
aI0
aI0
aI0
aI0
aI0
aI0
aI0
aI0
aI0
aI0
aI0
aI0
aI0
aI0
aI0
aI0
aI0
aI0
aI0
aI0
aI0
aI0
aI0
aI0
aI0
aI0
aI0
aI0
aI0
aI0
aI0
aI0
aI0
aI0
aI0
aI0
aI0
aI0
aI0
aI0
aI0
aI0
aI0
aI0
aI0
aI0
aI0
aI0
aI0
aI0
aI0
aI0
aI0
aI0
aI0
aI0
aI0
aI0
aI0
aI0
aI0
aI0
aI0
aI0
aI0
aI0
aI0
aI0
aI0
aI0
aI0
aI0
aI0
aI0
aI0
aI0
aI0
aI0
aI0
aI0
aI0
aI0
aI0
aI0
aI0
aI0
aI0
aI0
aI0
aI0
aI0
aI0
aI0
aI0
aI0
aI0
aI0
aI0
asVnum_bytes
p7
I254
ssVlen
p8
I96
sVorigin
p9
(lp10
I-166
aI-208
asVsize_pixels
p11
(lp12
I24
aI24
asVsize_units
p13
(lp14
I833
aI791
ass."
EndChar

StartChar: afii10053
Encoding: 273 1028 273
GlifName: afii10053
Width: 593
VWidth: 0
Flags: HW
LayerCount: 2
Fore
SplineSet
302 648 m 256
 142 648 39 529 39 317 c 256
 39 105 149 -13 305 -13 c 256
 395 -13 453 17 471 29 c 257
 450 96 l 257
 428 81 366 59 314 59 c 256
 199 59 131 148 122 288 c 257
 356 288 l 257
 356 359 l 257
 123 359 l 257
 133 488 192 575 309 575 c 256
 376 575 425 554 449 542 c 257
 470 607 l 257
 445 622 385 648 302 648 c 256
EndSplineSet
Validated: 9
PickledDataWithLists: "(dp0
Vcom.fontlab.v5.background
p1
(dp2
Vdata
p3
(dp4
Vbytes
p5
(lp6
I255
aI0
aI0
aI254
aI255
aI0
aI0
aI254
aI255
aI0
aI0
aI254
aI255
aI60
aI0
aI255
aI195
aI255
aI0
aI255
aI128
aI255
aI0
aI255
aI30
aI255
aI0
aI255
aI63
aI255
aI0
aI254
aI127
aI255
aI0
aI254
aI127
aI255
aI0
aI254
aI3
aI255
aI0
aI254
aI3
aI255
aI0
aI254
aI127
aI255
aI0
aI254
aI127
aI255
aI0
aI254
aI127
aI255
aI0
aI255
aI63
aI255
aI0
aI255
aI30
aI255
aI0
aI255
aI128
aI255
aI0
aI255
aI195
aI255
aI0
aI254
aI255
aI0
aI0
aI254
aI255
aI0
aI0
aI254
aI255
aI0
aI0
aI254
aI255
aI0
aI0
aI254
aI255
aI0
aI0
aI0
aI0
aI0
aI0
aI0
aI0
aI0
aI0
aI0
aI0
aI0
aI0
aI0
aI0
aI0
aI0
aI0
aI0
aI0
aI0
aI0
aI0
aI0
aI0
aI0
aI0
aI0
aI0
aI0
aI0
aI0
aI0
aI0
aI0
aI0
aI0
aI0
aI0
aI0
aI0
aI0
aI0
aI0
aI0
aI0
aI0
aI0
aI0
aI0
aI0
aI0
aI0
aI0
aI0
aI0
aI0
aI0
aI0
aI0
aI0
aI0
aI0
aI0
aI0
aI0
aI0
aI0
aI0
aI0
aI0
aI0
aI0
aI0
aI0
aI0
aI0
aI0
aI0
aI0
aI0
aI0
aI0
aI0
aI0
aI0
aI0
aI0
aI0
aI0
aI0
aI0
aI0
aI0
aI0
aI0
aI0
aI0
aI0
aI0
aI0
aI0
aI0
aI0
aI0
aI0
aI0
aI0
aI0
aI0
aI0
aI0
aI0
aI0
aI0
aI0
aI0
aI0
aI0
aI0
aI0
aI0
aI0
aI0
aI0
aI0
aI0
aI0
aI0
aI0
aI0
aI0
aI0
aI0
aI0
aI0
aI0
aI0
aI0
aI0
aI0
aI0
aI0
aI0
aI0
aI0
aI0
aI0
aI0
aI0
aI0
aI0
aI0
aI0
aI0
aI0
aI0
aI0
aI0
aI0
asVnum_bytes
p7
I254
ssVlen
p8
I96
sVorigin
p9
(lp10
I-166
aI-208
asVsize_pixels
p11
(lp12
I24
aI24
asVsize_units
p13
(lp14
I833
aI791
ass."
EndChar

